<svg width="279" height="277" viewBox="0 0 279 277" fill="none" xmlns="http://www.w3.org/2000/svg">
<path d="M131.103 0.512932C108.396 2.96304 86.656 11.3486 71.8173 23.3231C68.2974 26.1528 63.7078 30.6734 63.7078 31.2946C63.7078 31.4671 63.9494 31.8122 64.2254 32.0538C64.674 32.4334 65.2952 31.9503 68.2974 29.0515C80.2374 17.4566 98.1474 8.65696 118.473 4.44691C157.33 -3.6281 194.633 6.44841 221.032 32.1918C230.902 41.8197 238.597 52.5174 245.499 66.1138C247.328 69.7717 248.95 72.7739 249.053 72.7739C249.157 72.7739 249.537 72.5669 249.882 72.2908C250.503 71.8422 250.399 71.5661 247.88 66.5279C231.247 32.9165 205.228 11.1416 172.203 3.10107C167.268 1.92778 160.608 0.823509 155.328 0.305878C150.152 -0.177238 136.245 -0.0737152 131.103 0.512932Z" fill="white"/>
<path d="M30.5795 36.4009C25.1962 38.3333 19.0537 44.89 14.257 53.7932C8.97716 63.5936 3.66283 79.9162 1.41977 93.3055C-1.61698 111.319 0.24648 124.812 6.7341 131.368C10.461 135.13 15.1197 136.821 20.9171 136.51C31.8564 135.855 43.7273 128.504 50.422 118.186C54.7701 111.526 56.8061 106.557 56.8061 102.623C56.8061 100.518 56.7371 100.345 55.9434 100.035C55.4602 99.8622 54.8391 99.7931 54.563 99.8967C54.2869 100.035 53.5968 101.588 53.0101 103.624C52.4235 105.522 51.4572 108.317 50.9051 109.766C47.8338 117.496 40.6215 125.502 33.5128 129.022C24.368 133.543 17.3973 130.506 14.9126 120.912C11.9449 109.387 14.9817 86.8524 22.1594 66.9755C27.2667 52.896 33.4438 43.4406 37.5503 43.4406C39.6898 43.4406 43.1752 46.2358 45.6598 49.9972C47.2127 52.2748 47.9719 52.896 49.0416 52.6199C50.9396 52.1368 49.8353 48.0993 46.6605 43.9237C44.521 41.0595 41.0356 37.8502 38.9996 36.8495C36.8256 35.8142 32.8571 35.5727 30.5795 36.4009Z" fill="white"/>
<path d="M139.627 53.4137C134.899 54.9666 130.62 59.6598 126.859 67.4242C124.374 72.5315 123.132 76.3619 121.337 84.3334C119.715 91.4077 118.197 96.1354 114.953 104.107C109.604 117.358 104.6 126.883 103.531 125.813C103.393 125.709 103.151 124.398 102.944 122.88C102.495 119.463 103.186 111.699 105.153 97.4467C106.602 87.0251 107.12 80.6065 106.671 77.7423C106.36 75.6373 104.6 73.8083 102.254 73.1181C100.287 72.6005 99.0791 72.8766 97.9058 74.1189C96.9396 75.1886 92.9021 83.7813 88.7265 93.6507C83.6538 105.66 78.3049 114.183 75.8203 114.183C74.6815 114.183 73.0941 112.527 72.3695 110.594C71.4032 107.937 70.8166 103.486 71.0926 100.345C71.7828 92.0288 77.0971 81.9178 83.2052 77.3627C86.1384 75.1541 87.8293 74.6365 90.2794 75.1541C93.3162 75.8098 93.7303 75.7063 93.7303 74.3604C93.7303 71.5307 89.1751 69.4257 83.7573 69.7708C78.1669 70.1159 73.6118 72.2209 69.4017 76.3964C62.7761 82.9876 59.0491 93.8578 60.1879 103.451C60.602 107.04 61.8788 111.595 63.1902 114.183C66.2959 120.257 70.437 122.017 75.4407 119.325C78.0289 117.945 81.3762 114.666 83.5502 111.388C85.4482 108.558 90.2794 99.2066 94.0754 91.0626C95.6282 87.7498 97.0086 84.9201 97.1466 84.7475C97.5607 84.2989 96.9051 89.4407 95.2832 99.0341C93.2817 110.905 92.695 116.047 92.695 121.775C92.695 129.126 93.7303 133.577 96.0078 135.82C98.5615 138.443 102.564 136.269 106.775 129.954C108.5 127.4 114.401 114.805 115.85 110.56L116.678 108.144L116.782 110.042C116.851 111.078 116.713 113.769 116.54 115.978C115.747 124.398 116.23 134.785 117.886 145.931C118.438 149.831 118.922 153.178 118.922 153.42C118.922 153.73 105.567 153.799 61.5683 153.765C29.9929 153.73 3.28324 153.834 2.21347 153.972C0.419027 154.248 0.211975 154.351 0.211975 155.076C0.211975 155.697 0.453535 155.904 1.24723 156.008C1.83388 156.111 24.299 156.042 51.2157 155.904C78.0979 155.766 104.531 155.732 109.915 155.87L119.715 156.111L121.027 160.011C122.994 165.877 125.202 169.19 128.066 170.467C130.689 171.675 133.243 170.95 135.762 168.362C137.867 166.153 139.109 163.358 140.662 157.388L141.042 155.939H209.679C276.626 155.939 278.351 155.939 278.351 155.283C278.351 154.938 278.11 154.455 277.834 154.213C277.42 153.868 263.651 153.799 211.129 153.868C174.756 153.937 144.251 153.937 143.354 153.903C141.766 153.868 141.697 153.834 141.697 152.867C141.697 152.315 142.008 150.348 142.387 148.519C144.216 139.616 144.078 132.542 141.835 120.878C141.145 117.358 140.696 114.39 140.8 114.287C140.904 114.183 143.043 113.976 145.562 113.804C154.431 113.252 157.847 112.009 161.333 108.075C163.334 105.798 163.265 105.729 164.68 109.525C167.441 116.771 170.546 120.222 176.068 122.155C177.69 122.707 178.725 122.845 181.244 122.741C184.039 122.638 184.66 122.465 187.283 121.223C191.01 119.394 193.15 117.738 199.327 111.975C207.022 104.728 211.957 101.553 218.824 99.3447C226.105 97.0326 228.245 96.8945 252.987 97.2741C260.51 97.4122 262.339 97.3432 264.41 96.86C273.9 94.617 278.731 89.7168 278.834 82.2629C278.869 80.0198 278.696 79.1916 278.041 77.8458C277.143 75.9823 275.625 74.8436 274.072 74.8436C272.761 74.8436 270.207 76.3619 269.966 77.2592C269.724 78.1909 271.001 79.6748 272.968 80.7445C274.107 81.3312 274.59 81.8488 274.762 82.539C275.729 86.9906 270.725 91.8218 263.685 93.2711C259.337 94.1339 255.369 94.2374 247.604 93.6162C228.072 92.0979 216.788 94.4099 204.848 102.381C202.846 103.727 198.705 106.833 195.634 109.283C189.147 114.494 187.042 115.667 183.798 115.84C180.83 116.012 178.967 115.046 177.138 112.458C174.825 109.111 173.204 102.105 173.79 97.7228C174.101 95.2036 174.722 94.6515 177.517 94.3409C182.521 93.8233 186.248 91.3042 188.146 87.1976C189.043 85.2306 189.147 84.6785 189.147 81.2276C189.147 77.6042 189.078 77.2937 188.008 75.1196C184.315 67.5622 176.447 67.9418 169.718 76.0168C166.543 79.7783 165.06 83.6778 163.058 93.5817C162.299 97.3086 161.402 101.208 161.022 102.243C159.055 107.489 155.88 109.766 149.289 110.732C146.632 111.112 139.627 111.181 139.075 110.802C138.833 110.663 137.97 109.628 137.142 108.489C135.9 106.799 135.072 106.108 133.07 105.073L130.551 103.762L130.758 100.932C131.103 96.0318 131.966 94.5825 135.589 92.512C141.283 89.3027 147.805 80.1579 150.014 72.2554C151.015 68.7355 151.118 63.5247 150.221 60.6605C148.91 56.3469 145.907 53.5518 142.353 53.2757C141.318 53.1722 140.11 53.2412 139.627 53.4137ZM147.84 64.56C148.15 68.3214 144.63 76.4309 140.041 82.539C137.591 85.8173 134.071 89.0956 133.829 88.3709C133.346 86.9216 139.178 71.3237 141.904 66.6305C143.043 64.698 145.079 62.4205 146.011 62.0754C147.046 61.6613 147.667 62.4895 147.84 64.56ZM185.385 77.7768C186.938 81.5382 184.591 87.0941 180.45 89.4062C178.656 90.4414 175.309 91.2006 174.964 90.683C174.653 90.1654 175.792 86.1969 176.896 83.9538C178.311 81.0551 180.14 78.743 182.003 77.5697C184.108 76.2584 184.764 76.2929 185.385 77.7768ZM137.522 116.841C138.902 121.534 139.109 123.984 139.109 134.716C139.109 145.483 138.833 148.554 137.522 153.523C136.59 157.009 135.693 158.423 134.519 158.285C131.931 157.975 130.033 151.556 128.722 138.581C128.239 134.06 128.204 131.714 128.446 125.054C128.86 114.666 128.895 114.632 134.347 114.563L136.832 114.528L137.522 116.841Z" fill="white"/>
<path d="M7.90738 183.407C8.04542 185.685 8.25247 190.827 8.356 194.83L8.59756 202.18H10.8751C16.4655 202.146 21.6073 199.799 21.6073 197.211C21.6073 196.417 21.1932 195.796 19.8474 194.519L18.1219 192.828L19.3297 191.483C22.0904 188.446 21.1932 183.511 17.5008 181.371C16.0514 180.509 13.4978 179.853 10.323 179.577L7.70033 179.301L7.90738 183.407ZM14.1879 183.235C15.9824 183.753 17.8114 185.582 17.8114 186.858C17.7768 189.032 15.0507 192.138 12.6006 192.69C11.7033 192.897 11.7033 192.863 11.4963 190.551C11.3582 189.274 11.2547 186.996 11.2547 185.513C11.2547 182.51 11.3237 182.441 14.1879 183.235ZM17.3972 197.383C17.8114 197.556 18.1564 197.832 18.1564 198.039C18.1564 198.626 15.8444 199.454 13.9119 199.523L12.1174 199.592L12.0139 198.108L11.9104 196.59L14.257 196.831C15.5338 196.969 16.9486 197.211 17.3972 197.383Z" fill="white"/>
<path d="M129.412 180.061C127.652 180.855 126.479 182.477 126.272 184.409C125.961 186.894 126.651 188.171 130.378 192.07C133.415 195.245 133.795 195.797 133.691 196.763C133.622 197.522 133.312 198.006 132.656 198.351C131.793 198.868 131.655 198.834 130.344 197.764C129.033 196.694 128.86 196.66 127.997 197.074C126.686 197.695 126.651 198.454 127.859 199.869C131.276 203.734 137.97 201.042 136.901 196.246C136.452 194.244 135.486 192.864 133.036 190.517C130.516 188.136 129.102 185.824 129.481 184.72C129.999 183.236 131.069 182.511 132.656 182.511C133.967 182.511 134.347 182.684 135.279 183.719C136.176 184.685 136.659 184.927 137.66 184.927C138.729 184.927 138.937 184.823 138.937 184.202C138.937 182.96 137.556 180.889 136.176 180.13C134.485 179.198 131.414 179.164 129.412 180.061Z" fill="white"/>
<path d="M174.308 180.234C170.339 182.063 167.993 186.79 168.338 192.312C168.717 197.902 172.134 201.836 176.723 201.836C180.416 201.836 183.453 199.213 184.867 194.865C186.834 188.723 184.902 181.579 180.795 179.888C179.07 179.164 176.309 179.302 174.308 180.234ZM180.278 183.374C183.142 185.755 183.142 193.588 180.312 196.832C179.105 198.178 177.103 198.937 175.654 198.592C172.203 197.729 170.339 191.449 172.203 186.997C173.79 183.132 177.862 181.338 180.278 183.374Z" fill="white"/>
<path d="M52.0439 180.785C50.9741 181.441 50.9396 181.51 51.4227 182.442C51.9058 183.339 53.2517 184.961 57.7723 190.103C58.9456 191.449 59.9118 192.76 59.9118 193.001C59.9118 193.243 59.6703 194.14 59.3597 194.968C58.0829 198.661 57.4962 201.284 57.9449 201.56C58.6695 202.043 60.1189 201.87 60.671 201.215C60.9816 200.904 61.9478 198.074 62.8106 194.934C63.6733 191.794 64.9156 187.377 65.6058 185.099C66.2614 182.856 66.8136 180.785 66.8136 180.544C66.8136 180.268 66.3304 180.095 65.4677 180.095C63.9493 180.095 64.0184 179.992 62.2239 185.41C61.7753 186.755 61.2232 187.894 61.0161 187.963C60.602 188.101 57.9449 185.548 55.0461 182.235L53.1827 180.095L52.0439 180.785Z" fill="white"/>
<path d="M216.822 180.336C216.719 180.474 216.546 182.717 216.408 185.271C216.029 192.759 217.064 197.487 219.721 200.006C221.792 201.973 223.69 202.283 226.071 201.145C230.005 199.247 232.179 192.38 231.592 183.787L231.351 180.094H229.867H228.383L228.245 186.375C228.141 191.931 228.003 192.932 227.348 194.623C226.312 197.176 225.208 198.384 223.828 198.384C222.206 198.384 221.412 197.797 220.618 196.037C219.928 194.554 219.859 193.863 219.859 187.341V180.267L218.41 180.163C217.616 180.094 216.926 180.198 216.822 180.336Z" fill="white"/>
<path d="M259.855 187.239C259.958 191 260.165 195.728 260.269 197.764L260.476 201.491H265.79H271.104V199.938V198.385H268.378C266.894 198.385 265.203 198.281 264.617 198.178L263.582 197.971L263.375 194.106C263.271 192.001 263.064 188.067 262.96 185.341L262.719 180.44H261.166H259.648L259.855 187.239Z" fill="white"/>
<path d="M206.573 220.642C188.525 231.651 169.856 238.311 151.739 240.14C147.184 240.588 137.28 240.588 132.69 240.14C115.057 238.38 96.7325 231.582 79.9958 220.608C77.8563 219.193 75.9583 218.054 75.7858 218.054C75.6132 218.054 75.3027 218.365 75.0956 218.744C74.785 219.331 75.0611 219.642 77.7528 221.436C94.3514 232.548 111.64 239.277 129.792 241.727C135.831 242.521 148.426 242.555 154.5 241.762C168.959 239.864 182.417 235.55 196.911 228.234C201.328 225.991 211.198 220.332 212.336 219.365C212.854 218.951 212.302 217.675 211.646 217.744C211.405 217.778 209.127 219.055 206.573 220.642Z" fill="white"/>
<path d="M42.6921 226.924L37.1362 233.412L38.7581 234.861C41.8638 237.622 42.8991 238.208 45.0386 238.346C48.1444 238.554 50.3185 237.242 51.4917 234.447C52.1129 232.929 51.9404 230.824 51.0776 229.512C50.5945 228.788 50.629 228.753 51.4227 228.753C52.4235 228.753 53.7003 227.304 53.7003 226.199C53.6658 225.82 53.4932 225.13 53.2517 224.75C52.8376 223.991 48.8691 220.471 48.455 220.471C48.317 220.471 45.7288 223.37 42.6921 226.924ZM50.353 224.301C51.7678 225.44 52.0439 226.786 51.0086 227.338C50.3185 227.718 49.4902 227.373 48.1099 226.061L47.1782 225.199L47.9374 224.232C48.3515 223.715 48.7656 223.266 48.8691 223.266C48.9726 223.232 49.6283 223.715 50.353 224.301ZM47.5578 227.787C48.317 228.408 49.1452 229.34 49.4212 229.857C50.56 232.031 49.5938 234.723 47.3162 235.793C45.5908 236.621 44.1414 236.31 41.9674 234.585L40.2419 233.205L43.0371 229.961C44.59 228.166 45.9359 226.683 46.0049 226.683C46.0739 226.683 46.7641 227.2 47.5578 227.787Z" fill="white"/>
<path d="M235.768 225.094C231.903 226.544 230.246 230.995 232.282 234.446C234.905 238.932 241.393 238.518 243.532 233.756C243.877 232.997 244.188 231.858 244.188 231.237C244.188 230.236 244.084 230.133 243.152 230.133C242.255 230.133 242.117 230.236 242.117 231.133C242.117 232.238 240.944 234.136 239.805 234.895C239.046 235.378 239.011 235.343 239.011 234.274C239.011 233.652 239.184 231.375 239.426 229.235C239.633 227.061 239.736 225.232 239.633 225.129C239.184 224.646 237.01 224.646 235.768 225.094ZM237.838 227.959C237.735 228.511 237.562 230.374 237.424 232.1C237.252 234.998 237.148 235.309 236.527 235.309C236.147 235.309 235.319 234.791 234.663 234.136C233.663 233.135 233.49 232.721 233.49 231.375C233.49 228.925 235.077 227.061 237.217 227.027C237.907 227.027 238.011 227.165 237.838 227.959Z" fill="white"/>
<path d="M223.828 229.375L222.999 230.03L224.311 231.618C225.381 232.929 225.519 233.24 225.07 233.481C224.587 233.757 224.587 233.861 225.07 234.551C225.519 235.207 225.691 235.276 226.14 234.93C226.45 234.654 226.726 234.62 226.864 234.827C227.002 235.034 228.141 236.518 229.453 238.14C232.351 241.867 233.628 242.384 236.078 240.935C236.734 240.555 236.734 240.521 236.182 239.9C235.768 239.451 235.25 239.279 234.422 239.382C233.352 239.486 233.145 239.348 230.798 236.345L228.314 233.205L229.211 232.446C229.97 231.756 230.005 231.618 229.591 231.031C229.142 230.41 229.107 230.41 228.141 231.031L227.175 231.652L225.933 230.168L224.656 228.684L223.828 229.375Z" fill="white"/>
<path d="M51.6988 237.449C47.8338 242.384 47.8338 242.384 48.5585 242.97C48.9726 243.315 49.3867 243.591 49.5248 243.591C49.6283 243.591 50.5255 242.556 51.4572 241.279C54.3905 237.38 54.8046 237.035 56.53 237.035C57.3582 237.035 58.2209 237.207 58.428 237.414C58.704 237.69 58.9801 237.552 59.3942 236.931C60.1879 235.723 59.8083 235.309 57.9794 235.309C56.4265 235.309 56.1504 235.068 56.8751 234.343C57.1857 234.032 57.1167 233.791 56.6335 233.239C56.2884 232.859 55.9089 232.549 55.8053 232.549C55.7018 232.549 53.8383 234.757 51.6988 237.449Z" fill="white"/>
<path d="M219.825 237.518C218.444 238.898 218.272 240.382 219.342 242.108C220.101 243.384 221.24 243.799 223.068 243.419C223.759 243.281 224.759 243.108 225.312 243.005C226.519 242.763 227.279 243.419 227.279 244.661C227.279 245.904 226.312 246.49 225.035 246.007C224.104 245.662 222.792 246.042 222.792 246.697C222.792 247.318 224.345 248.078 225.588 248.078C228.107 248.078 229.867 245.489 228.9 243.177C228.624 242.556 228.072 241.763 227.693 241.383C226.933 240.727 226.312 240.727 222.861 241.383C221.481 241.659 220.722 241.072 220.722 239.761C220.722 238.415 221.792 237.863 223.207 238.45C224.069 238.795 224.311 238.76 224.794 238.277C225.346 237.725 225.346 237.656 224.552 237C224.069 236.586 223.241 236.345 222.378 236.345C221.274 236.345 220.756 236.586 219.825 237.518Z" fill="white"/>
<path d="M58.4625 239.104C56.0124 240.416 54.6665 243.556 55.3912 246.282C56.2194 249.319 59.3942 251.493 62.362 251.079C64.0529 250.872 64.536 250.458 64.2599 249.526C64.0529 248.939 63.7423 248.87 62.1549 248.905C60.3605 248.939 58.635 248.18 58.2899 247.179C58.1864 246.903 67.8143 244.902 68.1249 245.143C68.1594 245.178 67.9523 247.421 67.6763 250.112C67.0206 256.358 66.9861 255.841 68.2284 256.358C69.2292 256.773 69.3327 256.738 70.713 255.427C71.5067 254.702 72.4385 253.874 72.7835 253.598C73.3702 253.184 73.4047 253.218 73.2322 253.977C73.1286 254.426 72.9561 255.668 72.8526 256.738C72.6455 258.636 72.6455 258.671 73.7153 259.119C74.647 259.499 74.8541 259.464 75.5442 258.878C75.9583 258.498 78.2014 256.531 80.548 254.495C82.8601 252.424 84.758 250.63 84.758 250.492C84.758 250.354 84.3439 250.078 83.8608 249.871C83.0326 249.491 82.7565 249.629 79.4782 252.459C74.1639 257.049 74.6815 256.876 74.9231 254.081C75.1646 251.7 75.1646 251.7 77.2352 249.698C78.3739 248.594 79.2367 247.628 79.1676 247.593C79.1331 247.524 78.719 247.283 78.2704 247.076C77.5802 246.731 77.3387 246.731 76.8556 247.179C75.9928 247.973 75.7858 247.869 75.7858 246.765C75.7858 246.04 75.5442 245.661 74.9576 245.385C74.1294 245.005 74.1294 245.04 73.8533 247.49C73.6118 249.974 73.6118 249.974 71.7483 251.631C70.713 252.563 69.7813 253.253 69.7123 253.149C69.5742 253.011 69.9884 248.214 70.4715 244.729C70.644 243.383 70.575 243.245 69.6088 242.728C68.5735 242.21 68.539 242.21 68.539 242.866C68.539 243.97 67.9523 244.004 67.7453 242.935C67.4692 241.623 65.5713 239.484 64.1564 238.897C62.569 238.207 59.9809 238.31 58.4625 239.104ZM63.4662 240.864C64.4325 241.347 65.3987 242.555 65.4332 243.245C65.4332 243.659 64.5015 243.97 61.5683 244.557C59.3252 245.005 57.5653 245.178 57.3927 245.005C56.8061 244.418 57.5308 242.59 58.7386 241.52C60.0499 240.381 62.0169 240.105 63.4662 240.864Z" fill="white"/>
<path d="M215.718 240.313C215.062 240.831 215.062 240.865 215.684 241.9L216.305 242.936L215.304 242.729C214.786 242.591 214.165 242.452 213.924 242.383C213.061 242.107 210.852 243.039 209.817 244.074C205.331 248.561 210.507 256.739 216.374 254.496C218.168 253.806 219.169 252.805 219.825 251.011L220.308 249.63L220.722 250.562C221.24 251.632 221.654 251.735 222.62 251.08C223.206 250.631 223.034 250.286 220.135 245.317C218.444 242.383 216.891 239.968 216.719 239.899C216.546 239.864 216.098 240.037 215.718 240.313ZM216.581 244.799C217.133 245.11 217.823 245.8 218.134 246.352C219.618 249.251 217.685 252.564 214.51 252.564C211.336 252.564 209.403 249.251 210.887 246.352C211.888 244.454 214.51 243.729 216.581 244.799Z" fill="white"/>
<path d="M199.154 244.177C196.704 245.419 194.633 246.489 194.564 246.524C194.461 246.627 195.082 248.008 195.358 248.353C195.427 248.422 196.255 248.077 197.222 247.559C198.222 247.076 199.12 246.731 199.258 246.834C199.396 246.903 200.948 249.94 202.743 253.529L206.021 260.12L206.987 259.602L207.954 259.119L204.675 252.563C202.881 248.974 201.397 245.868 201.397 245.73C201.397 245.557 202.191 245.074 203.123 244.626C204.089 244.177 204.848 243.694 204.848 243.521C204.848 243.038 204.158 241.865 203.882 241.9C203.744 241.9 201.639 242.935 199.154 244.177Z" fill="white"/>
<path d="M87.8638 247.214C87.1736 248.042 87.8638 248.939 89.1061 248.939C90.0033 248.939 90.1069 248.801 90.1069 247.904C90.1069 247.041 89.9688 246.834 89.2096 246.765C88.692 246.696 88.1399 246.903 87.8638 247.214Z" fill="white"/>
<path d="M83.8263 256.808C81.5142 261.915 81.3762 262.433 81.8938 262.812C82.2044 263.054 82.653 263.261 82.8946 263.261C83.2396 263.261 88.2089 252.667 88.2089 251.907C88.2089 251.597 87.3807 251.183 86.725 251.183C86.4834 251.183 85.1721 253.702 83.8263 256.808Z" fill="white"/>
<path d="M180.795 252.217C179.829 252.597 179.829 252.459 180.726 255.599C181.106 256.98 181.382 258.222 181.279 258.291C181.21 258.36 180.657 258.187 180.036 257.877C178.621 257.187 176.137 257.394 174.894 258.325C172.72 259.947 171.754 262.57 172.444 265.089C173.894 270.542 180.347 271.853 183.142 267.263L183.798 266.193L184.005 267.332C184.143 267.919 184.419 268.436 184.66 268.436C185.454 268.436 186.213 268.022 186.213 267.608C186.213 266.918 181.934 251.872 181.727 251.907C181.624 251.907 181.21 252.045 180.795 252.217ZM180.692 260.016C184.315 262.19 182.831 267.746 178.621 267.746C175.447 267.746 173.514 264.433 174.998 261.535C175.999 259.602 178.759 258.878 180.692 260.016Z" fill="white"/>
<path d="M87.0356 258.326C85.9658 261.467 85.2066 264.193 85.3447 264.331C85.4827 264.469 85.9313 264.676 86.3109 264.78C86.9666 264.952 87.1391 264.676 87.9673 262.088C89.1751 258.361 90.1069 256.981 91.7978 256.429C94.3169 255.6 96.7325 257.153 97.0776 259.776C97.2156 260.846 97.0086 261.95 96.1459 264.331C95.0416 267.368 95.0071 267.506 95.6282 267.954C95.9733 268.23 96.4564 268.438 96.6635 268.438C96.8705 268.438 97.6297 266.574 98.3544 264.331C99.7693 259.879 99.8038 258.913 98.4924 256.774C97.1811 254.634 93.7648 253.668 91.5217 254.807C90.2449 255.497 90.2449 255.497 90.6935 254.254C90.9696 253.392 90.9696 253.116 90.59 252.874C89.2787 252.046 89.0026 252.46 87.0356 258.326Z" fill="white"/>
<path d="M136.141 257.843C130.861 259.327 128.17 265.297 130.62 270.093C131.966 272.716 135.555 274.994 138.419 274.994C140.041 274.994 142.698 273.889 144.078 272.647C145.424 271.439 145.528 271.232 145.735 269.093L145.942 266.815L144.803 266.608C144.182 266.47 142.077 266.367 140.11 266.367H136.521V267.402V268.437H139.903C141.766 268.437 143.388 268.506 143.492 268.61C143.595 268.713 143.561 269.3 143.457 269.886C142.974 272.198 138.212 273.406 135.486 271.922C133.45 270.818 132.276 269.058 132.104 266.781C131.897 263.675 133.208 261.466 135.934 260.327C138.453 259.292 140.973 259.844 143.009 261.88C144.113 262.95 144.147 262.985 144.803 262.398C145.769 261.535 145.666 261.087 144.216 259.81C141.939 257.808 138.937 257.084 136.141 257.843Z" fill="white"/>
<path d="M105.394 258.43C101.943 259.465 100.011 263.744 101.46 267.16C102.047 268.575 104.083 270.37 105.463 270.68C106.602 270.922 107.672 272.199 107.465 273.13C107.396 273.441 106.982 273.993 106.464 274.373C105.36 275.201 103.876 274.752 103.358 273.372C102.944 272.302 102.461 271.888 101.529 271.888C100.977 271.888 100.908 272.095 101.081 273.337C101.322 275.132 102.392 276.201 104.462 276.754C105.877 277.133 106.188 277.099 107.396 276.478C109.259 275.546 109.984 273.579 109.156 271.888C108.431 270.473 108.431 270.508 109.19 270.508C110.294 270.508 112.261 268.851 113.055 267.229C113.952 265.366 113.849 263.675 112.71 262.157L112.02 261.225L113.297 261.294C114.47 261.363 114.608 261.259 114.608 260.535C114.608 259.741 114.366 259.637 111.157 258.913C107.465 258.05 106.844 257.981 105.394 258.43ZM110.398 261.88C112.089 263.744 111.468 267.126 109.19 268.299C105.877 270.024 102.185 266.746 103.393 263.123C103.841 261.708 104.324 261.259 106.05 260.673C107.672 260.12 109.156 260.5 110.398 261.88Z" fill="white"/>
<path d="M162.92 260.638C161.436 261.259 159.711 263.364 159.435 264.814C158.434 270.197 163.058 274.372 167.855 272.405C170.477 271.301 171.823 269.3 171.789 266.505C171.789 264.503 171.202 263.192 169.753 261.811C167.993 260.155 165.163 259.672 162.92 260.638ZM168.51 263.744C169.442 264.745 169.649 265.262 169.649 266.505C169.649 270.369 165.06 272.095 162.368 269.265C161.16 267.988 161.195 265.09 162.402 263.778C163.576 262.536 164.369 262.191 166.026 262.398C167.061 262.502 167.682 262.847 168.51 263.744Z" fill="white"/>
<path d="M151.153 261.88C148.15 262.536 146.183 265.09 146.183 268.23C146.183 273.751 152.947 276.512 156.881 272.578C161.333 268.126 157.226 260.5 151.153 261.88ZM154.465 264.468C155.742 265.124 156.536 266.642 156.536 268.402C156.536 272.267 151.015 273.682 148.944 270.335C146.701 266.677 150.635 262.501 154.465 264.468Z" fill="white"/>
</svg>
