<svg id="mySvg" xmlns="http://www.w3.org/2000/svg" viewBox="0 0 702 560" width="702" height="560" preserveAspectRatio="xMidYMid meet" style="width: 100%; height: 100%; transform: translate3d(0px, 0px, 0px);"><defs><clipPath id="__lottie_element_17"><rect width="702" height="560" x="0" y="0"></rect></clipPath></defs><g clip-path="url(#__lottie_element_17)"><g transform="matrix(1,0,0,1,106.38919830322266,197.60882568359375)" opacity="1" style="display: block;"><g opacity="1" transform="matrix(1,0,0,1,1.9999847412109375,1.9999542236328125)"><path fill="rgb(0,0,0)" fill-opacity="0" d=" M82.16549682617188,262.926025390625 C20.754600524902344,252.60801696777344 5.734200477600098,194.47100830078125 1.5969403982162476,138.49301147460938 C-0.3969195783138275,111.46001434326172 -3.9858596324920654,44.349613189697266 16.08570098876953,46.410011291503906 C33.44879913330078,48.18781280517578 36.805198669433594,136.16700744628906 36.805198669433594,136.16700744628906 C36.805198669433594,136.16700744628906 37.22060012817383,69.52210998535156 46.87419891357422,28.631412506103516 C54.367698669433594,-3.1706583499908447 85.52179718017578,2.72784161567688 83.72730255126953,28.631412506103516 C81.45100402832031,61.61311340332031 80.4541015625,69.80461120605469 77.89530181884766,93.61460876464844 C75.58570098876953,115.09801483154297 76.84850311279297,141.1680145263672 76.84850311279297,141.1680145263672 C76.84850311279297,141.1680145263672 77.09770202636719,42.339210510253906 92.45040130615234,12.996212005615234 C105.74300384521484,-12.408888816833496 134.13900756835938,3.907541513442993 131.86199951171875,23.846111297607422 C129.78500366210938,42.12321090698242 122.39199829101562,69.75471496582031 119.68299865722656,93.53150939941406 C116.9749984741211,117.30801391601562 118.38700103759766,146.51800537109375 118.38700103759766,146.51800537109375 C118.38700103759766,146.51800537109375 112.87100219726562,56.146610260009766 142.96200561523438,24.72671127319336 C157.83200073242188,9.191311836242676 179.83099365234375,23.081811904907227 177.08999633789062,41.45851135253906 C174.34800720214844,59.83531188964844 171.125,70.65200805664062 165.2259979248047,93.63121032714844 C159.31100463867188,116.59400939941406 151.1529998779297,158.48101806640625 162.6009979248047,157.6840057373047 C174.0489959716797,156.88601684570312 202.07899475097656,139.47300720214844 229.6280059814453,147.0170135498047 C249.94900512695312,152.5830078125 248.6529998779297,171.57400512695312 232.27000427246094,175.5120086669922 C204.48899841308594,182.17501831054688 172.43699645996094,196.14901733398438 160.0749969482422,221.93600463867188 C144.24099731445312,254.9340057373047 121.16200256347656,269.4900207519531 82.18209838867188,262.9430236816406 C82.17656707763672,262.9373474121094 82.17103576660156,262.9316711425781 82.16549682617188,262.926025390625 C82.16549682617188,262.926025390625 82.16549682617188,262.926025390625 82.16549682617188,262.926025390625 C82.16549682617188,262.926025390625 82.16549682617188,262.926025390625 82.16549682617188,262.926025390625 C82.16549682617188,262.926025390625 82.16549682617188,262.926025390625 82.16549682617188,262.926025390625z"></path></g><g opacity="1" transform="matrix(1,0,0,1,1.9999847412109375,1.9999542236328125)"><path stroke-linecap="round" stroke-linejoin="round" fill-opacity="0" stroke="rgb(240,83,23)" stroke-opacity="1" stroke-width="3" d=" M82.16549682617188,262.926025390625 C20.754600524902344,252.60801696777344 5.734200477600098,194.47100830078125 1.5969403982162476,138.49301147460938 C-0.3969195783138275,111.46001434326172 -3.9858596324920654,44.349613189697266 16.08570098876953,46.410011291503906 C33.44879913330078,48.18781280517578 36.805198669433594,136.16700744628906 36.805198669433594,136.16700744628906 C36.805198669433594,136.16700744628906 37.22060012817383,69.52210998535156 46.87419891357422,28.631412506103516 C54.367698669433594,-3.1706583499908447 85.52179718017578,2.72784161567688 83.72730255126953,28.631412506103516 C81.45100402832031,61.61311340332031 80.4541015625,69.80461120605469 77.89530181884766,93.61460876464844 C75.58570098876953,115.09801483154297 76.84850311279297,141.1680145263672 76.84850311279297,141.1680145263672 C76.84850311279297,141.1680145263672 77.09770202636719,42.339210510253906 92.45040130615234,12.996212005615234 C105.74300384521484,-12.408888816833496 134.13900756835938,3.907541513442993 131.86199951171875,23.846111297607422 C129.78500366210938,42.12321090698242 122.39199829101562,69.75471496582031 119.68299865722656,93.53150939941406 C116.9749984741211,117.30801391601562 118.38700103759766,146.51800537109375 118.38700103759766,146.51800537109375 C118.38700103759766,146.51800537109375 112.87100219726562,56.146610260009766 142.96200561523438,24.72671127319336 C157.83200073242188,9.191311836242676 179.83099365234375,23.081811904907227 177.08999633789062,41.45851135253906 C174.34800720214844,59.83531188964844 171.125,70.65200805664062 165.2259979248047,93.63121032714844 C159.31100463867188,116.59400939941406 151.1529998779297,158.48101806640625 162.6009979248047,157.6840057373047 C174.0489959716797,156.88601684570312 202.07899475097656,139.47300720214844 229.6280059814453,147.0170135498047 C249.94900512695312,152.5830078125 248.6529998779297,171.57400512695312 232.27000427246094,175.5120086669922 C204.48899841308594,182.17501831054688 172.43699645996094,196.14901733398438 160.0749969482422,221.93600463867188 C144.24099731445312,254.9340057373047 121.16200256347656,269.4900207519531 82.18209838867188,262.9430236816406 C82.17656707763672,262.9373474121094 82.17103576660156,262.9316711425781 82.16549682617188,262.926025390625 C82.16549682617188,262.926025390625 82.16549682617188,262.926025390625 82.16549682617188,262.926025390625 C82.16549682617188,262.926025390625 82.16549682617188,262.926025390625 82.16549682617188,262.926025390625 C82.16549682617188,262.926025390625 82.16549682617188,262.926025390625 82.16549682617188,262.926025390625z"></path></g><g opacity="1" transform="matrix(1,0,0,1,96.4482421875,169.18679809570312)"><path fill="rgb(240,83,23)" fill-opacity="1" d=" M3.949763298034668,9.837203025817871 C1.1082631349563599,8.541203498840332 -0.5699368119239807,5.417202949523926 0.1777631938457489,2.8592031002044678 C0.9254631996154785,0.3002031445503235 3.832763195037842,-0.7297968864440918 6.674763202667236,0.5492031574249268 C9.515763282775879,1.8282030820846558 11.19376277923584,4.969202995300293 10.44576358795166,7.52720308303833 C9.698762893676758,10.086203575134277 6.7907633781433105,11.116203308105469 3.949763298034668,9.837203025817871 C3.949763298034668,9.837203025817871 3.949763298034668,9.837203025817871 3.949763298034668,9.837203025817871 C3.949763298034668,9.837203025817871 3.949763298034668,9.837203025817871 3.949763298034668,9.837203025817871 C3.949763298034668,9.837203025817871 3.949763298034668,9.837203025817871 3.949763298034668,9.837203025817871z"></path></g><g opacity="1" transform="matrix(1,0,0,1,69.21682739257812,168.97079467773438)"><path fill="rgb(240,83,23)" fill-opacity="1" d=" M3.9494709968566895,9.837203025817871 C1.108170986175537,8.541203498840332 -0.5699290633201599,5.417202949523926 0.1777709573507309,2.8592031002044678 C0.9254709482192993,0.3002031445503235 3.8331708908081055,-0.7297968864440918 6.674370765686035,0.5492031574249268 C9.515670776367188,1.8292031288146973 11.193771362304688,4.969202995300293 10.446070671081543,7.528203010559082 C9.698370933532715,10.086203575134277 6.790670871734619,11.117202758789062 3.9494709968566895,9.837203025817871 C3.9494709968566895,9.837203025817871 3.9494709968566895,9.837203025817871 3.9494709968566895,9.837203025817871 C3.9494709968566895,9.837203025817871 3.9494709968566895,9.837203025817871 3.9494709968566895,9.837203025817871 C3.9494709968566895,9.837203025817871 3.9494709968566895,9.837203025817871 3.9494709968566895,9.837203025817871z"></path></g><g opacity="1" transform="matrix(1,0,0,1,60.787105560302734,190.38999938964844)"><path fill="rgb(0,0,0)" fill-opacity="0" d=" M0,5.598999977111816 C14.472100257873535,41.60499954223633 61.74290084838867,35.87200164794922 64.15290069580078,0"></path></g><g opacity="1" transform="matrix(1,0,0,1,60.787105560302734,190.38999938964844)"><path stroke-linecap="round" stroke-linejoin="round" fill-opacity="0" stroke="rgb(240,83,23)" stroke-opacity="1" stroke-width="3" d=" M0,5.598999977111816 C14.472100257873535,41.60499954223633 61.74290084838867,35.87200164794922 64.15290069580078,0"></path></g></g><g transform="matrix(1,0,0,1,347.0859375,79.0322265625)" opacity="1" style="display: block;"><g opacity="1" transform="matrix(1,0,0,1,2.0000076293945312,1.999969482421875)"><path stroke-linecap="round" stroke-linejoin="round" fill-opacity="0" stroke="rgb(240,83,23)" stroke-opacity="1" stroke-width="3" d=" M162.0749969482422,1.528857707977295 C223.30599975585938,11.816797256469727 238.28298950195312,69.76739501953125 242.40798950195312,125.59700012207031 C244.39599609375,152.552001953125 247.9739990234375,219.46499633789062 227.9619903564453,217.41099548339844 C210.64898681640625,215.63800048828125 207.30299377441406,127.91699981689453 207.30299377441406,127.91699981689453 C207.30299377441406,127.91699981689453 206.8889923095703,194.36599731445312 197.26300048828125,235.13699340820312 C189.7919921875,266.84600830078125 158.72898864746094,260.9649963378906 160.5179901123047,235.13699340820312 C162.78799438476562,202.2519989013672 163.78199768066406,194.08499145507812 166.33299255371094,170.343994140625 C168.63600158691406,148.9239959716797 167.3769989013672,122.93000030517578 167.3769989013672,122.93000030517578 C167.3769989013672,122.93000030517578 167.12799072265625,221.468994140625 151.8209991455078,250.7259979248047 C138.56700134277344,276.0570068359375 110.25399780273438,259.7879943847656 112.52399444580078,239.9080047607422 C114.5949935913086,221.68499755859375 121.96699523925781,194.13400268554688 124.6679916381836,170.427001953125 C127.36799621582031,146.72000122070312 125.95999145507812,117.59600067138672 125.95999145507812,117.59600067138672 C125.95999145507812,117.59600067138672 131.45999145507812,207.70199584960938 101.45799255371094,239.02999877929688 C86.63029479980469,254.52000427246094 64.69579315185547,240.6699981689453 67.42939758300781,222.34799194335938 C70.16289520263672,204.02499389648438 73.37679290771484,193.239990234375 79.25799560546875,170.3280029296875 C85.15579223632812,147.43299865722656 93.29009246826172,105.66799926757812 81.87559509277344,106.46299743652344 C70.46109771728516,107.27499389648438 42.51289367675781,124.6199951171875 15.045193672180176,117.0989990234375 C-5.215995788574219,111.54899597167969 -3.923785924911499,92.61299896240234 12.411093711853027,88.68669891357422 C40.110694885253906,82.04339599609375 72.0680923461914,68.11079406738281 84.39369201660156,42.39909744262695 C100.18199157714844,9.514097213745117 123.1929931640625,-4.998452186584473 162.0749969482422,1.528857707977295 C162.0749969482422,1.528857707977295 162.0749969482422,1.528857707977295 162.0749969482422,1.528857707977295 C162.0749969482422,1.528857707977295 162.0749969482422,1.528857707977295 162.0749969482422,1.528857707977295 C162.0749969482422,1.528857707977295 162.0749969482422,1.528857707977295 162.0749969482422,1.528857707977295z"></path></g><g opacity="1" transform="matrix(1,0,0,1,158.96194458007812,48.22560119628906)"><path fill="rgb(240,83,23)" fill-opacity="1" d=" M3.938054323196411,9.808598518371582 C1.1050543785095215,8.516398429870605 -0.5679455995559692,5.401898384094238 0.17705439031124115,2.8505985736846924 C0.9230543971061707,0.29929858446121216 3.822054386138916,-0.7278014421463013 6.655054569244385,0.5477985739707947 C9.488054275512695,1.8399986028671265 11.161054611206055,4.954598426818848 10.415054321289062,7.505898475646973 C9.67005443572998,10.057098388671875 6.771054267883301,11.084298133850098 3.938054323196411,9.808598518371582 C3.938054323196411,9.808598518371582 3.938054323196411,9.808598518371582 3.938054323196411,9.808598518371582 C3.938054323196411,9.808598518371582 3.938054323196411,9.808598518371582 3.938054323196411,9.808598518371582 C3.938054323196411,9.808598518371582 3.938054323196411,9.808598518371582 3.938054323196411,9.808598518371582z"></path></g><g opacity="1" transform="matrix(1,0,0,1,131.82594299316406,48.00975799560547)"><path fill="rgb(240,83,23)" fill-opacity="1" d=" M3.938054323196411,9.808642387390137 C1.1050543785095215,8.51644229888916 -0.5679455995559692,5.4018425941467285 0.17705439031124115,2.850642442703247 C0.9230543971061707,0.29934245347976685 3.822054386138916,-0.7278575301170349 6.655054569244385,0.5478424429893494 C9.488054275512695,1.8234424591064453 11.161054611206055,4.954542636871338 10.416054725646973,7.505842685699463 C9.67005443572998,10.05714225769043 6.771054267883301,11.084342002868652 3.938054323196411,9.808642387390137 C3.938054323196411,9.808642387390137 3.938054323196411,9.808642387390137 3.938054323196411,9.808642387390137 C3.938054323196411,9.808642387390137 3.938054323196411,9.808642387390137 3.938054323196411,9.808642387390137 C3.938054323196411,9.808642387390137 3.938054323196411,9.808642387390137 3.938054323196411,9.808642387390137z"></path></g><g opacity="1" transform="matrix(1,0,0,1,123.4209976196289,69.36519622802734)"><path fill="rgb(0,0,0)" fill-opacity="0" d=" M0,5.583000183105469 C14.430000305175781,41.4827995300293 61.5620002746582,35.767799377441406 63.9640007019043,0"></path></g><g opacity="1" transform="matrix(1,0,0,1,123.4209976196289,69.36519622802734)"><path stroke-linecap="round" stroke-linejoin="round" fill-opacity="0" stroke="rgb(240,83,23)" stroke-opacity="1" stroke-width="3" d=" M0,5.583000183105469 C14.430000305175781,41.4827995300293 61.5620002746582,35.767799377441406 63.9640007019043,0"></path></g></g><g transform="matrix(1,0,0,1,316,245.5)" opacity="1" style="display: block;"><g opacity="0.9730000000000001" transform="matrix(1,0,0,1,0,0)"><path fill="rgb(240,83,23)" fill-opacity="1" d=" M41.83369827270508,66.6969985961914 C39.43149948120117,69.48870086669922 35.233001708984375,69.78040313720703 32.47570037841797,67.36370086669922 C27.81760025024414,63.30110168457031 20.861799240112305,57.03010177612305 15.681500434875488,51.63420104980469 C7.179999828338623,42.82149887084961 -3.410360097885132,27.925399780273438 1.0597399473190308,15.46679973602295 C4.109429836273193,6.945819854736328 14.156700134277344,0.17485299706459045 23.34749984741211,3.8832600116729736 C31.68199920654297,7.237490177154541 35.692501068115234,17.216899871826172 35.692501068115234,17.216899871826172 C35.692501068115234,17.216899871826172 38.804901123046875,4.0082597732543945 48.58060073852539,0.8206989765167236 C61.510398864746094,-3.3877201080322266 74.39849853515625,9.050029754638672 68.54979705810547,27.571199417114258 C64.97789764404297,38.86309814453125 49.52050018310547,57.78010177612305 41.83369827270508,66.7177963256836 C41.83369827270508,66.7177963256836 41.83369827270508,66.6969985961914 41.83369827270508,66.6969985961914 C41.83369827270508,66.6969985961914 41.83369827270508,66.6969985961914 41.83369827270508,66.6969985961914z"></path></g></g></g></svg>