<?xml version="1.0" encoding="UTF-8"?>
<svg id="Layer_1" xmlns="http://www.w3.org/2000/svg" version="1.1" viewBox="0 0 1564.24 423.69">
  <!-- Generator: Adobe Illustrator 29.0.1, SVG Export Plug-In . SVG Version: 2.1.0 Build 192)  -->
  <defs>
    <style>
      .st0 {
        stroke: #b91000;
        stroke-width: 2px;
      }

      .st0, .st1, .st2 {
        fill: none;
        stroke-miterlimit: 10;
      }

      .st1, .st2 {
        stroke: #d7d7d7;
        stroke-width: 3.88px;
      }

      .st3 {
        fill: #b91000;
      }

      .st2 {
        stroke-dasharray: 6.77 6.77;
      }
    </style>
  </defs>
  <g>
    <path class="st1" d="M53.28,342.83s1.02-.55,2.99-1.59"/>
    <path class="st2" d="M62.26,338.09c61.88-32.28,427.57-216.37,593.45-148.52,181.55,74.26,285.54,169.06,552.92,77.42,0,0,168.2-69.88,261.89-136.64"/>
    <path class="st1" d="M1473.28,128.36c.92-.67,1.83-1.33,2.74-2"/>
  </g>
  <circle class="st0" cx="40.98" cy="348.37" r="10.05"/>
  <g>
    <path class="st3" d="M1504.24,120.86l.22-.31s-.08.07-.22.31Z"/>
    <path class="st3" d="M1484.5,90.8s-.06.02-.09.03c.06-.02.08-.03.09-.03Z"/>
    <path class="st3" d="M1512.63,108.86s0,.01-.01.02c-.01.03-.03.06-.04.09l.05-.1Z"/>
    <polygon class="st3" points="1527.7 80.71 1527.7 80.71 1527.73 80.56 1527.7 80.71"/>
    <path class="st3" d="M1530.44,78.21c-.46.09-.95.18-1.51.29-.28.06-.58.12-.91.19-.08.02-.17.04-.25.05h-.06s-.04.02-.04.02c-.03,0-.05,0-.08.01-.1.02-.21.04-.32.06-6.13,1.52-12.63,3.48-18.37,4.75h-.27c-.14-.1-1.52.56-1.77.51l-.65.22c-.19.03-.59.11-.27,0-.61.15-.62.18-1.05.32l-.68.1c-2.43.56-4.45,1.23-6.99,1.85-3.09.64-8.8,2.25-12.09,3.17-2.3.68-4.84,1.26-7.39,1.84-1.27.29-2.55.58-3.81.89-.63.15-1.25.31-1.86.48-.31.08-.61.17-.91.25-.33.09-.65.19-.98.28-.14.03-.37.09-.57.15-.2.06-.35.11-.34.12l-1.18.3,3.53,3.1s5.81,5.1,8,6.75l.39.68c.01.1.02.2.03.3,0,.06.01.13.02.19.03.25.05.51.09.78.07.53.16,1.1.3,1.74-.07-.3-.02.13-.05.11.17,1.11.35,2.29.51,2.29.11.81.04.67,0,.78.07-.01.19.69.28,1.32l-.07-.29.27,1.81.08-.37c.09.96-.13.26.03,1.18l.11-.02c.16,1.33.1,2.13.19,3.43.11.86.23,1.73.35,2.61.17,1.19.52,1.96.74,3.03.05.22.32.32.5.18.31-.23.66-.4.66-.4.97-.4,1.29-.86,2.3-1.56.94-.53,1.26-.56,2.17-1.19.46-.27.92-.6,1.35-.88.14-.23.58-.36.77-.6h.13c.07-.08.15-.17.26-.19v.02c.11-.12.27-.19.32-.25v.02s.16-.1.16-.1v.04c.18-.18.41-.33.62-.43l-.06-.06c.48-.19.55-.43,1-.58v.02c.26-.32.55-.38.84-.52,2.29,2.01,4.27,3.55,7.58,6.39.58.51,1.11.98,1.58,1.4.23-.38.45-.75.67-1.11.09-.15.18-.29.27-.44.06-.09.12-.19.17-.28.23-.37.44-.71.65-1.04.41-.66.79-1.27,1.18-1.89.78-1.25,1.58-2.58,2.76-4.62,1.28-2.13,2.6-4.42,3.82-6.52.48-1.05,1.62-2.74,2.23-3.96l.33-.42c.21-.42.47-.91.74-1.29v.04c.32-.63.74-1.29.9-1.61v.03s.43-.74.43-.74l-.05.14c.58-1.08,1.22-2.16,1.8-3.11l-.12.04c1.29-2,1.59-2.83,2.77-4.62v.03c1.2-2.44,2.31-3.61,3.56-6.12-.16.31.11-.11.12-.07.64-1.12,1.33-2.31,1.2-2.4.48-.81.43-.63.55-.71-.06-.03.33-.74.69-1.38l-.15.3,1.05-1.82-.33.29c.3-.47.37-.51.43-.55.03-.02.06-.04.11-.11.03-.04.06-.09.1-.16.02-.04.04-.08.07-.12.04-.07.08-.14.13-.22-.04,0-.08-.01-.12-.02.46-.76.89-1.41,1.36-2.13ZM1481.22,104.8s-.01-.05-.02-.07c0-.02,0-.01,0-.02h0s-.03-.05-.04-.07c.03.04.04.03.05.02.01-.01.03-.03.04-.04.04,0,.06.01.08.04,0,0,0-.02,0-.03,0,0,0-.01,0-.02h0s0-.01,0-.01c0,0,0,0,.01,0h.02c.18-.11.38-.22.59-.33.33-.17.66-.34.92-.44.09.07.16.12.26.15-.02.05.12.1.15.14h0c.12.04.18.17.29.21,0,0-.02.01-.04,0,.07.04.17.1.16.13.16.11.38.28.51.31h-.01c.08.02.08.05.15.09,0,0,0,.01,0,.01.08.02.19.13.25.15v.02s.12.09.12.09l-.04-.04c.05-.03.07.1.19.13.08.07.24.03.32.12.06,0-.06,0,.01.04-.02.02-.04,0-.04.02.07.03.08.1.17.14v.02c.11.04.16.16.25.18.11.06.03.1.16.15l.02.05s.06,0,.1.04c-.01.01.06.06.01.05.1.11.26.13.38.28.06,0,.12.07.16.06,0,.02.15.11.04.08,0,0-.02-.01-.02-.02h-.02c.06.11.17.11.25.17-.02-.02-.06-.05-.02-.04l.08.06h-.03s.11.1.11.1v-.03c.05.05.05.1.13.12.04,0-.04-.06.03-.03.07.07.17.17.27.25,0-.03.03,0,.06,0v.02c.11.05,0,.07.12.12h.04c.12.02.02.06.16.09-.04-.03.01-.05.06,0h-.03s.05.02.06.04c-.02,0-.03.02.02.05h-.04s.1.03.1.03c.05.06.16.11.17.15,0,0,.12.11.17.1-.04,0,.03.06,0,.06.05,0,.16.06.18.11h0c.13.12.27.15.39.27.01-.03.07.04.07,0,.16.07.21.23.32.19.07.04.06.07.09.1h-.02c.12.07.16.09.24.16.05.02.09-.01.16.05-.04,0,0,.02.03.04-.02-.01-.03,0,0,.03,0,0,.02,0,.03,0,0,0,0,0,0,0,.05.03.05.02.03,0,0,0,0,0,0-.02.04.06.14.1.13.13.15.1.28.15.4.22,0,.02-.03.02-.07,0l.09.06s-.06-.02-.09-.04c.08.11.24.12.33.24h.04s0,.01,0,.01c0,0,.04,0,.06,0,0,.03-.03.04.03.08.03.05.14.09.21.12-.03-.03-.01-.03,0-.02.03.02.03.05.06.06v.03s.08.03.1.03c0,.03-.06-.02-.07-.01.12.08.06.04.18.13.08.03,0-.03.05-.03.06.04.13.06.18.12v-.04c.11.06.17.11.23.18.02,0,.04.02.06.03-.58.45-.6.25-1.47,1.12l-.07.04c-.23-.19-.43-.26-.76-.48-.32-.25-.38-.35-.73-.58-.16-.12-.34-.24-.5-.35-.1-.02-.21-.15-.32-.19l-.02-.04s-.08-.03-.1-.06h0c-.06-.02-.1-.07-.13-.08h0s-.06-.04-.06-.04h.02c-.09-.04-.17-.1-.24-.16v.03c-.15-.14-.24-.13-.36-.26h0c-.22-.08-.25-.24-.48-.32.03,0,0-.02,0-.02-.09-.05-.18-.12-.21-.08-.06-.04-.04-.05-.04-.07-.01.02-.07-.01-.12-.05h.03s-.14-.08-.14-.08v.05c-.06-.06.01-.06-.06-.1l-.02.03c-.1-.08-.12-.16-.2-.26-.4-.3-.89-.54-1.23-.87v-.03s-.14-.03-.13-.07l-.05-.02s-.03-.04,0-.03c-.04-.03-.04-.03-.08-.04l-.03-.05c-.15-.13-.31-.19-.48-.32-.17-.19-.58-.42-.82-.56-.34-.17-.61-.56-.97-.73,0-.01-.04-.02-.04-.02l-.29-.21s-.09-.07-.21-.15c0-.02,0-.03,0-.05ZM1488.24,101.05c.26-.14.51-.28.76-.4.1.09.17.14.28.17-.02.05.11.08.13.12h0c.11.03.15.15.25.18,0,0-.02.01-.03,0,.06.04.15.08.13.11.14.09.32.24.44.26h-.01c.07.01.07.04.13.07,0,0,0,0,0,.01.07.01.16.11.21.13v.02s.1.07.1.07l-.04-.03s.06.09.16.11c.07.06.22.01.28.09.05,0-.06.01,0,.03-.02.02-.04,0-.04.03.06.03.07.09.15.12v.02c.1.03.13.14.21.15.1.05.02.1.14.13l.02.05s.05-.01.09.03c-.01.01.05.05,0,.05.08.1.23.11.33.24.05-.01.1.06.14.05,0,.02.13.1.03.07,0,0-.02-.01-.01-.02h-.02c.05.1.15.09.22.15-.02-.02-.05-.04-.02-.04l.07.05h-.03s.09.09.09.09v-.03s.04.09.11.1c.04,0-.03-.06.03-.03.06.06.14.15.22.22,0-.03.03,0,.06,0v.02c.1.04,0,.06.1.11h.03c.11,0,.01.06.14.07-.04-.02.01-.05.05-.01h-.02s.04.02.05.04c-.02,0-.03.02.01.04h-.04s.09.02.09.02c.04.06.14.09.14.13,0,0,.1.09.15.08-.04,0,.02.05-.01.06.04,0,.14.05.16.09h0c.11.11.24.12.33.23.01-.02.06.03.07,0,.14.06.17.21.28.16.06.03.05.07.07.09h-.02c.11.06.13.08.21.14.04.02.08-.02.14.04-.03,0,0,.02.02.03-.02,0-.03,0,0,.03,0,0,.02,0,.03,0,0,0,0,0,0,0,.05.02.04.01.02,0,0,0,0,0,0-.01.03.05.12.08.11.12.13.08.24.12.35.18,0,.02-.03.02-.07,0l.08.05s-.05-.02-.08-.03c.06.09.2.1.29.2h.03s0,0,0,0c0,0,.04,0,.05,0,0,.03-.03.04.02.07.03.05.12.07.18.1-.03-.02,0-.03,0-.02.03.02.03.05.05.05l-.02.02s.08.02.1.02c0,.03-.05-.01-.07,0,.1.07.05.04.16.11.07.02,0-.03.05-.03.05.03.11.05.16.1v-.03c.1.05.15.09.2.15.02,0,.05.02.07.03-.48.41-.9.66-1.45,1.13-.22-.2-.41-.25-.72-.46-.28-.22-.33-.32-.65-.52-.14-.11-.3-.21-.45-.31-.09-.02-.19-.13-.28-.16l-.02-.04s-.07-.03-.09-.06h0c-.05-.02-.09-.06-.12-.07h0s-.05-.04-.05-.04h.01c-.08-.04-.16-.09-.22-.14v.03c-.13-.12-.22-.12-.32-.23h0c-.2-.06-.22-.22-.42-.28.03,0,0-.02,0-.02-.08-.05-.16-.1-.19-.06-.05-.04-.03-.05-.03-.07-.01.02-.07,0-.11-.04h.02s-.13-.07-.13-.07v.05c-.06-.06.01-.05-.06-.09l-.02.03c-.09-.07-.1-.15-.18-.23-.35-.27-.79-.48-1.09-.77v-.03s-.13-.02-.12-.06h-.05s-.03-.05,0-.04c-.04-.03-.04-.02-.07-.03l-.02-.05c-.13-.12-.28-.17-.42-.28-.15-.17-.52-.38-.73-.49-.31-.15-.53-.5-.86-.65,0-.01-.04-.02-.04-.01l-.25-.19s0,0,0,0c.11-.05.23-.1.34-.15-.11-.03.77-.42.51-.41ZM1498.16,96.12c.06-.05.16-.11.25-.16,0,0,.03,0,.02,0,.59-.31.48-.28.19-.15,0-.01-.02-.01-.11.01.27-.1.61-.26.93-.41.06.06.11.09.19.1-.02.05.07.06.09.09h0c.08.01.1.11.18.13,0,0-.01.01-.03,0,.04.02.11.05.09.08.1.06.23.17.32.18h0c.06,0,.05.03.1.05,0,0,0,0,0,0,.06,0,.12.08.16.09v.02s.07.05.07.05l-.03-.02s.04.07.11.08c.05.04.18-.02.21.04.04,0-.05.02,0,.03-.02.02-.03,0-.03.03.05.02.04.07.1.09v.02c.07.01.09.11.15.1.07.03,0,.08.09.1v.04s.05-.02.07.02c-.01.01.03.04,0,.04.05.08.17.07.23.18.04-.02.08.04.11.02,0,.01.09.07.02.06,0,0-.01,0,0-.01h-.02c.03.09.11.06.16.11-.01-.02-.03-.03,0-.03l.05.04h-.02s.07.07.07.07v-.03s.02.08.08.08c.03,0-.01-.05.03-.03.04.05.09.12.15.17.01-.03.03-.01.05,0v.02c.07.02-.02.06.06.08l.03-.02c.09,0,0,.06.1.06-.03-.02.02-.05.04-.02h-.02s.03.02.04.03c-.02,0-.02.02,0,.04h-.03s.07.01.07.01c.02.05.1.06.1.1,0,0,.07.07.11.06-.03,0,.01.04-.02.05.04,0,.11.02.12.06h0c.07.08.18.08.24.16.01-.02.05.02.06-.02.1.03.11.16.2.1.04.02.03.05.05.07h-.01c.08.04.1.06.15.1.03.01.07-.03.11.02-.03,0,0,.02.01.03-.01,0-.02,0,0,.02,0,0,.01,0,.02,0,0,0,0,0,0,0,.03.02.03,0,.02,0,0,0,0,0,0-.01.02.04.09.06.07.09.09.06.18.08.26.12,0,.02-.03.02-.05,0l.06.03s-.04-.01-.06-.02c.04.08.15.06.2.14h.03s0,0,0,0c0,0,.03,0,.04,0,0,.02-.03.04,0,.06.02.04.09.05.13.07-.02-.02,0-.02,0-.02.02.01.02.04.04.04l-.02.02s.07.01.08,0c0,.02-.04,0-.05,0,.07.05.04.03.11.08.05.01,0-.03.04-.03.04.02.08.03.11.07v-.03s.03.01.04.02c-.38.37-.94.82-1.44,1.23-.13-.1-.27-.14-.47-.26-.21-.16-.23-.24-.47-.39-.1-.08-.22-.15-.33-.22-.07,0-.14-.1-.21-.11v-.03s-.06-.02-.08-.04h0s-.07-.04-.09-.05h0s-.04-.03-.04-.03h.01c-.06-.03-.12-.06-.16-.1v.02c-.1-.1-.17-.08-.24-.17h0c-.16-.03-.15-.17-.31-.21.02,0,0-.02,0-.02-.06-.03-.12-.07-.15-.03-.04-.03-.02-.04-.02-.06-.01.02-.05,0-.09-.02h.02s-.09-.05-.09-.05v.05s.01-.05-.04-.08l-.02.03c-.06-.05-.07-.12-.11-.19-.25-.2-.59-.33-.8-.56v-.03s-.1,0-.08-.04h-.04s-.02-.04,0-.03c-.03-.02-.03-.02-.06-.02v-.04c-.11-.09-.22-.12-.33-.2-.1-.13-.38-.28-.54-.36-.24-.1-.38-.39-.62-.48,0,0-.03-.01-.03,0l-.18-.14s-.02-.02-.05-.04c.1-.05.23-.11.35-.17-.22.12-.29.17.2-.02ZM1505.36,92.5c.03.07-.59.34-.91.51.43-.17.84-.37,1.27-.59,0,.02.06.03.07.05h0c.07,0,.07.1.14.1,0,0-.01.01-.02,0,.04.02.08.04.07.06.08.05.17.13.25.13h0s.04.03.08.03c0,0,0,0,0,0,.05,0,.09.06.12.06v.02s.05.04.05.04l-.02-.02s.02.06.09.06c.04.03.15-.04.18.02.04,0-.04.02,0,.03-.02.02-.02,0-.03.03.04,0,.03.06.08.07v.02c.06,0,.06.09.11.08.06.02,0,.08.07.08v.04s.04-.02.05,0c-.01.01.02.03,0,.04.04.06.14.04.18.14.04-.02.06.02.09.01,0,.01.07.05,0,.05,0,0-.01,0,0,0h-.02c.01.08.09.05.12.08,0-.01-.02-.02,0-.03l.04.03h-.02s.05.06.05.06v-.02s.01.07.06.06c.03,0,0-.04.03-.03.03.04.07.1.11.14.01-.02.02-.01.04,0v.02c.06,0-.02.05.04.07l.03-.02c.07,0,0,.06.08.04-.02-.01.02-.05.04-.02h-.02s.03.01.03.02c-.02,0-.02.02,0,.03h-.03s.06,0,.06,0c.01.04.08.05.07.08,0,0,.05.06.09.04-.03,0,0,.04-.02.05.03,0,.09,0,.09.04h0c.05.07.14.06.18.13.01-.02.04.01.05-.02.08.02.08.14.16.07.03.02.02.04.03.06h-.01c.06.03.08.04.12.07.03,0,.06-.03.09,0-.02,0,0,.01,0,.02-.01,0-.02,0,0,.02,0,0,.01,0,.02,0,0,0,0,0,0,0,.03.01.03,0,.02,0,0,0,0,0,0-.01,0,.04.07.05.05.07.07.04.14.05.21.08,0,.02-.03.02-.05.01l.04.02s-.03,0-.05-.01c.02.07.12.04.16.11h.02s0,0,0,0c0,0,.03-.01.04,0,0,.02-.03.04,0,.06,0,.03.07.04.1.05-.01-.01,0-.02.01-.02,0,0,.01.01.01.02-.47.4-.94.79-1.38,1.16-.05-.02-.09-.04-.15-.08-.16-.13-.17-.2-.36-.31-.08-.06-.18-.12-.26-.17-.06,0-.11-.08-.17-.08v-.03s-.05,0-.06-.03h0s-.05-.03-.07-.04h0s-.03-.02-.03-.02h.01c-.05-.02-.09-.05-.13-.08v.02c-.07-.08-.14-.06-.19-.14h0c-.13-.01-.11-.15-.25-.16.02,0,0-.01,0-.02-.05-.02-.1-.05-.13-.01-.03-.02-.02-.03,0-.05-.01.02-.05,0-.07,0h.02s-.07-.04-.07-.04v.04s.01-.05-.03-.07l-.02.03s-.04-.11-.08-.16c-.2-.16-.47-.25-.63-.43v-.03s-.08,0-.07-.03h-.03s-.01-.03,0-.03c-.02-.02-.02-.01-.05-.01v-.04c-.08-.07-.18-.09-.25-.15-.07-.11-.29-.22-.42-.27-.19-.07-.28-.32-.48-.38,0,0-.02,0-.03,0l-.14-.11s0,0-.01,0c.35-.19.71-.38,1.07-.57.19-.04-.14.18-.56.41l1.05-.54ZM1509.42,90.41c.19-.04.11.08.45-.07,0,0,0,0,0,0h0c.06,0,.05.08.11.08,0,0-.01.01-.02,0,.03.01.07.03.05.05.06.04.14.11.21.09h0s.03.02.07.02c0,0,0,0,0,0,.04,0,.07.05.1.05v.02s.04.03.04.03v-.02s0,.05.06.05c.03.03.14-.05.15,0,.03,0-.04.02,0,.02-.02.02-.02,0-.03.03.03,0,.02.05.06.06v.02s.04.07.09.06c.05.01-.02.07.05.07v.04s.03-.02.04,0c-.01.01.01.03,0,.04.02.06.11.03.14.11.04-.02.05.02.08,0,0,.01.06.04,0,.05,0,0,0,0,0,0l-.02.02c0,.06.07.02.1.05,0-.01-.02-.02,0-.03l.03.02h-.02s.04.05.04.05v-.02s0,.06.05.05c.02,0,0-.04.03-.03.02.03.05.08.08.12.01-.02.02-.02.04-.01v.02s-.03.05.03.06l.03-.02c.06-.01,0,.05.07.03-.02,0,.02-.05.04-.02h-.02s.02.01.03.02c-.01,0-.02.02,0,.03h-.03s.05,0,.05,0c0,.04.06.04.05.07,0,0,.04.05.07.03-.02,0,0,.04-.02.05.03-.01.08,0,.08.03h0c.04.06.12.04.15.1.01-.02.03,0,.05-.02.07,0,.05.12.13.05.03.01.01.04.02.05h0s.06.03.09.06c.02,0,.05-.03.08,0-.02,0,0,.01,0,.02,0,0-.02,0,0,.02,0,0,.01,0,.02,0,0,0,0,0,0,0,.02,0,.02,0,.02,0,0,0,0,0,0-.01,0,.03.05.04.04.06.06.03.12.03.17.05,0,.02-.02.02-.04.02l.04.02s-.03,0-.04,0c.01.06.1.02.12.09h.02s0,0,0,0c0,0,.02-.01.03-.01,0,.02-.03.04,0,.05,0,0,0,0,0,.01-.6.52-1.22,1.04-1.31,1.02,0,0-.02.01-.02.02,0,0,0,0,0,0-.13-.11-.13-.17-.28-.26-.06-.05-.14-.09-.21-.14-.05,0-.09-.06-.14-.06v-.03s-.04,0-.05-.02h0s-.04-.03-.06-.03h0s-.02-.02-.02-.02h0s-.08-.04-.1-.07v.02c-.06-.07-.12-.04-.15-.11h0c-.12,0-.09-.13-.2-.13.01,0,0-.01,0-.02-.04-.02-.08-.04-.11,0-.02-.02-.01-.03,0-.05-.01.02-.04.01-.06,0h.01s-.06-.03-.06-.03l-.02.04s.02-.05-.01-.06l-.02.03s-.03-.1-.05-.15c-.16-.13-.39-.19-.51-.35v-.03s-.07.02-.05-.02h-.03s0-.02,0-.02c-.02-.01-.02,0-.04,0v-.03c-.06-.06-.14-.06-.21-.12-.05-.1-.24-.18-.34-.22-.16-.04-.21-.26-.37-.31.12-.05.23-.1.35-.15l.28-.2.09-.03s.29-.23.51-.34ZM1512.45,88.93c.37-.18.61-.23.88-.39l.06.05s.31-.21.58-.36c0,0,0,0,0,0h0s.03,0,.04.02c-.09.05-.16.09-.17.12.07-.03.13-.06.19-.09,0,.01.01.02.03.01,0,0-.01.01-.02.01.02,0,.05.02.04.04.05.02.1.08.16.06h0s.02.02.05.02c0,0,0,0,0,0,.04-.01.05.03.08.03v.02s.03.02.03.02h-.01c.04-.05,0,.03.05.02.02.02.12-.06.13-.02.03-.01-.04.03,0,.02-.02.02-.02,0-.03.03.03,0,0,.04.04.04v.02s.02.06.06.04c.04,0-.02.07.03.05v.03s.02-.02.03,0c-.01.01,0,.03-.01.03.01.05.09.01.1.08.03-.02.04,0,.06,0,0,.01.04.03,0,.04,0,0,0,0,0,0l-.02.02c0,.05.06.01.08.03,0-.01-.01-.02,0-.02l.02.02h-.02s.03.04.03.04v-.02s0,.06.04.04c.02,0,0-.04.03-.03.01.03.03.07.05.1.01-.02.02-.02.03-.02v.02s-.03.05.01.05l.02-.02c.05-.02-.01.05.05.02-.01,0,.03-.04.03-.03l-.02.02s.02,0,.02,0c-.01,0-.02.02,0,.03l-.02.02.05-.02s.05.03.03.06c0,0,.03.04.06.02-.02.01,0,.03-.03.05.02-.01.06,0,.06.02h0c.02.05.09.02.11.07.01-.02.02,0,.04-.03.06,0,.03.1.1.03.02,0,0,.03.01.04h0s.05.02.07.04c.02,0,.05-.04.06-.01-.02.01,0,.01,0,.02,0,0-.01,0-.01.02,0,0,0,0,.01,0,0,0,0,0,0,0,.02,0,.02,0,.01,0,0,0,0,0,0-.01,0,.03.04.03.02.05.04.02.09.02.13.03,0,.02-.02.02-.04.02h.03s-.02.01-.03.01c0,.04.05.02.08.04-.06.05-.11.09-.16.12l.03-.04c-.37.37-.79.71-1.22,1.04-.09-.08-.09-.14-.21-.2-.05-.04-.11-.07-.16-.1-.05.01-.07-.05-.11-.04v-.03s-.03,0-.03-.02h0s-.03-.02-.05-.02h0s-.02-.02-.02-.02h0s-.06-.03-.08-.05v.02c-.05-.06-.1-.03-.12-.09h0c-.1.01-.06-.11-.16-.09.01,0,0-.01,0-.02-.03-.01-.06-.03-.09.01-.02-.01,0-.02,0-.04-.01.02-.04.01-.05,0h.01s-.05-.03-.05-.03l-.02.04s.03-.05,0-.05l-.02.03s-.01-.09-.03-.13c-.12-.1-.31-.13-.39-.27v-.03s-.06.02-.04,0h-.02s0-.02,0-.02c-.01-.01-.02,0-.03,0v-.03c-.04-.05-.11-.04-.16-.09-.03-.09-.18-.14-.27-.16-.09-.02-.13-.12-.19-.19.1-.05.2-.11.29-.16-.41.19-.3.09-.13-.01ZM1516.19,87.02s.06-.03.1-.05c0,0,.02,0,.03,0-.03.04.02.02.02.04h0s.02.06.06.05c0,0-.01.01-.02.01.02,0,.05,0,.03.04.04.02.08.06.13.04h0s.02.01.04.01c0,0,0,0,0,0,.03-.02.04.02.06.02v.02s.02.02.02.02h0c.04-.05,0,.03.04.02.01.02.11-.07.11-.03.03-.01-.03.03,0,.02-.02.02-.02.01-.03.03.02,0,0,.04.03.04v.02s0,.05.05.03c.03,0-.03.07.02.05v.03s.02-.03.02,0c-.01.02,0,.02-.01.03,0,.04.08,0,.08.07.03-.03.03,0,.06-.01,0,.01.03.03,0,.04,0,0,0,0,0,0l-.02.02s.05,0,.06.02c0,0,0-.01,0-.02h.02s-.02.03-.02.03l.02.03v-.02s0,.05.03.04c.02-.01,0-.03.02-.03,0,.02.02.06.04.08.01-.02.02-.02.03-.02v.02s-.04.05,0,.04l.02-.02s-.02.05.04.01c-.01,0,.03-.04.03-.03l-.02.02s.02,0,.02,0c-.01,0-.02.02-.01.03l-.02.02.04-.02s.04.02.02.05c0,0,.02.03.05,0-.02.01,0,.03-.03.05.02-.01.06-.01.05.01h0s.08.01.09.06c.01-.02.02,0,.04-.03.05,0,.01.09.09.02.02,0,0,.03,0,.04h0s.04.02.06.03c.02,0,.05-.04.06-.02-.02.01,0,.01,0,.02,0,0-.01,0-.01.02,0,0,0,0,.01,0,0,0,0,0,0,0,.01,0,.02,0,.01,0,0,0,0,0,0-.01,0,.03.03.02.01.05.03.01.07,0,.1.01-.11.1-.21.2-.32.31-.21.02-.86.62-1.35,1.04-.04-.05-.05-.09-.13-.13-.04-.03-.1-.06-.14-.08-.04.02-.06-.04-.1-.03v-.02s-.03,0-.03-.01h0s-.03-.02-.04-.02h0s-.02-.01-.02-.01h0s-.06-.02-.07-.04v.02c-.04-.05-.09-.02-.1-.08h0c-.09.02-.05-.1-.14-.08.01,0,0-.01.01-.02-.03-.01-.05-.02-.09.02-.02-.01,0-.02,0-.04-.01.02-.03.02-.05,0h.01s-.04-.02-.04-.02l-.02.04s.03-.05,0-.05l-.02.03s0-.08-.02-.12c-.1-.09-.27-.1-.34-.23v-.02s-.05.03-.03,0h-.02s0-.01,0-.02c0,0-.01,0-.03,0v-.03s-.09-.03-.13-.07c-.02-.08-.15-.12-.23-.14-.05,0-.08-.05-.11-.09.79-.39.43-.22,1.69-.84.76-.44-.18,0,.16-.26ZM1518,86.08s.03,0,.05,0c-.03.04.02.02.02.04h0s.01.05.05.04c0,0-.01.01-.02.01.02,0,.04,0,.02.03.03.01.06.05.11.03h0s.02.01.04,0c0,0,0,0,0,0,.03-.02.04.02.05.01v.02s.01.01.01.01h0c.04-.05,0,.03.03.01.01.02.1-.07.1-.04.02-.02-.03.03,0,.02-.02.02-.02.01-.03.03.02,0,0,.04.03.03v.02s0,.05.04.02c.03,0-.03.06.02.04v.03s.02-.03.02,0c-.01.02,0,.02-.01.03,0,.04.07,0,.06.06.03-.03.03,0,.05-.02,0,.01.03.02-.01.04,0,0,0,0,0,0l-.02.02s.04,0,.05.02c0,0,0-.01,0-.02h.01s-.01.03-.01.03v.02s.03-.02.03-.02c0,.02-.02.05.01.03.02-.01,0-.03.02-.03,0,.02.01.06.02.07.01-.02.02-.02.03-.02v.02s-.04.05,0,.04l.02-.02s-.02.04.04,0c0,0,.03-.04.03-.03l-.02.02s.02,0,.02,0c-.01,0-.02.02-.01.03l-.02.02.04-.02s.03.02.02.04c0,0,.01.03.04,0-.02.01,0,.03-.03.05.02-.01.05-.02.04,0h0s.07,0,.07.05c.01-.02.02,0,.04-.03.04,0,0,.09.07,0,.01,0,0,.03,0,.04h0s.02,0,.03.01c-.36.31-.7.6-1.02.9-.01-.02-.03-.03-.06-.04-.03-.03-.08-.05-.11-.07-.04.02-.05-.03-.08-.02v-.02s-.02,0-.02,0h0s-.03-.01-.03-.01h0s-.01-.01-.01-.01h0s-.05-.02-.06-.03v.02s-.08-.01-.08-.06h0c-.08.02-.03-.09-.11-.06,0,0,0-.01.01-.02-.02,0-.04-.02-.08.02-.01-.01,0-.02,0-.04-.01.02-.03.02-.04.01h.01s-.03-.02-.03-.02l-.02.04s.03-.05,0-.05l-.02.03s0-.07,0-.11c-.08-.07-.23-.07-.27-.18v-.02s-.04.03-.03,0h-.02s0,0,.01-.01c0,0-.01,0-.03,0v-.03s-.07-.02-.11-.06c-.01-.07-.12-.09-.19-.11-.08,0-.09-.1-.13-.15.44-.23.88-.48,1.37-.7ZM1514.32,88.07s-.01-.02-.02-.03c.07-.04.13-.07.15-.09.1-.02.01.04-.13.12ZM1511.97,89.28s.03.07.07.06c0,0-.01.01-.02,0,.03.01.06.02.04.05.06.03.12.09.18.08h0s.03.02.06.02c0,0,0,0,0,0,.04-.01.06.04.09.04v.02s.03.03.03.03h-.01c.04-.06,0,.04.06.03.02.03.13-.05.14-.01.03-.01-.04.03,0,.02-.02.02-.02,0-.03.03.03,0,.01.05.05.05v.02s.03.07.08.05c.04,0-.02.07.04.06v.03s.03-.02.04,0c-.01.01.01.03,0,.04.02.05.1.02.12.1.03-.02.04.01.07,0,0,.01.05.04,0,.05,0,0,0,0,0,0l-.02.02c0,.05.06.02.09.04,0-.01-.02-.02,0-.03l.02.02h-.02s.03.05.03.05v-.02s0,.06.04.05c.02,0,0-.04.03-.03.02.03.04.08.07.11.01-.02.02-.02.03-.01v.02s-.03.05.02.05l.03-.02c.06-.01-.01.05.06.02-.02,0,.02-.04.03-.03h-.02s.02.01.02.02c-.01,0-.02.02,0,.03l-.03.02h.05s.05.02.04.05c0,0,.03.04.06.02-.02.01,0,.03-.02.05.03-.01.07,0,.07.03h0c.03.06.1.03.13.09.01-.02.03,0,.04-.03.06,0,.04.11.12.04.02,0,0,.04.02.05h0s.05.03.08.05c.02,0,.05-.04.07,0-.02,0,0,.01,0,.02,0,0-.01,0,0,.02,0,0,.01,0,.01,0,0,0,0,0,0,0,.02,0,.02,0,.02,0,0,0,0,0,0-.01,0,.03.05.03.03.06.05.03.11.02.15.04,0,.02-.02.02-.04.02h.03s-.02.01-.04.01c0,.06.09.02.11.07h.02s0,0,0,0c0,0,.02-.01.03-.01,0,.01-.02.03-.02.04-.49.37-.97.74-1.4,1.14,0,0-.02,0-.03-.01,0,0,0,0,0,0,.03-.03.06-.06.11-.11-.04.03-.08.07-.12.1-.1-.09-.11-.15-.24-.22-.06-.05-.13-.08-.19-.12-.05.01-.08-.05-.13-.05v-.03s-.03,0-.04-.02h0s-.04-.02-.05-.02h0s-.02-.02-.02-.02h0s-.07-.03-.09-.06v.02c-.05-.06-.11-.04-.14-.1h0c-.11,0-.07-.12-.18-.11.01,0,0-.01,0-.02-.04-.02-.07-.04-.1,0-.02-.02,0-.03,0-.04-.01.02-.04.01-.06,0h.01s-.05-.03-.05-.03l-.02.04s.03-.05,0-.06l-.02.03s-.02-.09-.04-.14c-.14-.12-.35-.16-.45-.31v-.03s-.06.02-.05-.01h-.03s0-.02,0-.02c-.01-.01-.02,0-.04,0v-.03c-.05-.06-.13-.05-.18-.11-.04-.09-.21-.16-.31-.19-.11-.02-.16-.15-.24-.23.45-.18,1.13-.55,1.75-.89ZM1507.85,91.29s0,0,0,0c-.02.05.05.04.05.07h0c.06,0,.06.09.12.09,0,0-.01.01-.02,0,.03.01.08.03.06.06.07.04.16.12.23.11h0s.03.02.07.03c0,0,0,0,0,0,.05,0,.08.05.11.06v.02s.04.03.04.03l-.02-.02s.02.06.08.06c.03.03.14-.04.16,0,.03,0-.04.02,0,.03-.02.02-.02,0-.03.03.03,0,.02.05.07.06v.02c.05,0,.05.08.1.07.05.02-.01.08.06.07v.04s.04-.02.05,0c-.01.01.02.03,0,.04.03.06.12.04.16.12.04-.02.05.02.08,0,0,.01.06.05,0,.05,0,0,0,0,0,0h-.02c.01.07.08.04.11.07,0-.01-.02-.02,0-.03l.03.03h-.02s.04.05.04.05v-.02s0,.07.06.06c.02,0,0-.04.03-.03.02.04.06.09.09.13.01-.02.02-.02.04-.01v.02c.05,0-.03.05.03.06l.03-.02c.07,0,0,.05.07.04-.02,0,.02-.05.04-.02h-.02s.02.01.03.02c-.01,0-.02.02,0,.03h-.03s.06,0,.06,0c.01.04.07.04.06.07,0,0,.05.05.08.03-.02,0,0,.04-.02.05.03,0,.08,0,.08.04h0c.05.07.13.05.16.11.01-.02.03,0,.05-.02.08.01.06.13.15.06.03.01.02.04.03.06h0c.05.03.07.04.1.07.02,0,.06-.03.08,0-.02,0,0,.01,0,.02,0,0-.02,0,0,.02,0,0,.01,0,.02,0,0,0,0,0,0,0,.02,0,.02,0,.02,0,0,0,0,0,0-.01,0,.04.06.04.04.07.07.04.13.04.19.07,0,.02-.03.02-.04.02l.04.02s-.03,0-.04,0c.02.06.11.03.14.1h.02s0,0,0,0c0,0,.03-.01.04,0,0,.02-.03.04,0,.06,0,.01.01.02.02.02-.44.37-.93.78-1.41,1.18-.02-.01-.05-.02-.07-.04-.14-.12-.15-.19-.32-.28-.07-.06-.16-.11-.24-.15-.06,0-.1-.07-.16-.07v-.03s-.04,0-.05-.03h0s-.05-.03-.06-.03h0s-.03-.02-.03-.02h0s-.09-.04-.11-.07v.02c-.07-.08-.13-.05-.17-.12h0c-.12,0-.1-.14-.22-.14.02,0,0-.01,0-.02-.04-.02-.09-.05-.12,0-.03-.02-.01-.03,0-.05-.01.02-.04,0-.07,0h.02s-.07-.04-.07-.04v.04s0-.05-.03-.06l-.02.03s-.04-.1-.07-.16c-.18-.15-.43-.22-.57-.39v-.03s-.07.01-.06-.02h-.03s0-.02,0-.02c-.02-.01-.02,0-.04,0v-.03c-.07-.07-.16-.08-.23-.14-.06-.11-.27-.2-.38-.25-.18-.05-.25-.3-.43-.35,0,0,0,0,0,0,.58-.31,1.17-.64,1.81-.95ZM1503.47,93.37c.05.05.1.08.16.08-.02.05.06.05.07.08h0c.07,0,.08.1.15.11,0,0-.01.01-.03,0,.04.02.09.04.08.07.09.05.19.15.28.15h0c.05,0,.04.03.09.04,0,0,0,0,0,0,.05,0,.1.06.13.07v.02s.06.04.06.04l-.02-.02s.03.06.1.07c.04.04.16-.03.19.03.04,0-.05.02,0,.03-.02.02-.03,0-.03.03.04.01.03.06.09.07v.02c.06,0,.07.09.13.09.06.02,0,.08.08.08v.04s.04-.02.06.01c-.01.01.02.04,0,.04.04.07.15.05.19.15.04-.02.07.03.1.01,0,.01.08.06.01.06,0,0-.01,0,0-.01h-.02c.02.08.1.05.14.09,0-.02-.03-.03,0-.03l.04.03h-.02s.05.06.05.06v-.02s.01.07.07.07c.03,0,0-.05.03-.03.03.04.08.1.12.15.01-.02.02-.01.04,0v.02c.06.01-.02.05.05.07l.03-.02c.08,0,0,.06.09.05-.02-.01.02-.05.04-.02h-.02s.03.02.03.03c-.02,0-.02.02,0,.03h-.03s.07,0,.07,0c.02.04.08.05.08.09,0,0,.06.06.09.04-.03,0,0,.04-.02.05.03,0,.1.01.1.05h0c.06.08.15.06.2.14.01-.02.04.01.05-.02.09.02.09.15.18.08.04.02.02.05.04.06h-.01c.07.04.08.05.13.08.03,0,.06-.03.09,0-.02,0,0,.02,0,.03-.01,0-.02,0,0,.02,0,0,.01,0,.02,0,0,0,0,0,0,0,.03.01.03,0,.02,0,0,0,0,0,0-.01.01.04.07.05.06.08.08.05.15.06.22.09,0,.02-.03.02-.05.01l.05.03s-.03,0-.05-.01c.03.07.13.05.17.12h.02s0,0,0,0c0,0,.03,0,.04,0,0,.02-.03.04,0,.06.01.03.08.04.11.05-.01-.02,0-.02,0-.02.02.01.01.03.03.04l-.02.02s.06,0,.07,0c0,.02-.03,0-.05,0,.02.01.02.02.03.02-.49.43-.93.82-1.25,1.13-.08-.04-.17-.08-.29-.15-.17-.14-.19-.22-.39-.34-.09-.07-.19-.13-.28-.19-.07,0-.12-.08-.19-.09v-.03s-.05-.01-.06-.03h0s-.06-.04-.08-.04h0s-.03-.02-.03-.02h.01c-.06-.02-.1-.05-.14-.09v.02c-.08-.09-.15-.06-.2-.15h0c-.14-.02-.13-.15-.27-.17.02,0,0-.01,0-.02-.05-.03-.1-.06-.14-.02-.03-.03-.02-.03-.01-.05-.01.02-.05,0-.08-.01h.02s-.08-.05-.08-.05v.05s.01-.05-.03-.07l-.02.03c-.05-.05-.05-.11-.09-.17-.22-.17-.51-.27-.68-.48v-.03s-.09,0-.07-.03h-.04s-.01-.03,0-.03c-.02-.02-.03-.01-.05-.01v-.04c-.09-.08-.19-.1-.28-.17-.08-.12-.32-.24-.46-.3-.21-.08-.31-.34-.53-.42,0,0-.02,0-.03,0l-.12-.09c.59-.31,1.13-.61,1.66-.9ZM1501.48,94.45s.08.05.13.05c-.02.05.07.06.08.08h0c.08,0,.09.11.16.12,0,0-.01.01-.03,0,.04.02.1.05.08.08.09.06.21.16.3.16h0c.05,0,.05.03.09.04,0,0,0,0,0,0,.06,0,.11.07.14.08v.02s.06.05.06.05l-.02-.02s.03.07.11.07c.04.04.17-.02.2.03.04,0-.05.02,0,.03-.02.02-.03,0-.03.03.04.01.04.07.09.08v.02c.07,0,.08.1.14.1.07.03,0,.08.09.09v.04s.05-.02.07.02c-.01.01.03.04,0,.04.05.07.16.06.21.16.04-.02.07.03.1.02,0,.01.09.06.01.06,0,0-.01,0,0-.01h-.02c.02.08.1.06.15.1,0-.02-.03-.03,0-.03l.04.03h-.02s.06.07.06.07v-.03s.02.07.08.07c.03,0-.01-.05.03-.03.03.04.09.11.14.16.01-.02.03-.01.04,0v.02c.07.02-.02.06.05.08l.03-.02c.08,0,0,.06.1.05-.03-.01.02-.05.04-.02h-.02s.03.02.04.03c-.02,0-.02.02,0,.04h-.03s.07.01.07.01c.02.04.09.06.09.09,0,0,.06.07.1.05-.03,0,0,.04-.02.05.03,0,.1.02.11.06h0c.07.08.16.07.22.15.01-.02.04.02.05-.02.1.03.1.16.19.09.04.02.03.05.04.07h-.01c.07.04.09.05.14.09.03,0,.06-.03.1.01-.03,0,0,.02.01.03-.01,0-.02,0,0,.02,0,0,.01,0,.02,0,0,0,0,0,0,0,.03.01.03,0,.02,0,0,0,0,0,0-.01.01.04.08.06.06.08.09.05.17.07.24.11,0,.02-.03.02-.05.01l.05.03s-.04,0-.05-.02c.03.07.14.05.19.13h.03s0,0,0,0c0,0,.03,0,.04,0,0,.02-.03.04,0,.06.01.04.08.05.12.06-.02-.02,0-.02,0-.02.02.01.01.04.03.04l-.02.02s.06,0,.07,0c0,.02-.04,0-.05,0,.07.05.03.02.1.07.05,0,.01-.03.04-.03.02.01.04.02.07.03-.45.45-.7.57-1.28,1.12,0,0,0,0,0,0-.11-.07-.23-.11-.39-.21-.19-.15-.21-.23-.43-.36-.1-.07-.21-.14-.31-.2-.07,0-.13-.09-.2-.1v-.03s-.06-.01-.07-.04h0s-.06-.04-.08-.04h0s-.04-.03-.04-.03h.01c-.06-.02-.11-.06-.15-.1v.02c-.09-.09-.16-.07-.22-.16h0c-.15-.02-.14-.16-.29-.19.02,0,0-.02,0-.02-.06-.03-.11-.07-.14-.02-.04-.03-.02-.03-.01-.05-.01.02-.05,0-.08-.02h.02s-.09-.05-.09-.05v.05s.01-.05-.04-.07l-.02.03c-.06-.05-.06-.12-.1-.18-.23-.19-.55-.3-.74-.52v-.03s-.09,0-.08-.03h-.04s-.01-.03,0-.03c-.02-.02-.03-.01-.05-.02v-.04c-.1-.08-.21-.11-.3-.19-.09-.13-.35-.26-.5-.33-.22-.09-.34-.37-.57-.45,0,0-.03-.01-.03,0l-.17-.13s0,0-.02-.01c.3-.14.53-.25.58-.22.4-.2.77-.39,1.12-.58ZM1497.25,96.43s0,0,0,.01h0c.09.09.15.14.25.16-.02.05.08.07.1.1h0c.09.01.11.12.19.14,0,0-.01.01-.03,0,.05.03.12.06.1.09.11.07.25.19.35.2h0c.06,0,.05.04.11.05,0,0,0,0,0,0,.06,0,.13.08.17.1v.02s.08.06.08.06l-.03-.03s.04.07.12.09c.05.05.19-.01.23.05.04,0-.05.02,0,.03-.02.02-.03,0-.03.03.05.02.05.07.11.09v.02c.08.01.1.11.16.11.08.03,0,.09.1.1v.04s.05-.01.08.02c-.01.01.03.04,0,.04.06.08.18.08.25.19.04-.01.08.04.12.03,0,.02.1.08.02.06,0,0-.01,0-.01-.01h-.02c.03.09.12.07.17.12-.01-.02-.04-.03-.01-.03l.05.04h-.02s.07.07.07.07v-.03s.02.08.09.08c.03,0-.02-.05.03-.03.04.05.1.12.17.18,0-.03.03-.01.05,0v.02c.08.02-.02.06.07.09l.03-.02c.09,0,0,.06.11.06-.03-.02.02-.05.05-.02h-.02s.03.02.04.03c-.02,0-.03.02,0,.04h-.04s.08.01.08.01c.03.05.11.07.1.11,0,0,.08.07.12.06-.03,0,.01.05-.02.06.04,0,.11.03.13.07h0c.08.09.19.09.26.18.01-.02.05.02.06-.01.11.04.12.17.22.11.04.03.03.05.05.07h-.01c.08.05.11.06.16.1.03.01.07-.02.11.02-.03,0,0,.02.01.03-.01,0-.02,0,0,.03,0,0,.01,0,.02,0,0,0,0,0,0,0,.04.02.03,0,.02,0,0,0,0,0,0-.01.02.04.09.07.08.09.1.06.19.08.28.13,0,.02-.03.02-.06,0l.06.04s-.04-.01-.06-.02c.04.08.16.07.22.15h.03s0,0,0,0c0,0,.03,0,.05,0,0,.03-.03.04,0,.07.02.04.09.06.14.08-.02-.02,0-.02,0-.02.02.01.02.04.04.04l-.02.02s.07.01.08,0c0,.03-.04,0-.06,0,.08.05.04.03.12.08.06.01,0-.03.04-.03.04.02.09.03.12.08v-.03s.08.03.1.05c-.26.21-.48.4-.64.54l-.08-.02-.63.53c-.13-.1-.27-.14-.48-.27-.22-.17-.25-.26-.5-.41-.11-.08-.24-.16-.35-.24-.08,0-.15-.1-.23-.12v-.03s-.07-.02-.08-.04h0s-.07-.05-.09-.05h0s-.04-.03-.04-.03h.01c-.07-.03-.12-.07-.17-.11v.02c-.1-.1-.18-.09-.25-.18h0c-.17-.04-.17-.18-.33-.22.02,0,0-.02,0-.02-.06-.04-.13-.08-.16-.04-.04-.03-.02-.04-.02-.06-.01.02-.06,0-.09-.02h.02s-.1-.06-.1-.06v.05c-.05-.05.01-.05-.04-.08l-.02.03c-.07-.06-.07-.13-.13-.2-.27-.21-.63-.36-.86-.6v-.03s-.1,0-.09-.04h-.04s-.02-.04,0-.03c-.03-.02-.03-.02-.06-.02l-.02-.04c-.1-.1-.22-.13-.33-.22-.11-.14-.4-.29-.57-.38-.25-.11-.4-.41-.67-.52,0,0-.03-.01-.03,0l-.2-.15s0,0,0,0c.08-.04.17-.08.25-.12.47-.26.53-.43,1.26-.78ZM1495.39,97.51c.06.04.11.07.18.09-.02.05.09.07.1.1h0c.09.02.12.13.2.15,0,0-.02.01-.03,0,.05.03.12.07.11.09.12.07.27.2.37.21h-.01c.06,0,.06.04.11.06,0,0,0,0,0,.01.06,0,.13.09.18.1v.02s.08.06.08.06l-.03-.03s.05.08.13.09c.06.05.19,0,.24.06.05,0-.05.02,0,.03-.02.02-.03,0-.03.03.05.02.05.08.12.1v.02c.08.02.1.12.18.12.08.04,0,.09.11.11v.05s.06-.01.08.02c-.01.01.04.05,0,.04.06.08.19.08.27.2.05-.01.09.04.12.03,0,.02.11.08.02.07,0,0-.02,0-.01-.01h-.02c.04.09.13.07.18.12-.01-.02-.04-.03-.01-.04l.05.04h-.02s.08.08.08.08v-.03s.03.08.09.09c.03,0-.02-.05.03-.03.05.05.11.13.18.19,0-.03.03-.01.05,0v.02c.08.03-.01.06.07.09l.03-.02c.09.01,0,.06.12.07-.03-.02.02-.05.05-.02h-.02s.04.02.05.03c-.02,0-.03.02,0,.04h-.04s.08.02.08.02c.03.05.11.07.11.11,0,0,.08.08.12.07-.03,0,.01.05-.01.06.04,0,.12.03.13.07h0c.09.09.2.1.27.19.01-.02.05.02.06-.01.12.04.13.18.23.12.05.03.04.06.06.08h-.01c.09.05.11.07.17.11.04.01.07-.02.12.03-.03,0,0,.02.02.03-.01,0-.02,0,0,.03,0,0,.02,0,.02,0,0,0,0,0,0,0,.04.02.04.01.02,0,0,0,0,0,0-.01.02.05.1.07.08.1.11.07.2.09.3.14,0,.02-.03.02-.06,0l.06.04s-.04-.01-.07-.02c.05.08.17.08.24.17h.03s0,0,0,0c0,0,.03,0,.05,0,0,.03-.03.04.01.07.02.04.1.06.15.08-.02-.02,0-.02,0-.02.02.01.02.04.04.04l-.02.02s.07.02.09.01c0,.03-.04,0-.06,0,.09.06.04.03.13.09.06.01,0-.03.05-.03.04.02.09.04.13.08v-.03s.07.03.09.05l-.46.39.48-.38s.01,0,.02.01c-.11.23-.82.61-1.54,1.22-.15-.12-.3-.16-.53-.31-.24-.19-.27-.27-.54-.44-.12-.09-.26-.17-.38-.25-.08,0-.16-.11-.24-.13v-.04s-.07-.02-.09-.05h0s-.08-.05-.1-.06h0s-.04-.03-.04-.03h.01c-.07-.03-.13-.07-.18-.12v.02c-.11-.11-.19-.09-.27-.2h0c-.18-.04-.18-.19-.36-.24.02,0,0-.02,0-.02-.07-.04-.14-.08-.17-.04-.05-.03-.03-.04-.02-.06-.01.02-.06,0-.1-.03h.02s-.11-.06-.11-.06v.05c-.05-.05.01-.05-.05-.08l-.02.03c-.07-.06-.08-.13-.14-.21-.29-.23-.67-.39-.92-.64v-.03s-.11,0-.1-.05h-.04s-.02-.04,0-.04c-.03-.02-.03-.02-.06-.02l-.02-.04c-.11-.1-.24-.14-.36-.23-.12-.15-.43-.32-.61-.41-.27-.12-.44-.44-.72-.55,0,0-.03-.01-.03-.01l-.21-.16s0,0-.02-.02c.82-.42,1.27-.64,1.86-.93ZM1493.17,98.6s0,0,0,0l-.12.07s.09-.04.13-.07c.06.05.12.08.19.1-.02.05.09.07.11.11h0c.1.02.13.14.22.16,0,0-.02.01-.03,0,.05.03.13.07.12.1.13.08.29.21.39.23h-.01c.06,0,.06.04.12.06,0,0,0,0,0,.01.07,0,.14.1.19.11v.02s.09.06.09.06l-.03-.03s.05.08.14.1c.06.05.2,0,.25.07.05,0-.05.01,0,.03-.02.02-.03,0-.04.03.06.02.06.08.13.11v.02c.09.02.11.13.19.13.09.04.01.09.12.11v.05s.06-.01.09.03c-.01.01.04.05,0,.05.07.09.2.09.29.22.05-.01.09.05.13.04,0,.02.11.09.03.07,0,0-.02,0-.01-.01h-.02c.04.09.13.08.19.13-.01-.02-.04-.04-.02-.04l.06.05h-.02s.08.08.08.08v-.03s.03.08.1.09c.03,0-.02-.06.03-.03.05.06.12.14.19.2,0-.03.03-.01.05,0v.02c.09.03-.01.06.08.1l.03-.02c.1.02,0,.07.13.07-.03-.02.02-.05.05-.02h-.02s.04.02.05.03c-.02,0-.03.02,0,.04h-.04s.08.02.08.02c.03.05.12.08.12.12,0,0,.09.08.13.07-.03,0,.02.05-.01.06.04,0,.13.04.14.08h0c.1.1.21.11.29.2.01-.02.06.03.06-.01.12.05.15.19.25.13.05.03.04.06.06.08h-.01c.09.05.12.07.18.12.04.02.07-.02.13.03-.03,0,0,.02.02.03-.02,0-.02,0,0,.03,0,0,.02,0,.02,0,0,0,0,0,0,0,.04.02.04.01.02,0,0,0,0,0,0-.01.02.05.11.07.09.1.12.07.21.1.31.16,0,.02-.03.02-.06,0l.07.04s-.05-.02-.07-.03c.05.09.18.08.25.18h.03s0,0,0,0c0,0,.03,0,.05,0,0,.03-.03.04.02.07.02.04.11.06.16.09-.02-.02,0-.02,0-.02.02.02.02.04.05.05l-.02.02s.08.02.09.02c0,.03-.05-.01-.06,0,.09.06.05.03.14.09.06.02,0-.03.05-.03.05.03.1.04.14.09v-.03c.06.03.1.05.13.08-.06.06-.13.12-.19.18-.37.3-.71.65-1.04,1.01-.21-.21-.38-.25-.68-.44-.25-.2-.29-.29-.57-.46-.13-.1-.27-.19-.4-.27-.08-.01-.17-.12-.26-.14v-.04s-.08-.02-.1-.05h0s-.08-.05-.1-.06h0s-.05-.03-.05-.03h.01c-.07-.03-.14-.08-.19-.13v.02c-.12-.11-.19-.1-.28-.21h0c-.18-.05-.19-.2-.38-.25.02,0,0-.02,0-.02-.07-.04-.14-.09-.18-.05-.05-.04-.03-.04-.02-.06-.01.02-.06,0-.1-.03h.02s-.11-.07-.11-.07v.05c-.05-.05.01-.05-.05-.08l-.02.03c-.08-.06-.09-.14-.15-.22-.31-.24-.71-.42-.97-.68v-.03s-.11-.01-.1-.05h-.05s-.02-.04,0-.04c-.03-.02-.04-.02-.07-.03l-.02-.04c-.12-.11-.25-.15-.38-.25-.13-.16-.46-.33-.65-.44-.28-.13-.47-.46-.76-.58,0-.01-.03-.02-.04-.01l-.23-.17s-.02-.01-.04-.03c.14-.09.25-.19.34-.29.72-.37.93-.38,1.29-.54ZM1491.23,99.61c.06.05.12.08.19.1-.02.05.1.08.12.11h0c.1.02.14.14.23.17,0,0-.02.01-.03,0,.06.03.14.08.12.1.13.09.3.23.42.25h-.01c.07,0,.06.04.13.07,0,0,0,0,0,.01.07.01.15.1.2.12v.02s.09.07.09.07l-.04-.03s.06.08.15.11c.06.06.21,0,.27.08.05,0-.06.01,0,.03-.02.02-.03,0-.04.03.06.02.06.08.14.11v.02c.09.02.12.13.2.14.09.04.01.09.13.12v.05s.06-.01.1.03c-.01.01.04.05,0,.05.07.09.21.1.31.23.05-.01.1.05.13.04,0,.02.12.09.03.07,0,0-.02,0-.01-.01h-.02c.04.1.14.08.21.14-.02-.02-.04-.04-.02-.04l.06.05h-.02s.09.08.09.08v-.03s.03.09.11.1c.04,0-.03-.06.03-.03.05.06.13.14.21.21,0-.03.03-.01.05,0v.02c.09.04-.01.06.09.1h.03c.1,0,.01.05.13.06-.04-.02.01-.05.05-.01h-.02s.04.02.05.04c-.02,0-.03.02,0,.04h-.04s.09.02.09.02c.03.05.13.09.13.12,0,0,.1.09.14.08-.03,0,.02.05-.01.06.04,0,.13.04.15.09h0c.1.1.22.12.31.22.01-.02.06.03.07,0,.13.05.16.2.26.14.05.03.04.06.07.09h-.02c.1.06.13.08.2.13.04.02.08-.02.13.04-.03,0,0,.02.02.03-.02,0-.03,0,0,.03,0,0,.02,0,.02,0,0,0,0,0,0,0,.04.02.04.01.02,0,0,0,0,0,0-.01.03.05.11.08.1.11.12.08.23.11.33.17,0,.02-.03.02-.06,0l.07.04s-.05-.02-.07-.03c.06.09.19.09.27.19h.03s0,0,0,0c0,0,.04,0,.05,0,0,.03-.03.04.02.07.03.04.11.07.17.1-.02-.02,0-.03,0-.02.02.02.03.04.05.05l-.02.02s.08.02.1.02c0,.03-.05-.01-.06,0,.1.07.05.03.15.1.06.02,0-.03.05-.03.05.03.1.04.15.09v-.03c.1.04.14.08.19.15.04.02.08.03.12.04-.42.46-.86.92-1.37,1.3-.02.03-.04.05-.06.06,0,0-.01-.02-.02-.03.04-.06.07-.12-.04-.04-.03-.03-.05-.05-.05-.05-.23-.24-.41-.27-.74-.48-.27-.21-.31-.3-.61-.49-.13-.1-.29-.2-.42-.29-.09-.01-.18-.13-.27-.15l-.02-.04s-.07-.03-.09-.05h0s-.09-.06-.11-.06h0s-.05-.04-.05-.04h.01c-.08-.04-.15-.08-.2-.14v.02c-.12-.12-.21-.11-.3-.22h0c-.19-.06-.21-.21-.4-.27.02,0,0-.02,0-.02-.08-.04-.15-.1-.19-.05-.05-.04-.03-.04-.03-.06-.01.02-.06,0-.11-.03h.02s-.12-.07-.12-.07v.05c-.06-.05.01-.05-.05-.09l-.02.03c-.08-.07-.1-.15-.16-.23-.33-.26-.75-.45-1.03-.73v-.03s-.12-.02-.11-.05h-.05s-.02-.05,0-.04c-.03-.03-.04-.02-.07-.03l-.02-.05c-.12-.11-.27-.16-.4-.27-.14-.16-.49-.36-.69-.47-.3-.14-.5-.48-.81-.62,0-.01-.04-.02-.04-.01l-.24-.18s-.04-.03-.1-.07c.75-.35,1.42-.62,1.9-.88ZM1496.57,105.91s.03,0,.04.01c-.01.01-.02.02-.04.03-.02,0-.01-.03,0-.05ZM1487.03,101.76c.06.05.12.08.19.1-.02.05.11.09.13.12h0c.11.03.16.16.26.19,0,0-.02.01-.04,0,.06.04.15.09.14.12.15.1.34.25.46.28h-.01c.07.01.07.05.14.08,0,0,0,.01,0,.01.08.01.17.12.22.14v.02s.11.08.11.08l-.04-.03s.06.09.17.12c.07.06.23.02.29.1.05,0-.06.01,0,.03-.02.02-.04,0-.04.02.06.03.07.09.16.12v.02c.1.03.14.15.23.16.1.05.02.1.15.13l.02.05s.05,0,.09.04c-.01.01.05.05.01.05.09.1.24.12.34.26.05,0,.11.06.15.05,0,.02.14.1.04.07,0,0-.02-.01-.02-.02h-.02c.05.1.16.09.23.16-.02-.02-.05-.04-.02-.04l.07.05h-.03s.1.09.1.09v-.03s.04.09.12.11c.04,0-.03-.06.03-.03.06.06.15.16.24.23,0-.03.03,0,.06,0v.02c.1.04,0,.07.1.11h.04c.11.01.02.06.15.08-.04-.02.01-.05.05-.01h-.03s.04.02.06.04c-.02,0-.03.02.01.04h-.04s.1.02.1.02c.04.06.15.1.15.14,0,0,.11.1.16.09-.04,0,.02.05,0,.06.04,0,.15.05.17.1h0c.12.11.25.13.35.24.01-.03.07.03.07,0,.14.06.18.22.29.17.06.04.05.07.08.09h-.02c.11.06.14.08.22.14.05.02.08-.01.14.05-.03,0,0,.02.02.04-.02,0-.03,0,0,.03,0,0,.02,0,.03,0,0,0,0,0,0,0,.05.03.04.02.03,0,0,0,0,0,0-.01.03.05.13.09.11.12.14.09.25.13.37.2,0,.02-.03.02-.07,0l.08.05s-.05-.02-.08-.03c.07.1.21.11.3.21h.03s0,0,0,0c0,0,.04,0,.06,0,0,.03-.03.04.02.08.03.05.13.08.19.11-.03-.02-.01-.03,0-.02.03.02.03.05.06.05v.03s.07.03.09.02c0,.03-.05-.02-.07,0,.11.08.05.04.16.11.07.02,0-.03.05-.03.05.03.12.05.16.11v-.03c.1.05.16.1.21.16.02,0,.03.01.05.02-.03.03-.06.05-.09.08l-.08-.02c-.47.46-.96.85-1.41,1.19-.02-.02-.03-.04-.05-.06h.01c-.14-.13-.23-.2-.35-.23.02-.05-.12-.09-.14-.13h0c-.12-.03-.17-.16-.28-.2,0,0,.02-.01.04,0-.07-.04-.16-.09-.15-.12-.16-.1-.36-.27-.49-.3h.01c-.08-.02-.07-.05-.15-.08,0,0,0-.01,0-.01-.08-.02-.18-.12-.24-.15v-.02s-.11-.08-.11-.08l.04.04s-.07-.09-.18-.13c-.08-.06-.24-.03-.3-.11-.06,0,.06,0-.01-.04.02-.02.04,0,.04-.02-.07-.03-.08-.09-.16-.13v-.02c-.11-.04-.15-.15-.24-.17-.11-.06-.02-.1-.15-.14l-.02-.05s-.05,0-.09-.04c.01-.01-.05-.06-.01-.05-.09-.1-.25-.13-.36-.27-.05,0-.11-.06-.15-.06,0-.02-.14-.11-.04-.08,0,0,.02.01.02.02h.02c-.06-.1-.16-.1-.24-.16.02.02.05.04.02.04l-.07-.06h.03s-.11-.09-.11-.09v.03s-.04-.1-.12-.11c-.04,0,.03.06-.03.03-.06-.07-.16-.16-.25-.24,0,.03-.03,0-.06,0v-.02c-.11-.05,0-.07-.11-.12h-.04c-.12-.02-.02-.06-.16-.08.04.03-.01.05-.05.01h.03s-.04-.02-.06-.04c.02,0,.03-.02-.01-.04h.04s-.1-.02-.1-.02c-.04-.06-.15-.1-.16-.14,0,0-.11-.1-.16-.09.04,0-.03-.05,0-.06-.05,0-.15-.06-.18-.1h0c-.12-.12-.26-.14-.37-.26-.01.03-.07-.03-.07,0-.15-.07-.2-.23-.31-.18-.06-.04-.06-.07-.08-.1h.02c-.12-.07-.15-.09-.23-.15-.05-.02-.08.01-.15-.05.04,0,0-.02-.02-.04.02.01.03,0,0-.03,0,0-.02,0-.03,0,0,0,0,0,0,0-.05-.03-.05-.02-.03,0,0,0,0,0,0,.01-.03-.05-.13-.09-.12-.13-.14-.09-.26-.14-.39-.21,0-.02.03-.02.07,0l-.09-.05s.06.02.08.04c-.07-.1-.23-.11-.32-.22h-.04s0,0,0,0c0,0-.04,0-.06,0,0-.03.03-.04-.03-.08-.03-.05-.13-.08-.2-.12.03.03.01.03,0,.02-.03-.02-.03-.05-.06-.06v-.03s-.08-.03-.09-.03c0-.03.06.02.07,0-.12-.08-.06-.04-.17-.12-.07-.03,0,.03-.05.03-.04-.02-.08-.04-.12-.07.62-.33,1.22-.65,1.87-.95ZM1484.85,102.88c.15.1.31.17.53.31.3.23.35.33.68.54.15.11.32.22.47.32.09.02.2.14.3.17l.02.04s.07.03.1.06h0c.05.02.1.06.12.07h0s.05.04.05.04h-.01c.09.04.16.1.23.15v-.03c.14.13.23.12.34.25h0c.21.07.23.23.45.3-.03,0,0,.02,0,.02.08.05.17.11.2.07.06.04.04.05.03.07.01-.02.07,0,.12.04h-.03s.13.08.13.08v-.05c.06.06-.01.05.06.09l.02-.03c.09.07.11.16.19.24.37.29.83.51,1.15.81v.03s.13.02.12.06l.05.02s.03.04,0,.03c.04.03.04.02.08.03l.03.05c.14.12.29.18.45.3.16.18.54.4.77.52.32.16.57.53.9.69,0,.01.04.02.04.02l.27.2s.15.11.32.22c-.4.31-.76.59-1.03.88-.08.07-.15.13-.22.19-.25-.23-.45-.29-.81-.52-.32-.24-.37-.34-.72-.57-.16-.12-.34-.23-.5-.34-.1-.02-.21-.15-.31-.18l-.02-.04s-.08-.03-.1-.06h0c-.06-.02-.1-.07-.13-.08h0s-.06-.04-.06-.04h.01c-.09-.04-.17-.1-.24-.16v.03c-.15-.13-.23-.13-.35-.26h0c-.22-.07-.25-.24-.47-.32.03,0,0-.02,0-.02-.09-.05-.18-.11-.21-.07-.06-.04-.04-.05-.03-.07-.01.02-.07-.01-.12-.04h.03s-.14-.08-.14-.08v.05c-.06-.06.01-.06-.06-.1l-.02.03c-.09-.08-.12-.16-.2-.25-.39-.3-.87-.53-1.21-.85v-.03s-.14-.03-.13-.07l-.05-.02s-.03-.04,0-.03c-.04-.03-.04-.03-.08-.04l-.03-.05c-.15-.13-.31-.19-.47-.31-.17-.18-.57-.42-.8-.55-.34-.17-.6-.55-.95-.72,0-.01-.04-.02-.04-.02l-.28-.21s-.02-.01-.04-.03c.58-.27,1.11-.53,1.6-.79ZM1487.44,114.42s-.01,0-.02,0c.02-.05-.08-.07-.1-.1h0c-.09-.02-.11-.13-.2-.14,0,0,.02-.01.03,0-.05-.03-.12-.06-.1-.09-.11-.07-.26-.19-.36-.2h0c-.06,0-.05-.04-.11-.06,0,0,0,0,0,0-.06,0-.13-.09-.17-.1v-.02s-.08-.06-.08-.06l.03.03s-.04-.08-.13-.09c-.05-.05-.19,0-.23-.06-.05,0,.05-.02,0-.03.02-.02.03,0,.03-.03-.05-.02-.05-.07-.12-.1v-.02c-.08-.02-.1-.12-.17-.12-.08-.04,0-.09-.11-.11v-.05s-.06.01-.08-.02c.01-.01-.03-.04,0-.04-.06-.08-.19-.08-.26-.2-.05.01-.08-.04-.12-.03,0-.02-.1-.08-.02-.06,0,0,.02,0,.01.01h.02c-.03-.09-.12-.07-.18-.12.01.02.04.03.01.03l-.05-.04h.02s-.08-.07-.08-.07v.03s-.03-.08-.09-.09c-.03,0,.02.05-.03.03-.04-.05-.11-.13-.17-.18,0,.03-.03.01-.05,0v-.02c-.08-.03.02-.06-.07-.09l-.03.02c-.09-.01,0-.06-.12-.07.03.02-.02.05-.05.02h.02s-.03-.02-.04-.03c.02,0,.03-.02,0-.04h.04s-.08-.01-.08-.01c-.03-.05-.11-.07-.11-.11,0,0-.08-.08-.12-.06.03,0-.01-.05.02-.06-.04,0-.12-.03-.13-.07h0c-.09-.09-.2-.09-.27-.19-.01.02-.05-.02-.06.01-.11-.04-.13-.18-.23-.12-.05-.03-.04-.06-.05-.08h.01c-.09-.05-.11-.06-.17-.11-.04-.01-.07.02-.12-.03.03,0,0-.02-.01-.03.01,0,.02,0,0-.03,0,0-.02,0-.02,0,0,0,0,0,0,0-.04-.02-.04,0-.02,0,0,0,0,0,0,.01-.02-.04-.1-.07-.08-.1-.1-.07-.2-.09-.29-.14,0-.02.03-.02.06,0l-.06-.04s.04.01.06.02c-.05-.08-.17-.07-.23-.16h-.03s0,0,0,0c0,0-.03,0-.05,0,0-.03.03-.04-.01-.07-.02-.04-.1-.06-.15-.08.02.02,0,.02,0,.02-.02-.01-.02-.04-.04-.04l.02-.02s-.07-.01-.09-.01c0-.03.04,0,.06,0-.08-.06-.04-.03-.13-.09-.06-.01,0,.03-.04.03-.02,0-.03-.02-.05-.02-.03-.13-.05-.23-.06-.38.07.22.11.11.03-.45l.13.36-.27-1.04c-.01-.29-.06-.64-.1-.98.01,0,.02.01.02.02h0c.1.03.14.15.24.17,0,0-.02.01-.03,0,.06.03.14.08.13.11.14.09.32.24.43.26h-.01c.07.01.07.04.13.07,0,0,0,0,0,.01.07.01.16.11.21.13v.02s.1.07.1.07l-.04-.03s.06.09.16.11c.07.06.22.01.27.09.05,0-.06.01,0,.03-.02.02-.04,0-.04.03.06.03.07.09.14.12v.02c.1.03.13.14.21.15.1.05.02.1.13.13l.02.05s.05-.01.08.03c-.01.01.04.05,0,.05.08.09.22.11.32.24.05-.01.1.05.14.05,0,.02.13.09.03.07,0,0-.02-.01-.01-.02h-.02c.05.1.15.09.21.15-.02-.02-.05-.04-.02-.04l.07.05h-.03s.09.09.09.09v-.03s.04.09.11.1c.04,0-.03-.06.03-.03.06.06.14.15.22.21,0-.03.03,0,.06,0v.02c.1.04,0,.06.09.11h.03c.11,0,.01.05.14.07-.04-.02.01-.05.05-.01h-.02s.04.02.05.04c-.02,0-.03.02.01.04h-.04s.09.02.09.02c.04.06.14.09.14.13,0,0,.1.09.15.08-.03,0,.02.05-.01.06.04,0,.14.05.16.09h0c.11.11.23.12.33.23.01-.02.06.03.07,0,.14.06.17.21.27.15.06.03.05.06.07.09h-.02c.1.06.13.08.2.13.04.02.08-.02.14.04-.03,0,0,.02.02.03-.02,0-.03,0,0,.03,0,0,.02,0,.03,0,0,0,0,0,0,0,.04.02.04.01.02,0,0,0,0,0,0-.01.03.05.12.08.1.11.13.08.24.12.35.18,0,.02-.03.02-.07,0l.08.05s-.05-.02-.08-.03c.06.09.2.1.28.2h.03s0,0,0,0c0,0,.04,0,.05,0,0,.03-.03.04.02.07.03.04.12.07.18.1-.03-.02,0-.03,0-.02.03.02.03.04.05.05l-.02.02s.08.02.1.02c0,.03-.05-.01-.07,0,.1.07.05.03.15.1.07.02,0-.03.05-.03.05.03.11.05.15.1v-.03s.03.01.04.02c-.34.52-.64,1.07-.96,1.65ZM1481.48,106.6s-.05-.44-.11-.92c-.02-.12-.04-.25-.05-.37.04.03.11.06.13.09h0c.12.04.18.17.29.21,0,0-.02.01-.04,0,.07.04.17.1.16.13.17.11.38.28.52.32h-.01c.08.02.08.05.16.09,0,0,0,.01,0,.01.08.02.19.13.25.16v.02s.12.09.12.09l-.05-.04c.05-.03.08.1.19.14.08.07.25.03.32.12.06,0-.06,0,.01.04-.02.02-.04,0-.04.02.07.03.09.1.18.14v.02c.12.04.16.16.26.18.12.06.03.1.17.15l.02.06s.06,0,.1.04c-.01.01.06.06.01.05.1.11.26.14.39.29.06,0,.12.07.16.06,0,.02.15.11.05.08,0,0-.02-.01-.02-.02h-.02c.06.11.17.11.26.18-.02-.02-.06-.05-.02-.04l.08.06h-.03s.11.1.11.1v-.03c.05.05.05.1.13.12.04,0-.04-.07.03-.03.07.07.17.17.27.25,0-.03.03,0,.06,0v.02c.12.05,0,.07.12.12h.04c.12.02.02.06.17.09-.04-.03.01-.05.06,0h-.03s.05.02.06.04c-.02,0-.03.02.02.05h-.05s.1.03.1.03c.05.06.16.11.17.15,0,0,.12.11.17.1-.04,0,.03.06,0,.06.05,0,.16.06.19.11h0c.13.13.28.15.39.27,0-.03.07.04.08,0,.16.07.21.24.33.19.07.04.06.07.09.1h-.02c.12.07.16.1.25.16.05.02.09-.01.16.06-.04,0,0,.02.03.04-.02-.01-.03,0,0,.03,0,0,.02,0,.03,0,0,0,0,0,0,0,.05.03.05.02.03,0,0,0,0,0,0-.02.04.06.14.1.13.13.15.1.28.15.41.23,0,.02-.03.02-.07,0l.09.06s-.06-.02-.09-.04c.08.11.24.12.34.24h.04s0,.01,0,.01c0,0,.04,0,.06.01,0,.03-.03.04.03.08.04.05.14.09.21.13-.03-.03-.01-.03,0-.02.03.02.04.05.06.06v.03s.08.03.1.03c0,.03-.06-.02-.08-.01.12.09.06.04.18.13.08.03,0-.03.05-.03.06.04.13.06.18.12v-.04c.08.04.14.08.18.13l-.16.09c-.13.1-.21.18-.27.24-.03.03-.05.05-.09.1-.04.04-.07.08-.11.12-.02.04-.04.09-.06.14,0,.01-.01.03-.02.04,0,0,0,.01,0,.02h0s-.02.05-.03.07c-.04.08-.1.18-.19.31-.01-.03-.1.1-.19.23-.13-.08-.27-.14-.46-.26-.26-.21-.31-.3-.6-.48-.13-.1-.28-.19-.42-.28-.09-.01-.17-.12-.27-.15l-.02-.04s-.07-.02-.08-.05h0s-.08-.06-.11-.06h0s-.05-.03-.05-.03h.01c-.08-.04-.15-.08-.2-.13v.02c-.12-.12-.2-.11-.3-.22h0c-.19-.05-.2-.21-.39-.26.02,0,0-.02,0-.02-.07-.04-.15-.09-.18-.05-.05-.04-.03-.04-.03-.06-.01.02-.06,0-.1-.03h.02s-.12-.07-.12-.07v.05c-.06-.05.01-.05-.05-.09l-.02.03c-.08-.07-.1-.14-.16-.22-.33-.25-.74-.44-1.02-.71v-.03s-.12-.02-.11-.05h-.05s-.02-.05,0-.04c-.03-.03-.04-.02-.07-.03l-.02-.05c-.12-.11-.26-.15-.4-.26-.14-.16-.48-.35-.68-.46-.29-.14-.49-.47-.79-.61,0-.01-.03-.02-.04-.01l-.24-.18s-.05-.04-.12-.09c-.06-.46-.12-.85-.09-1.02ZM1481.89,110.87s.05.03.08.05c.21.17.24.25.49.4.11.08.23.16.34.23.07,0,.14.1.22.12v.03s.07.02.08.04h0s.07.05.09.05h0s.04.03.04.03h-.01c.06.03.12.07.17.11v-.02c.1.1.17.08.25.18h0c.16.03.16.18.33.21-.02,0,0,.02,0,.02.06.03.13.08.16.03.04.03.02.04.02.06.01-.02.06,0,.09.02h-.02s.1.06.1.06v-.05s-.01.05.04.08l.02-.03c.06.05.07.13.12.2.27.21.62.35.83.58v.03s.1,0,.09.04h.04s.02.04,0,.03c.03.02.03.02.06.02v.04c.11.09.23.12.34.21.11.14.39.29.56.37.24.1.39.4.65.5,0,0,.03.01.03,0l.19.15s.02.01.04.03c-.28.52-.59,1.07-.94,1.64-.02-.01-.05-.03-.07-.04-.16-.13-.18-.2-.36-.31-.08-.06-.18-.12-.26-.17-.06,0-.11-.08-.17-.08v-.03s-.05,0-.06-.03h0s-.05-.04-.07-.04h0s-.03-.02-.03-.02h.01c-.05-.02-.1-.05-.13-.08v.02c-.07-.08-.14-.06-.19-.14h0c-.13-.01-.12-.15-.25-.16.02,0,0-.01,0-.02-.05-.03-.1-.06-.13-.01-.03-.02-.02-.03,0-.05-.01.02-.05,0-.07-.01h.02s-.08-.04-.08-.04v.04s.01-.05-.03-.07l-.02.03s-.05-.11-.08-.17c-.2-.16-.48-.25-.63-.44v-.03s-.08,0-.07-.03h-.03s-.01-.03,0-.03c-.02-.02-.02-.01-.05-.01v-.04c-.08-.07-.18-.09-.26-.16-.07-.11-.3-.22-.43-.28-.16-.05-.25-.23-.38-.33,0-.05-.02-.1-.03-.15l-.13-.23c-.31-1.25.05-.7-.33-2.08.08.52-.09.31-.17-.29ZM1484.34,119.85s0,.01-.01.02c0,0-.02,0-.02,0h.01s0,.01,0,.02c0,0,0,0,0,0,0,0,0,0,0,.01-.02.02-.02,0,0-.05.01,0,.02,0,.03,0ZM1484.99,118.83s-.28.43-.47.74c0,0,0,0,0,0-.02-.02-.04-.03-.07-.04.05-.09.11-.2.12-.18v-.15c-.07.1-.14.2-.2.31-.03,0-.04-.04-.08-.03v-.02s-.02,0-.02-.01h0s-.03-.02-.04-.01h0s-.02-.01-.02-.01h0s-.05-.02-.06-.04v.02c-.03-.05-.08-.02-.1-.07h0c-.09.02-.04-.09-.13-.07.01,0,0-.01.01-.02-.03,0-.05-.02-.08.02-.01-.01,0-.02,0-.04-.01.02-.03.02-.05,0h.01s-.04-.02-.04-.02l-.02.04s.03-.05,0-.05l-.02.03s0-.08,0-.12c-.09-.08-.25-.09-.31-.2v-.02s-.05.03-.03,0h-.02s0-.01.01-.01c0,0-.01,0-.03,0v-.03s-.09-.03-.12-.07c-.02-.07-.12-.1-.19-.12-.06-.67-.13-1.4-.21-2.09.01,0,.02.02.03.02v.02s.04.03.04.03l-.02-.02s.02.05.07.05c.03.03.14-.05.16,0,.03,0-.04.02,0,.03-.02.02-.02,0-.03.03.03,0,.02.05.06.06v.02c.05,0,.04.08.09.06.05.01-.01.07.05.07v.04s.03-.02.04,0c-.01.01.02.03,0,.04.03.06.12.03.14.11.04-.02.05.02.08,0,0,.01.06.04,0,.05,0,0,0,0,0,0l-.02.02c0,.06.07.02.1.05,0-.01-.02-.02,0-.03l.03.02h-.02s.04.05.04.05v-.02s0,.06.05.05c.02,0,0-.04.03-.03.02.03.05.09.08.12.01-.02.02-.02.04-.01v.02s-.03.05.03.06l.03-.02c.06-.01,0,.05.07.03-.02,0,.02-.05.04-.02h-.02s.02.01.03.02c-.01,0-.02.02,0,.03h-.03s.05,0,.05,0c0,.04.06.04.05.07,0,0,.04.05.07.03-.02,0,0,.04-.02.05.03,0,.08,0,.08.03h0c.04.06.12.04.15.1.01-.02.03,0,.05-.02.07.01.05.12.14.05.03.01.01.04.02.05h0c.05.03.06.03.1.06.02,0,.05-.03.08,0-.02,0,0,.01,0,.02,0,0-.02,0,0,.02,0,0,.01,0,.02,0,0,0,0,0,0,0,.02,0,.02,0,.02,0,0,0,0,0,0-.01,0,.03.05.04.04.07.06.03.12.04.18.06,0,.02-.03.02-.04.02l.04.02s-.03,0-.04,0c.02.06.11.03.13.09h.02s0,0,0,0c0,0,.02-.01.03,0,0,.02-.03.04,0,.05,0,.03.05.03.08.03-.13.23-.23.43-.27.56ZM1483.12,118.93s0,.01-.01.01c0-.01,0-.03,0-.04.01,0,.02,0,.02,0,.03-.01-.04.03,0,.02ZM1485.79,117.19c-.06.2-.21.5-.37.78-.07-.07-.09-.13-.21-.19-.06-.05-.13-.09-.2-.12-.05.01-.08-.06-.13-.05v-.03s-.04,0-.04-.02h0s-.04-.03-.05-.03h0s-.02-.02-.02-.02h0s-.07-.03-.1-.06v.02c-.05-.07-.11-.04-.14-.1h0c-.11,0-.08-.12-.19-.12.01,0,0-.01,0-.02-.04-.02-.07-.04-.11,0-.02-.02,0-.03,0-.05-.01.02-.04.01-.06,0h.01s-.06-.03-.06-.03l-.02.04s.02-.05,0-.06l-.02.03s-.02-.09-.04-.14c-.14-.12-.36-.17-.47-.32v-.03s-.06.02-.05-.01h-.03s0-.02,0-.02c-.01-.01-.02,0-.04,0v-.03c-.05-.06-.13-.06-.19-.11-.05-.1-.22-.16-.32-.2-.07-.02-.12-.08-.17-.14,0-.04-.01-.09-.02-.13-.06.13-.11-.22-.18-.59l.06-.05c-.22-1.09-.05-.81-.09-1.29.01,0,.02,0,.03,0h0c.05,0,.04.03.09.04,0,0,0,0,0,0,.05,0,.1.07.13.07v.02s.06.04.06.04l-.02-.02s.03.06.1.07c.04.04.16-.03.19.03.04,0-.05.02,0,.03-.02.02-.03,0-.03.03.04.01.04.06.09.08v.02c.07,0,.07.09.13.09.07.02,0,.08.08.08v.04s.04-.02.06.01c-.01.01.02.04,0,.04.04.07.15.05.2.15.04-.02.07.03.1.02,0,.01.08.06.01.06,0,0-.01,0,0-.01h-.02c.02.08.1.05.14.09,0-.02-.03-.03,0-.03l.04.03h-.02s.06.06.06.06v-.02s.02.07.07.07c.03,0,0-.05.03-.03.03.04.08.1.12.15.01-.02.02-.01.04,0v.02c.06.01-.02.05.05.07l.03-.02c.08,0,0,.06.09.05-.02-.01.02-.05.04-.02h-.02s.03.02.04.03c-.02,0-.02.02,0,.03h-.03s.07,0,.07,0c.02.04.09.05.08.09,0,0,.06.06.1.04-.03,0,0,.04-.02.05.03,0,.1.02.1.05h0c.06.08.15.07.2.14.01-.02.04.01.05-.02.09.02.09.15.18.08.04.02.02.05.04.06h-.01c.07.04.08.05.13.08.03,0,.06-.03.1.01-.02,0,0,.02,0,.03-.01,0-.02,0,0,.02,0,0,.01,0,.02,0,0,0,0,0,0,0,.03.01.03,0,.02,0,0,0,0,0,0-.01.01.04.07.05.06.08.08.05.16.06.23.1,0,.02-.03.02-.05.01l.05.03s-.03,0-.05-.01c.03.07.13.05.17.12h.02s0,0,0,0c0,0,.03,0,.04,0,0,.02-.03.04,0,.06.01.03.08.04.12.06-.02-.02,0-.02,0-.02.02.01.01.03.03.04l-.02.02s.06,0,.07,0c0,.02-.04,0-.05,0,.04.02.04.03.05.03-.12.19-.24.38-.38.57ZM1483.47,121.17c0-.1,0-.2-.01-.27-.02.05-.03.1-.05.16,0-.14.03-.23.04-.29,0-.01,0-.03,0-.04,0,0,0-.01,0-.02,0-.04,0-.07-.01-.11-.02-.16-.06-.34-.12-.56-.11-.39,0,.75-.13-.07-.03-.29-.06-.63-.09-.99,0,0,0,.01.02,0v.02s.02.06.06.04c.04,0-.02.07.03.05v.03s.02-.02.03,0c-.01.02,0,.02-.01.03.01.05.08,0,.09.08.03-.02.04,0,.06-.01,0,.01.04.03,0,.04,0,0,0,0,0,0l-.02.02s.05,0,.07.03c0-.01-.01-.01,0-.02l.02.02h-.02s.02.04.02.04v-.02s0,.06.03.04c.02,0,0-.04.03-.03,0,.03.02.07.04.09.01-.02.02-.02.03-.02v.02s-.03.05,0,.05h-.01s.04-.02.04-.02c.05-.02-.02.05.05.02-.01,0,.03-.04.03-.03l-.02.02s.02,0,.02,0c-.01,0-.02.02,0,.03l-.02.02.04-.02s.04.02.03.05c0,0,.02.04.05.01-.02.01,0,.03-.03.05.02-.01.06-.01.05.02h0s.08.02.1.07c.01-.02.02,0,.04-.03.05,0,.02.1.1.02.02,0,0,.03,0,.04h0s.04.02.06.04c.02,0,.05-.04.06-.01-.02.01,0,.01,0,.02,0,0-.01,0-.01.02,0,0,0,0,0,0-.16.27-.31.54-.44.82l-.05.09-.02.04s0,.02,0,.02h0s0,.03,0,.04c0,.02-.01.05-.02.08-.02.06-.05.13-.08.18.02,0,.04-.04.06-.06.02-.01.03-.01.01.06l-.16.25c.02-.07.04-.14.05-.2l-.04.05ZM1492.54,116.43l.02-.02c-.46.19-.65.53-1.08.68.06.06-.16.14-.06.2-.33.32-.82.26-.79.61-.17.12-.25.07-.35.11l.03-.04c-.32.23-.41.29-.66.43-.11.1-.31.49-.54.6.04-.09-.9.52-.98.57.05-.04-1.54.78-1.71.88-.17.03-.36.26-.51.4.1-.05.09,0,.06.04-.08.05-.44.23-.77.44-.14.17,0,.03-.05.15-.15.11-.27.26-.48.33l.1.03c-.24.21-.41.31-.61.37.13-.23.26-.46.4-.69.13-.23.26-.46.39-.69.46-.81.92-1.62,1.37-2.42.92-1.59,1.83-3.14,2.75-4.58l.18-.15c.07-.01.2-.3.33-.61.02-.04.03-.08.05-.11.76.77,1.9,1.82,1.9,1.82.51.48.99.92,1.45,1.33-.08.12-.3.31-.44.31ZM1493.88,115.71c-2.09-1.64-3.37-2.6-4.1-3.11.03-.06.06-.12.08-.16,0-.02,0-.02.01-.02,0,0,0,0,0-.01,0,0,.01-.01.02-.01,0,0,.02,0,.02,0v-.02s.02-.01.03-.02l.03-.03.1-.1.21-.21c.14-.09.43-.3.22-.09.42-.34.42-.37.7-.65l.5-.32c1.7-1.33,3.01-2.61,4.78-4.03,2.2-1.62,6.05-5,8.27-6.94,3.08-2.78,7.11-5.5,10.25-8.37.12-.08.37-.33.36-.34l3.01-2.47s14.55-12,2.86-3.6l.06-.08c-.72.56-1.32,1.04-1.86,1.48-.01,0-.03-.01-.04-.02-.04.02-.04-.03-.07-.01v-.02s-.02,0-.01,0h0s-.02-.01-.03,0h0s-.01,0-.01,0h0s-.04-.01-.05-.03l-.02.02s-.05,0-.06-.05h0c-.07.03-.02-.08-.09-.05,0,0,0-.01.01-.02-.02,0-.04-.01-.07.03-.01,0,0-.02.01-.04-.01.02-.03.02-.04.01h0s-.03-.02-.03-.02l-.02.04s.03-.04.01-.04l-.02.03s0-.07,0-.1c-.06-.06-.19-.04-.22-.14v-.02s-.04.03-.02,0h-.02s0,0,.01-.01c0,0-.01,0-.02,0v-.03s-.06-.01-.08-.04c0-.07-.1-.08-.15-.08-.09,0-.06-.16-.15-.15,0,0-.01,0-.01,0h0c1.15-.62,1.9-.97,2.76-1.31,9.41-5.33,1.64-1.77,1.64-1.77-3.9,1.72-5.77,2.89-10.29,5.18-4.02,1.93-5.15,2.32-9.26,4.41-1.98.96-4.08,2.03-6,2.99-.86.55-2.54,1.25-3.58,1.87l-.45.15c-.36.21-.79.45-1.18.6v-.03c-.52.32-1.16.6-1.43.76v-.03s-.66.34-.66.34l.1-.08c-.95.53-1.95,1.02-2.85,1.43l.11.04c-1.93.85-2.55,1.34-4.3,2.08v-.03c-.46.29-.91.53-1.33.74-.21.11-.42.2-.63.3-.28.13-.55.26-.82.38-.55-.64-1.76-1.88-3.89-3.98l.1.05c-1.8-1.66-2.96-2.69-4.32-3.7-.05-.15-.42-.48-.84-.83-.21-.17-.42-.35-.61-.51-.02-.02-.04-.03-.06-.05-.02-.02-.03-.03-.05-.04-.03-.03-.05-.05-.07-.07h.03c-.11-.05-.22-.14-.32-.22.12-.03.26-.06.39-.09l.19-.03c.15-.03.29-.06.44-.1.6-.13,1.2-.28,1.75-.46-.05.02-.07.07-.32.14,1.01-.28,2.34-.65,2.44-.59,2.44-.65,5.86-1.48,7.38-2.03l-.1.05c.86-.32,1.15-.31,2.13-.61.06,0,.13-.01.12,0,.95-.34,2.83-.74,3.6-.98l.07.05,1.93-.51-.73.17c.21-.23,1.49-.27,2.86-.74,1.32-.32,2.57-1.02,3.95-1.29.63-.24-.54.27.42-.04.06.08-.44.17-.17.17.94-.29,1.59-.31,2.75-.67l.07.05c1.5-.51,2.92-.66,3.91-1.03,1.57-.46,1.12-.08,2.73-.63l.67-.08c.71-.17.47-.24,1.27-.4-.03.07,1-.21.56-.04,1.8-.37,3.56-1.05,5.93-1.5.48-.24,1.67-.48,2.02-.65.08.03,2.35-.6,1.07-.15-.11.04-.31.09-.3.07l-.14.11c1.36-.22,2.4-.69,3.72-1.01-.4.08-.91.22-.58.08l1.23-.3-.24.12,1.83-.44h-.27c.9-.2,1.25-.16,2.23-.52.44-.17-.87.13.07-.14.6-.13,1.35-.29,2.15-.47.2-.04.4-.09.6-.13.1-.02.2-.05.3-.07.02,0,.01,0,.02,0h0s.01,0,.01,0h.03c.07-.01.13-.02.18-.02.04-.04.07-.06.1-.09.03-.02.07-.04.12-.05,0,.02-.02.04-.03.07l-.13.09s-.03.1-.05.13c-.03.03-.06.04-.08.05-.01,0-.03,0-.04,0,0,0-.01,0-.02,0,0,0,0,0,0,0h0s0,0,0,0c0,0,0,0,0,.01-.09.13-.21.33-.4.69l-.06.29c-.62,1.33-.53.61-1.19,2.1.32-.56.29-.18-.14.48l.04-.21c-.21.38-.26.52-.42.77.1-.24-.02-.17-.33.39l.15-.41-.51,1.11c-.54.77-1.22,2.1-1.5,2.38,0,0-1,1.6-1.2,2.12.07-.24-.45.6-.36.3-.2.49-.94,1.85-1.32,2.34l.05-.11c-1.24,1.93-1.9,3.42-3.03,5.14.12-.04-.47.87-.25.69-.99,1.88-2.16,3.23-2.27,4.05-.48.84-.65.95-.92,1.37l.1-.21c-.9,1.57-1.17,2.02-1.86,3.18-.32.59-.24.76-.88,1.77.15-.36-.09.06-.32.45.14-.25.16-.34-.17.15-.03.08-.08.2-.14.3,0,0-.02.02-.02,0-.36.66-.28.55-.1.26,0,.02.02,0,.09-.08-.46.63-1.1,1.87-1.24,1.9-1.13,1.96-1.86,3.4-2.79,5.03-.15.16.03-.24.29-.72l-.66,1.16c-.06-.05.35-.68.55-1.04-.92,1.31-1.56,2.88-2.61,4.42l-.14.36-.07.09s-.15.39-.28.63c-.19.19-.12-.09-.59.7-.14.2-.31.47-.48.77-.02.04-.04.08-.06.11l-.02.03h0s-.01.04-.01.04c-.02.03-.03.07-.05.11-.04.08-.08.16-.11.24-.06-.05-.13-.09-.19-.13-.03-.02-.07-.05-.1-.07-.02-.01-.03-.02-.05-.04,0,0-.02-.02-.04-.03-.02-.01-.03-.03-.05-.04.02.02.05.04.07.06h.01s0,.02,0,.02c0,0,0,0,.01.01.02.02.03.03.04.04.02.02.03.04.02.04,0,.01-.06-.01-.12-.05-.02-.02-.04-.03-.06-.05-.02-.02-.04-.04-.06-.05-.04-.04-.08-.07-.11-.1-.07-.07-.13-.13-.19-.19-.12-.12-.23-.23-.38-.34l.02-.07c-.11-.01-.99-.77-1.13-.85-.16-.22.58.44.71.48-1.42-1.23-.71-.61-2.13-1.84-.8-.61.08.18-.33-.08-.68-.57-1.37-1.09-2.1-1.8l.19.27c-.95-.77-1.88-1.72-2.48-2.28l-.54-.37Z"/>
    <path class="st3" d="M1472.53,93.99s-.05.01-.07.02c.02,0,.05-.01.07-.02Z"/>
    <path class="st3" d="M1501.69,122.17v.02s0,0,0-.02Z"/>
    <path class="st3" d="M1509.22,90.63l-.31.12s.09-.01.31-.12Z"/>
    <path class="st3" d="M1497.11,95.37s.01,0,.02,0c.02-.01.05-.03.07-.05l-.09.05Z"/>
    <path class="st3" d="M1513.4,88.6h-.02s0,0,.02,0Z"/>
    <path class="st3" d="M1512.96,91.94s.03-.03.05-.04c-.02.01-.03.03-.05.04Z"/>
    <polygon class="st3" points="1482.51 113.47 1482.51 113.47 1482.58 113.58 1482.51 113.47"/>
    <path class="st3" d="M1489.92,119.61s0,0,0,0c0,0,0,.01-.01.02l.02-.02Z"/>
    <path class="st3" d="M1485.16,118.21v-.02s0,0,0,.02Z"/>
    <polygon class="st3" points="1485.01 117.66 1485.01 117.66 1485.02 117.66 1485.01 117.66"/>
    <polygon class="st3" points="1483.95 117.46 1483.95 117.46 1483.93 117.47 1483.95 117.46"/>
    <path class="st3" d="M1482.37,110.79v.02s.01-.01,0-.02Z"/>
    <polygon class="st3" points="1482.8 111.55 1482.8 111.54 1482.79 111.54 1482.8 111.55"/>
    <polygon class="st3" points="1484.49 112.2 1484.49 112.2 1484.51 112.19 1484.49 112.2"/>
    <path class="st3" d="M1488.74,110.61l-.02-.03s0,.01.02.03Z"/>
    <path class="st3" d="M1482.51,106.14s0,0,0,0c0,0,0,0,0,0Z"/>
    <polygon class="st3" points="1488 109.64 1488.01 109.64 1488.01 109.64 1488 109.64"/>
    <polygon class="st3" points="1485.63 108.5 1485.63 108.5 1485.61 108.5 1485.63 108.5"/>
    <path class="st3" d="M1490.46,109.23l-.02-.03s0,.01.02.03Z"/>
    <path class="st3" d="M1484.34,104.84s0,0,0,0c0,0,0,0,0,0Z"/>
    <polygon class="st3" points="1489.74 108.27 1489.74 108.27 1489.75 108.27 1489.74 108.27"/>
    <polygon class="st3" points="1487.4 107.15 1487.4 107.15 1487.39 107.16 1487.4 107.15"/>
    <path class="st3" d="M1493.85,106.62l-.02-.02s0,.01.02.02Z"/>
    <path class="st3" d="M1488.32,102.65s0,0,0,0c0,0,0,0,0,0Z"/>
    <polygon class="st3" points="1493.22 105.72 1493.22 105.73 1493.22 105.73 1493.22 105.72"/>
    <polygon class="st3" points="1491.08 104.75 1491.08 104.75 1491.06 104.76 1491.08 104.75"/>
    <path class="st3" d="M1497.32,103.95v-.02s-.01.01,0,.02Z"/>
    <path class="st3" d="M1492.4,100.42s0,0,0,0c0,0,0,0,0,0Z"/>
    <polygon class="st3" points="1496.78 103.12 1496.79 103.12 1496.79 103.12 1496.78 103.12"/>
    <polygon class="st3" points="1494.85 102.29 1494.85 102.29 1494.84 102.3 1494.85 102.29"/>
    <path class="st3" d="M1500.74,101.32v-.02s-.01.01,0,.02Z"/>
    <polygon class="st3" points="1500.3 100.55 1500.3 100.55 1500.3 100.55 1500.3 100.55"/>
    <polygon class="st3" points="1498.57 99.87 1498.57 99.87 1498.55 99.88 1498.57 99.87"/>
    <path class="st3" d="M1504.09,98.72s0,.01,0,.02v-.02Z"/>
    <polygon class="st3" points="1503.74 98.03 1503.74 98.03 1503.75 98.03 1503.74 98.03"/>
    <polygon class="st3" points="1502.21 97.49 1502.21 97.49 1502.2 97.5 1502.21 97.49"/>
    <path class="st3" d="M1507.42,96.18v-.02s0,0,0,.02Z"/>
    <polygon class="st3" points="1507.15 95.54 1507.15 95.54 1507.16 95.54 1507.15 95.54"/>
    <polygon class="st3" points="1505.81 95.14 1505.81 95.14 1505.8 95.15 1505.81 95.14"/>
    <path class="st3" d="M1510.91,93.49v-.02s0,0,0,.02Z"/>
    <polygon class="st3" points="1510.74 92.92 1510.74 92.92 1510.74 92.92 1510.74 92.92"/>
    <polygon class="st3" points="1509.6 92.67 1509.6 92.67 1509.59 92.68 1509.6 92.67"/>
    <path class="st3" d="M1514.27,90.91h0s0,0,0,0Z"/>
    <polygon class="st3" points="1514.18 90.41 1514.18 90.41 1514.19 90.41 1514.18 90.41"/>
    <polygon class="st3" points="1513.24 90.3 1513.24 90.3 1513.23 90.31 1513.24 90.3"/>
    <polygon class="st3" points="1517.92 87.67 1517.92 87.67 1517.93 87.67 1517.92 87.67"/>
    <polygon class="st3" points="1517.2 87.72 1517.2 87.72 1517.19 87.73 1517.2 87.72"/>
    <path class="st3" d="M1487.69,112.39v-.02s-.01.01,0,.02Z"/>
    <path class="st3" d="M1482.54,108.69s0,0,0,0c0,0,0,0,0,0Z"/>
    <polygon class="st3" points="1487.12 111.53 1487.12 111.53 1487.12 111.53 1487.12 111.53"/>
    <polygon class="st3" points="1485.11 110.65 1485.11 110.65 1485.09 110.66 1485.11 110.65"/>
    <path class="st3" d="M1485.92,116.45v-.02s0,0,0,.02Z"/>
    <polygon class="st3" points="1485.65 115.81 1485.65 115.81 1485.65 115.81 1485.65 115.81"/>
    <polygon class="st3" points="1484.3 115.4 1484.3 115.4 1484.28 115.41 1484.3 115.4"/>
    <path class="st3" d="M1485.87,103.13l.02.03s0-.01-.02-.03Z"/>
    <path class="st3" d="M1491.7,107.32s0,0,0,0c0,0,0,0,0,0Z"/>
    <polygon class="st3" points="1486.55 104.06 1486.54 104.06 1486.54 104.06 1486.55 104.06"/>
    <polygon class="st3" points="1488.78 105.11 1488.78 105.11 1488.8 105.1 1488.78 105.11"/>
    <path class="st3" d="M1495.54,105.32v-.02s-.01.01,0,.02Z"/>
    <path class="st3" d="M1490.3,101.57s0,0,0,0c0,0,0,0,0,0Z"/>
    <polygon class="st3" points="1494.95 104.46 1494.95 104.46 1494.96 104.46 1494.95 104.46"/>
    <polygon class="st3" points="1492.92 103.56 1492.92 103.56 1492.9 103.56 1492.92 103.56"/>
    <path class="st3" d="M1498.94,102.71v-.02s-.01.01,0,.02Z"/>
    <polygon class="st3" points="1498.44 101.91 1498.45 101.91 1498.45 101.91 1498.44 101.91"/>
    <polygon class="st3" points="1496.61 101.15 1496.61 101.15 1496.59 101.16 1496.61 101.15"/>
    <path class="st3" d="M1502.34,100.09v-.02s-.01.01,0,.02Z"/>
    <polygon class="st3" points="1501.94 99.35 1501.94 99.36 1501.94 99.36 1501.94 99.35"/>
    <polygon class="st3" points="1500.3 98.74 1500.3 98.74 1500.28 98.75 1500.3 98.74"/>
    <path class="st3" d="M1505.73,97.45s0,0,0,.02v-.02Z"/>
    <polygon class="st3" points="1505.43 96.8 1505.43 96.8 1505.43 96.8 1505.43 96.8"/>
    <polygon class="st3" points="1503.99 96.33 1503.99 96.33 1503.98 96.34 1503.99 96.33"/>
    <path class="st3" d="M1509.14,94.86v-.02s0,0,0,.02Z"/>
    <polygon class="st3" points="1508.92 94.25 1508.92 94.25 1508.92 94.25 1508.92 94.25"/>
    <polygon class="st3" points="1507.68 93.93 1507.68 93.93 1507.67 93.94 1507.68 93.93"/>
    <path class="st3" d="M1512.54,92.24h0s0,0,0,0Z"/>
    <polygon class="st3" points="1512.41 91.7 1512.41 91.7 1512.42 91.7 1512.41 91.7"/>
    <polygon class="st3" points="1511.37 91.52 1511.37 91.52 1511.36 91.53 1511.37 91.52"/>
    <polygon class="st3" points="1515.9 89.15 1515.9 89.15 1515.91 89.15 1515.9 89.15"/>
    <polygon class="st3" points="1515.06 89.11 1515.06 89.11 1515.05 89.12 1515.06 89.11"/>
    <polygon class="st3" points="1519.39 86.6 1519.39 86.6 1519.4 86.6 1519.39 86.6"/>
    <polygon class="st3" points="1518.75 86.7 1518.75 86.7 1518.74 86.72 1518.75 86.7"/>
  </g>
</svg>