<svg xmlns="http://www.w3.org/2000/svg" version="1.1" xmlns:xlink="http://www.w3.org/1999/xlink" width="512" height="512" x="0" y="0" viewBox="0 0 512 512" style="enable-background:new 0 0 512 512" xml:space="preserve" class=""><g><path d="M475.45 366.42h-11.68V58.1h11.68c11.88 0 21.55-9.67 21.55-21.55S487.33 15 475.45 15H36.55C24.67 15 15 24.67 15 36.55S24.67 58.1 36.55 58.1h11.68v308.31H36.55c-11.88 0-21.55 9.67-21.55 21.55s9.67 21.55 21.55 21.55H250v34.59c-11.9 2.73-20.81 13.39-20.81 26.1 0 14.77 12.03 26.79 26.81 26.79s26.81-12.02 26.81-26.79c0-12.71-8.91-23.37-20.81-26.1v-34.59h213.45c11.88 0 21.55-9.67 21.55-21.55s-9.67-21.54-21.55-21.54zM270.81 470.21c0 8.15-6.64 14.79-14.81 14.79s-14.81-6.63-14.81-14.79 6.64-14.79 14.81-14.79 14.81 6.64 14.81 14.79zM27 36.55c0-5.27 4.28-9.55 9.55-9.55h438.9c5.27 0 9.55 4.29 9.55 9.55s-4.28 9.55-9.55 9.55H36.55c-5.26 0-9.55-4.28-9.55-9.55zM60.23 58.1h391.54v308.31H60.23zm415.22 339.42H36.55c-5.27 0-9.55-4.28-9.55-9.55s4.28-9.55 9.55-9.55h438.9c5.27 0 9.55 4.29 9.55 9.55s-4.29 9.55-9.55 9.55zM178.33 113.91h-.02a6.005 6.005 0 0 0-5.98 6.52v58.04h-58.19c-.12-.01-.25-.01-.37-.01-3.31 0-6 2.7-6 6.01 0 38.91 31.65 70.56 70.56 70.56s70.56-31.65 70.56-70.56-31.66-70.56-70.56-70.56zm0 129.11c-30.26 0-55.23-23.07-58.25-52.56h58.25c3.31 0 6-2.69 6-6v-58.25c29.48 3.01 52.56 27.99 52.56 58.25 0 32.29-26.27 58.56-58.56 58.56zm-17.65-82.2V96.26c0-3.31-2.69-6-6-6h-.02c-38.88.01-70.52 31.66-70.54 70.56 0 3.31 2.69 6 6 6h64.56c3.32 0 6-2.69 6-6zm-12-6H96.43c2.81-27.5 24.75-49.44 52.25-52.25zm124.61-50.01c0-3.31 2.69-6 6-6h142.05c3.31 0 6 2.69 6 6s-2.69 6-6 6H279.29c-3.31 0-6-2.69-6-6zm0 35.64c0-3.31 2.69-6 6-6h142.05c3.31 0 6 2.69 6 6s-2.69 6-6 6H279.29c-3.31 0-6-2.68-6-6zm154.59 187.81c0 3.31-2.69 6-6 6H263.99c-3.31 0-6-2.69-6-6s2.69-6 6-6h22.33v-33.71c0-3.31 2.69-6 6-6s6 2.69 6 6v33.71h13.87v-70.75c0-3.31 2.69-6 6-6s6 2.69 6 6v70.75h13.87v-42.11c0-3.31 2.69-6 6-6s6 2.69 6 6v42.11h13.87v-60.98c0-3.31 2.69-6 6-6s6 2.69 6 6v60.98h13.87v-24.27c0-3.31 2.69-6 6-6s6 2.69 6 6v24.27h20.08c3.31 0 6 2.69 6 6zm-201.25-35.64c0 3.31-2.69 6-6 6H100.66c-3.31 0-6-2.69-6-6s2.69-6 6-6h119.97c3.32 0 6 2.68 6 6zm0 35.64c0 3.31-2.69 6-6 6H100.66c-3.31 0-6-2.69-6-6s2.69-6 6-6h119.97c3.32 0 6 2.69 6 6zm88.44-111.43-59.1 58.11a6.013 6.013 0 0 1-8.49-.07 6 6 0 0 1 .07-8.48l63.31-62.25c2.34-2.3 6.08-2.3 8.41 0l28.74 28.28 48.6-48.6h-14.86c-3.31 0-6-2.69-6-6s2.69-6 6-6h29.34c3.31 0 6 2.69 6 6v29.34c0 3.31-2.69 6-6 6s-6-2.69-6-6V192.3l-52.8 52.8a6 6 0 0 1-8.45.03z" fill="#b91001" opacity="1" data-original="#000000" class=""></path></g></svg>