<?xml version="1.0" encoding="UTF-8"?>
<svg id="Layer_1" xmlns="http://www.w3.org/2000/svg" xmlns:xlink="http://www.w3.org/1999/xlink" version="1.1" viewBox="0 0 1080 1080">
  <!-- Generator: Adobe Illustrator 29.0.1, SVG Export Plug-In . SVG Version: 2.1.0 Build 192)  -->
  <defs>
    <style>
      .st0, .st1, .st2, .st3, .st4, .st5 {
        fill: none;
      }

      .st6 {
        fill: #241f20;
        font-family: Montserrat-Medium, Montserrat;
        font-size: 7.31px;
        font-weight: 500;
      }

      .st7 {
        fill: #dc0000;
      }

      .st8 {
        stroke-width: 1.4px;
      }

      .st8, .st9, .st10, .st1, .st2, .st3, .st4, .st5 {
        stroke-miterlimit: 10;
      }

      .st8, .st9, .st10, .st1, .st3, .st4, .st5 {
        stroke-linecap: round;
      }

      .st8, .st9, .st10, .st2, .st3, .st4, .st5 {
        stroke: #1b2839;
      }

      .st8, .st9, .st10, .st11 {
        fill: #fff;
      }

      .st9, .st1, .st5 {
        stroke-width: .91px;
      }

      .st10 {
        stroke-width: .6px;
      }

      .st12 {
        fill: #e2e2e2;
      }

      .st1 {
        stroke: #fff;
      }

      .st2 {
        stroke-width: 1.55px;
      }

      .st13 {
        fill: #1d1d1b;
      }

      .st14 {
        fill: #141414;
      }

      .st15 {
        fill: #b2a99f;
      }

      .st16 {
        fill: #1b2839;
      }

      .st3 {
        stroke-width: .78px;
      }

      .st4 {
        stroke-width: .66px;
      }

      .st17 {
        fill: #72383d;
      }

      .st18 {
        font-family: InkFree, 'Ink Free';
        font-size: 10px;
      }

      .st19 {
        clip-path: url(#clippath);
      }
    </style>
    <clipPath id="clippath">
      <rect class="st0" x="82.69" y="315.59" width="914.62" height="780.87"/>
    </clipPath>
  </defs>
  <g>
    <path class="st12" d="M478.57,208.73s-39.15,0-53.48,51.57c-14.32,51.57-89.77,56.34-80.22,113.64,9.55,57.3,143.25,106,215.83-23.87,72.58-129.88-34.38-160.44-82.13-141.34Z"/>
    <path class="st12" d="M628.42,388.56c2.86,0,68.76-56.34,113.64-16.23,44.88,40.11-100.27,151.84-157.57,118.42-57.3-33.42,43.93-102.18,43.93-102.18Z"/>
  </g>
  <g>
    <g>
      <rect class="st9" x="405.37" y="244.63" width="302.65" height="292.91"/>
      <rect class="st16" x="382.12" y="233.7" width="350.72" height="18.33"/>
    </g>
    <g>
      <path d="M649.09,292.43c.52.63,1.11,1.22,1.74,1.74.12.1.32.13.44,0,1.81-2.04,3.65-4.08,5.27-6.27l-.57-.33c-1.69,3.03-3.37,6.08-5.08,9.1h.59c-.88-1.2-1.86-2.76-1.89-4.29-.01-.44-.7-.44-.69,0,.04,1.66,1.03,3.33,1.99,4.63.15.2.45.24.59,0,1.71-3.03,3.37-6.08,5.06-9.12.21-.38-.32-.66-.57-.33-1.58,2.15-3.39,4.16-5.15,6.16h.44c-.63-.52-1.27-1.05-1.83-1.65-.22-.24-.55.11-.35.35h0Z"/>
      <path d="M648.81,300.58c.52.63,1.11,1.22,1.74,1.74.12.1.32.13.44,0,1.81-2.04,3.65-4.08,5.27-6.27l-.57-.33c-1.69,3.03-3.37,6.08-5.08,9.1h.59c-.88-1.2-1.86-2.76-1.89-4.29-.01-.44-.7-.44-.69,0,.04,1.66,1.03,3.33,1.99,4.63.15.2.45.24.59,0,1.71-3.03,3.37-6.08,5.06-9.12.21-.38-.32-.66-.57-.33-1.58,2.15-3.39,4.16-5.15,6.16h.44c-.63-.52-1.27-1.05-1.83-1.65-.22-.24-.55.11-.35.35h0Z"/>
      <path d="M648.67,309.59c.52.63,1.11,1.22,1.74,1.74.12.1.32.13.44,0,1.81-2.04,3.65-4.08,5.27-6.27l-.57-.33c-1.69,3.03-3.37,6.08-5.08,9.1h.59c-.88-1.2-1.86-2.76-1.89-4.29-.01-.44-.7-.44-.69,0,.04,1.66,1.03,3.33,1.99,4.63.15.2.45.24.59,0,1.71-3.03,3.37-6.08,5.06-9.12.21-.38-.32-.66-.57-.33-1.58,2.15-3.39,4.16-5.15,6.16h.44c-.63-.52-1.27-1.05-1.83-1.65-.22-.24-.55.11-.35.35h0Z"/>
      <path d="M656.8,294.34c1.78-.21,3.5.09,5.28.12,1.56.03,3.03-.37,4.55-.63,1.74-.3,3.47-.21,5.23-.16s3.59.12,5.39.18c.4.01.4-.61,0-.63-1.8-.06-3.59-.12-5.39-.17-1.61-.05-3.23-.15-4.84.09-1.79.27-3.5.77-5.33.69-1.66-.07-3.32-.4-4.97,0-.28.07-.23.54.07.51h0Z"/>
      <path d="M656.82,303.8c3.4-.04,6.81-.3,10.21-.38s6.81,0,10.22-.04c.43,0,.43-.65,0-.67-3.4-.15-6.82-.06-10.22.03s-6.83.16-10.21.55c-.32.04-.34.52,0,.51h0Z"/>
      <path d="M656.67,312.36c6.86-.03,13.72-.26,20.58-.47.45-.01.46-.72,0-.71-6.86.16-13.73.32-20.58.66-.33.02-.34.52,0,.52h0Z"/>
      <path d="M640.31,284.8c-.5,11.53-.2,23.09.74,34.58.01.13.09.28.23.3,1.51.25,2.98.13,4.49,0,1.65-.14,3.31-.19,4.96-.26,3.37-.14,6.74-.25,10.11-.33,6.81-.17,13.62-.27,20.43-.37.19,0,.31-.15.33-.33.48-4.38.77-8.82.74-13.23-.03-5.11-.75-10.18-1.61-15.2-.22-1.27-.45-2.54-.68-3.81-.15-.8-.21-1.77-.88-2.34-1.27-1.09-3.84-.57-5.34-.55-5.45.06-10.9.13-16.35.2-5.83.07-11.7-.02-17.49.86-.41.06-.24.69.17.62,4.91-.75,9.88-.75,14.84-.81s9.91-.11,14.86-.16c2.41-.03,4.85-.18,7.26-.08.73.03,1.24.07,1.7.66.39.5.44.94.55,1.54.23,1.27.46,2.54.68,3.81.85,4.89,1.56,9.82,1.63,14.78.07,4.57-.25,9.17-.74,13.71l.33-.33c-9.54.17-19.09.23-28.63.61-2.29.09-4.59.15-6.87.36-1.03.1-2.22.33-3.26.17s-.89-.5-.95-1.3c-.05-.66-.1-1.31-.15-1.97-.34-4.85-.57-9.71-.67-14.57-.11-5.52-.07-11.04.09-16.56,0-.34-.51-.34-.52,0h0Z"/>
      <path d="M643.16,287.78c-.33.43-.38,1.05-.03,1.49.3.38.89.53,1.31.27s.63-.85.58-1.34c-.05-.51-.37-1-.92-1.04-.25-.02-.51.08-.7.26s-.32.52-.15.75c.13.18.4.16.47-.06,0-.03.02-.06.02-.09,0,0,.02-.05.01-.05,0,.01-.03.06,0,.02,0-.02.04-.06.04-.08,0,.03-.04.05,0,0,.01-.01.03-.02.04-.04.05-.04-.05.03-.01.01.01,0,.03-.02.04-.03.01,0,.03-.01.04-.02.04-.02-.08.03-.02,0,.03-.01.06-.02.09-.03.02,0,.03,0,.05-.01.03,0,.01,0-.04,0,.01,0,.03,0,.04,0,.03,0,.07,0,.1,0,0,0-.08-.02-.03,0,.02,0,.04.01.06.01.03,0,.02.02-.02-.01.01.01.04.02.05.03.01,0,.02.02.04.02.05.03-.04-.04.02.01.01.01.03.03.04.04,0,0,.04.06.02.02-.03-.04.01.02.01.02.01.02.02.03.03.05,0,.02.02.03.03.05-.01-.06-.01-.03,0-.01.01.05.03.09.04.14,0,.02.01.05.01.07,0,0,0-.07,0-.01,0,.04,0,.08,0,.12s0,.08,0,.12c0-.08,0,0,0,.01,0,.02,0,.05-.02.07,0,.04-.02.08-.03.12,0,.02-.01.03-.02.05-.03.08.03-.05-.01.02-.02.04-.04.08-.06.11,0,.01-.02.03-.03.04.04-.05-.03.03-.04.04-.01.01-.02.02-.04.04-.06.05.05-.02-.02.01-.01,0-.03.02-.05.03-.06.04.06-.01-.01,0-.01,0-.03,0-.04.01,0,0-.08.02-.03,0s-.02,0-.03,0c-.02,0-.04,0-.07,0-.07,0,.06.02-.01,0-.01,0-.03,0-.04,0-.02,0-.04-.01-.07-.02-.05-.02,0,0,0,0-.03-.02-.07-.03-.1-.05-.01,0-.07-.05-.02,0-.02-.01-.04-.03-.05-.05-.01-.01-.03-.03-.04-.04-.05-.05,0,.03-.02-.02,0-.01-.02-.03-.02-.04,0-.01-.05-.1-.03-.05-.02-.04-.03-.09-.04-.14,0-.02,0-.04-.01-.06,0,.06,0-.02,0-.03,0-.05,0-.11,0-.16,0,0,.01-.08,0-.04,0,.02,0,.01,0-.02,0-.02,0-.04.01-.05.03-.12.05-.16.1-.26.07-.11.03-.27-.09-.33-.13-.07-.26-.02-.33.09h0Z"/>
      <path d="M643.36,294.66c-.32.27-.21.79,0,1.09.12.18.28.33.49.39.25.08.53.02.75-.1.43-.24.67-.73.62-1.22-.06-.51-.4-.96-.94-1-.26-.02-.54.08-.73.25s-.29.46-.24.72c.04.24.44.24.49,0,0-.03.02-.07.03-.1s-.03.05,0,0c0-.01.02-.03.02-.04.02-.03-.05.05,0,.01.01-.01.03-.03.04-.04,0,0,.02-.02.03-.03s.06-.07.03-.03c-.03.04,0,0,.02,0,.02-.01.03-.02.05-.03.02-.01.07-.03.09-.05-.03.03-.06.02-.02.01.02,0,.04-.01.06-.02.01,0,.03,0,.04,0,.09-.02-.05,0,.01,0,.02,0,.08,0,.1,0-.03.01-.07-.01-.03,0,.02,0,.04,0,.06.01.01,0,.06.03.02,0-.05-.03,0,0,.02,0,.02,0,.03.02.05.03,0,0,.02.01.03.02.03.02.02.02-.01-.01,0,0,.07.07.08.07v.02s.03.02,0-.01c0,0,.02.04.02.04.02.03.04.06.05.09.03.07-.02-.07,0,0,0,.02.02.04.02.06.01.03.02.07.03.11v.02s0,.03,0-.02c0,0,0,.04,0,.04,0,.04,0,.08,0,.12h0s0,.04,0,0c0,.02,0,.05-.01.06,0,.04-.02.08-.04.12-.01.04.03-.06,0,0-.01.02-.02.04-.03.05s-.02.03-.03.05c0,0-.06.07-.01.02-.03.04-.06.07-.1.1-.01.01-.02.02-.04.03.05-.04-.01,0-.02.01-.03.02-.07.04-.1.06.05-.03.02,0,0,0-.02,0-.04.01-.07.02-.02,0-.03,0-.05,0,.07-.02-.02,0-.04,0-.02,0-.03,0-.05,0,.07,0,0,0-.02,0-.01,0-.03,0-.04-.01-.05-.01,0-.01.01,0,0,0-.07-.04-.08-.04-.05-.03.04.04,0,0-.01-.01-.03-.03-.04-.04-.01-.01-.02-.02-.03-.03s-.05-.07-.01-.01c-.02-.03-.05-.07-.07-.1s-.04-.07-.05-.11c.02.05,0,.02,0,0,0-.02-.02-.05-.02-.07,0-.01,0-.02,0-.04,0-.01,0-.02,0-.04,0,.04,0,.04,0,.01,0-.03,0-.07,0-.1,0,.01-.02.05,0,.01,0,0,.02-.07,0-.03-.02.04,0-.01,0-.01.01-.02.01-.02,0,0,0,0,.01-.02.02-.02.09-.09.09-.24,0-.32-.09-.09-.23-.08-.32,0h0Z"/>
      <path d="M643.13,301.98c.12.42.52.67.94.72s.84-.16,1.03-.53.18-.84-.04-1.2c-.25-.4-.72-.59-1.18-.48-.23.06-.47.19-.62.38-.18.22-.32.51-.23.79.04.11.14.21.27.2.13,0,.22-.08.27-.2,0,0-.03.06-.01.03,0,0,0-.01.01-.02.02-.03.03-.07.04-.1,0-.02.01-.04.02-.06.02-.06-.03.05,0,0,.02-.03.03-.06.05-.09.01-.02.02-.03.03-.05.04-.06-.04.04,0,0,.02-.03.05-.05.07-.08.01-.01.03-.03.04-.04,0,0,.01-.01.02-.02.03-.03-.02.02-.03.02.03-.01.06-.04.09-.06.02,0,.03-.02.05-.03.01,0,.02-.01.03-.02.04-.02-.02.01-.03.01.03,0,.07-.02.1-.03.02,0,.03,0,.05-.01.01,0,.02,0,.03,0,0,0-.08,0-.04,0,.03,0,.07,0,.1,0,.02,0,.03,0,.05,0,.01,0,.05,0-.01,0-.06,0,0,0,0,0,.03,0,.07.03.1.03,0,0-.07-.03-.04-.02,0,0,.01,0,.02.01.02,0,.04.02.06.03.01,0,.03.02.04.03,0,0-.06-.05-.03-.03,0,0,.01.01.02.02.03.02.05.05.07.07,0,0,.01.02.02.02.02.02-.03-.04-.03-.03,0,.01.02.03.03.04.02.03.04.06.05.09.03.06-.02-.06,0,0,0,.02.01.03.02.05.01.03.02.07.03.1,0,.02,0,.04.01.06,0,0,0-.08,0-.04,0,0,0,.02,0,.02,0,.04,0,.07,0,.11,0,.02,0,.03,0,.05,0,.07.01-.06,0-.01,0,.03-.01.07-.02.1,0,.02-.01.03-.02.05,0,.03.02-.04.02-.04,0,0,0,.02-.01.03-.02.03-.03.06-.05.09,0,0-.01.01-.01.02,0,0,.04-.05.02-.03-.01.01-.03.03-.04.04-.01.01-.02.02-.04.03-.03.03.06-.04,0,0-.03.02-.05.03-.08.05,0,0-.02,0-.03.01-.03.01.04-.01.03-.01-.02,0-.04.01-.05.02-.03,0-.06.02-.09.02-.06.01.06,0,0,0-.02,0-.04,0-.06,0-.04,0-.08,0-.11,0-.02,0-.09,0-.03,0s-.01,0-.03,0c-.04,0-.07-.02-.11-.03-.01,0-.02,0-.03-.01-.04-.01.01,0,.02,0-.01-.01-.04-.02-.05-.02-.03-.02-.07-.04-.1-.06-.05-.03.03.03,0,0-.01-.01-.03-.03-.04-.04-.03-.03-.05-.05-.08-.08-.03-.04.01.01,0,.01,0,0-.02-.02-.02-.03-.01-.02-.02-.04-.03-.06-.13-.24-.51-.08-.43.18h0Z"/>
      <path d="M643.69,308.15s.02-.07.03-.11c0-.03,0,.02,0,.02,0,0,0-.02.01-.03,0-.02.02-.03.03-.05,0,0,.03-.05.03-.05,0,0-.03.04-.02.02,0,0,.01-.01.02-.02.03-.03.05-.06.08-.09.01-.01.03-.02.04-.03.04-.04-.03.02,0,0,.03-.02.07-.04.1-.06.03-.02.07-.03.1-.05.03-.01-.03.01-.03.01,0,0,.03-.01.03-.01.02,0,.04-.01.06-.02.04-.01.07-.02.11-.02.05,0-.06,0,0,0,.02,0,.04,0,.06,0s.04,0,.06,0c0,0,.02,0,.03,0,.05,0-.02,0-.02,0,.03.01.08.01.11.03.01,0,.04.02.05.02-.02,0-.05-.02-.02,0,0,0,.02,0,.02.01.02,0,.03.02.05.03.01,0,.06.04.03.02s.01.01.02.02c.01.01.02.02.03.03,0,0,.05.06.02.02s0,.01.02.02c.02.03.03.07.05.1,0,0-.02-.06-.01-.03,0,0,0,.02,0,.02,0,.02.01.04.02.06,0,.03.01.07.02.1,0,.03,0-.04,0-.03,0,0,0,.02,0,.02,0,.02,0,.04,0,.07,0,.04,0,.07,0,.11,0,.05.01-.07,0,0,0,.02,0,.04-.01.06,0,.03-.02.07-.03.1,0,.01,0,.02-.01.03,0,.03.01-.03.01-.03-.01.02-.02.04-.03.06-.02.03-.04.06-.05.09,0,0-.01.01-.01.02,0,0,.04-.04.02-.03-.02.01-.03.03-.04.05-.01.01-.02.02-.04.03-.03.02.05-.04.02-.02,0,0-.01,0-.02.01-.03.02-.07.04-.1.06-.04.02.07-.02,0,0-.02,0-.03.01-.05.02s-.05,0-.06.01c0,0,.07,0,.04,0-.01,0-.02,0-.04,0-.04,0-.08,0-.13,0-.03,0,.04,0,.04,0,0,0-.02,0-.03,0-.02,0-.05-.01-.07-.02-.02,0-.04-.01-.06-.02,0,0-.02-.01-.03-.01.01,0,.06.03.03,0-.04-.02-.08-.04-.12-.07-.02-.01-.04-.03-.06-.04-.03-.02.03.02.03.02,0-.01-.03-.02-.04-.03-.03-.03-.07-.06-.1-.1,0,0-.01-.01-.02-.02-.03-.03,0-.03,0,.01,0-.02-.03-.04-.04-.05,0,0-.06-.12-.07-.12,0,0,.02.06,0,.02,0-.01,0-.02-.01-.03,0-.02-.01-.05-.02-.07,0-.02,0-.04-.01-.06,0,0,0-.05,0,0,0,.04,0-.01,0-.02,0-.13-.09-.23-.22-.25-.12-.02-.25.06-.28.18-.12.53.23,1.01.7,1.21.22.09.47.11.69.05.24-.06.42-.22.56-.41.26-.35.28-.83.11-1.22-.08-.19-.24-.36-.43-.45-.22-.11-.45-.14-.69-.1s-.46.15-.64.32c-.19.18-.29.41-.3.67s.39.32.45.06h0Z"/>
      <path d="M643.55,314.45s0-.01.01-.02c.02-.03-.03.03,0,0,.01-.01.02-.02.03-.03.01-.01.03-.03.04-.04,0,0,.01,0,.02-.01.02-.02-.04.02-.01,0,.03-.02.05-.04.08-.05,0,0,.02,0,.03-.01.02-.01,0,0,0,0,0,0-.02,0,0,0,.01,0,.02,0,.04-.01.03,0,.06-.02.1-.02,0,0,.02,0,.02,0,.03,0-.03,0-.03,0,.01,0,.05,0,.06,0,.03,0,.07,0,.1,0,.02,0,.07.02,0,0,.02,0,.04,0,.05,0,.03,0,.07.02.1.03.02,0,.03.01.05.02,0,0,.01,0,.02,0,.03.01-.01,0-.02,0,.02.02.07.03.09.05.01,0,.03.02.04.03.02.01.01.02-.02-.01,0,0,.02.01.02.02.02.02.04.05.07.07.02.02-.02-.03-.02-.03,0,0,.01.02.02.02.01.01.02.03.03.05,0,.01.01.04.03.05,0,0-.02-.05-.01-.03,0,0,0,.02,0,.02.01.04.01.08.03.11-.02-.07,0-.03,0,0,0,.02,0,.04,0,.06,0,.02,0,.03,0,.05,0,0,0,.04,0,0,0-.05,0,0,0,.01,0,.03-.02.07-.03.1,0,.01-.02.06,0,.02s-.01.02-.02.03c-.02.03-.04.06-.06.09,0,0-.01.01-.01.02-.02.03.04-.05.01-.02-.01.01-.02.03-.04.04-.02.03-.05.05-.08.07-.05.05.04-.03,0,0-.02.01-.04.02-.05.04-.01,0-.03.02-.04.02,0,0-.01,0-.02.01-.03.02.06-.02.03-.01s-.07.02-.11.03c0,0-.02,0-.02,0,0,0,.07,0,.04,0-.02,0-.04,0-.06,0-.02,0-.03,0-.05,0-.01,0-.02,0-.03,0,0,0,.08.01.03,0-.03,0-.07-.02-.1-.03-.06-.02.05.03,0,0-.02,0-.03-.02-.05-.03s-.03-.02-.05-.03c-.04-.03.06.05,0,0-.03-.03-.06-.05-.08-.08-.01-.01-.02-.03-.04-.04-.03-.04.02.02.02.03,0,0-.01-.02-.02-.03-.02-.03-.04-.07-.06-.11,0,0,0-.02-.01-.03-.02-.03.03.07.01.03,0-.02-.02-.04-.02-.06-.01-.04-.02-.08-.03-.12,0-.03,0-.09,0,0,0-.02,0-.04,0-.06,0-.04,0-.08,0-.12,0-.02,0-.04,0-.06,0,0-.01.07,0,.04,0-.01,0-.03,0-.04,0-.04.02-.08.03-.12.03-.11-.02-.25-.12-.3s-.23-.04-.32.04c-.36.32-.27.9,0,1.25.14.19.33.34.56.41s.48.04.7-.06c.39-.17.65-.61.65-1.03s-.3-.83-.73-.93-.94.04-1.18.44c-.06.1-.03.25.08.31.11.06.24.02.31-.08h0Z"/>
    </g>
    <g>
      <path class="st13" d="M473.98,339.98c.46,1.83,1.13,3.64,1.69,5.44.92,2.94,1.84,5.87,2.75,8.81.26.85.55,1.71.78,2.57.04.13.2.24.34.19,3.83-1.44,7.06-4.04,9.27-7.48.06-.1.05-.26-.04-.33-1.63-1.37-3.54-2.47-5.31-3.63-2.44-1.61-4.89-3.2-7.34-4.78-.57-.36-1.12-.78-1.72-1.1-.31-.17-.59.31-.28.48,1.54.84,2.99,1.92,4.46,2.87,2.49,1.62,4.98,3.23,7.44,4.89.79.53,1.63,1.04,2.36,1.66l-.04-.33c-2.12,3.32-5.25,5.85-8.94,7.23l.34.19c-1.31-4.96-3.04-9.84-4.57-14.73-.22-.69-.47-1.39-.65-2.09-.09-.34-.62-.2-.53.15Z"/>
      <path class="st13" d="M474.85,338.92c4.72,3.23,9.66,6.17,14.43,9.33.13.09.3.02.38-.1,2.12-3.22,2.49-7.41,2.11-11.16-.33-3.27-1.23-7.07-3.63-9.48-.08-.08-.24-.11-.33-.04-2.42,1.72-4.62,3.82-6.87,5.75-1.38,1.18-2.76,2.37-4.14,3.56-.58.5-1.46,1.34-1.95,1.67-.29.2-.02.67.28.48.63-.43,1.19-1.01,1.77-1.51,1.37-1.18,2.74-2.36,4.11-3.53,2.32-1.99,4.59-4.17,7.08-5.94l-.33-.04c2.35,2.36,3.2,6.15,3.49,9.36.32,3.58-.04,7.54-2.06,10.61l.38-.1c-4.78-3.15-9.71-6.09-14.43-9.33-.29-.2-.57.28-.28.48Z"/>
      <path class="st13" d="M473.31,337.97c-.11-5.37.08-10.75-.17-16.12,0-.15-.12-.28-.28-.28-7.53.07-14.26,4.7-16.63,11.91-.05.14.05.3.19.34,5.48,1.57,11.01,3,16.54,4.41.34.09.49-.44.15-.53-5.53-1.41-11.05-2.84-16.54-4.41l.19.34c2.29-6.98,8.82-11.44,16.1-11.51l-.28-.28c.26,5.37.07,10.75.17,16.12,0,.35.56.36.55,0Z"/>
      <path class="st13" d="M478.16,356.49c-.82-3.27-1.86-6.46-2.86-9.68-.49-1.57-.98-3.14-1.48-4.71-.27-.85-.62-1.71-.8-2.59-.02-.09-.11-.17-.19-.19-2.7-.84-5.49-1.45-8.22-2.19s-5.72-1.81-8.63-2.29c-.14-.02-.3.04-.34.19-1.7,6.58.57,14.03,5.58,18.62,4.59,4.21,10.93,5.24,16.74,3.17.33-.12.19-.65-.15-.53-5.63,2-11.75,1.05-16.2-3.03-4.87-4.46-7.1-11.68-5.44-18.09l-.34.19c1.85.3,3.67.94,5.48,1.43,2.74.75,5.49,1.49,8.23,2.22.84.22,1.75.37,2.57.67.26.09.29.04.43.22s.13.41.21.66c.76,2.34,1.48,4.69,2.22,7.04.94,3,1.89,5.97,2.66,9.01.09.34.62.2.53-.15Z"/>
      <path class="st13" d="M474.17,338.06c.41-.07.93-.71,1.22-.96.95-.82,1.88-1.65,2.81-2.49,2.25-2.01,4.49-4.03,6.74-6.04.71-.63,1.4-1.28,2.14-1.87.11-.09.1-.3,0-.39-3.52-3.27-8.12-5-12.92-4.77-.14,0-.28.12-.28.28.12,3.08.07,6.17.04,9.26-.02,2.23.02,4.49-.11,6.72-.02.35.53.35.55,0,.13-2.23.09-4.48.11-6.72.03-3.08.08-6.18-.04-9.26l-.28.28c4.66-.22,9.12,1.44,12.53,4.61v-.39c-1.64,1.31-3.17,2.79-4.73,4.19-2.13,1.91-4.24,3.83-6.39,5.71-.36.32-.73.64-1.1.95-.11.09-.46.37-.46.37-.35.06-.2.59.15.53Z"/>
    </g>
    <g>
      <g>
        <g>
          <path d="M456.8,293.08c.25-.42.53-.82.82-1.21.12-.15.23-.3.34-.45.06-.08.11-.15.16-.23.01-.02.03-.04.04-.06.02-.02,0,.01.02-.02.05-.05.08-.12.11-.18.17-.31-.29-.59-.48-.28-.03.05-.07.1-.09.16,0,0-.04.09-.02.05-.01.02-.03.05-.04.07-.05.08-.1.15-.15.22-.11.16-.23.31-.34.47-.29.39-.54.81-.77,1.24-.13.25.23.46.37.22h0Z"/>
          <path d="M458.08,290.54c-3.75-.31-7.56-1.57-9.39-5.11-1.06-2.05-1.4-4.95.52-6.61s4.78-2.28,7.21-2.58c2.22-.27,4.49-.31,6.73-.22,2.36.1,4.88.46,6.88,1.82,1.85,1.26,3.33,3.38,3.1,5.71-.21,2.17-1.86,3.83-3.65,4.88-4.01,2.36-9.09,1.76-13.02,4.29-.32.21-.04.7.3.51,4.45-2.44,10.03-1.83,14.14-4.98,1.61-1.23,2.83-2.98,2.89-5.06s-1.18-4.11-2.79-5.42c-1.91-1.54-4.36-2.12-6.76-2.32-2.74-.23-5.61-.17-8.33.22-2.43.35-5.24,1.04-7.14,2.7-1.67,1.45-1.86,3.86-1.24,5.88,1.45,4.74,6.02,6.47,10.55,6.75.3.02.3-.44,0-.46h0Z"/>
        </g>
        <path d="M452.92,279.72c2.49-.09,4.97-.39,7.47-.44s5,.01,7.49.18c.31.02.31-.46,0-.48-2.54-.17-5.09-.23-7.63-.18s-4.97.1-7.38.54c-.21.04-.16.39.05.38h0Z"/>
        <path d="M452.75,281.89c2.5.1,5.05-.15,7.55-.22s5.04-.06,7.55-.1c.31,0,.31-.48,0-.48-2.51-.06-5.04.02-7.55.1s-5.07.02-7.55.31c-.25.03-.26.39,0,.4h0Z"/>
        <path d="M452.52,284.1c1.19.17,2.45.05,3.64.04,1.3-.01,2.6-.04,3.89-.07,2.59-.06,5.19-.14,7.78-.25.33-.01.33-.53,0-.52-2.59.1-5.19.19-7.78.25-1.3.03-2.6.06-3.89.08-1.2.02-2.46-.07-3.64.11-.17.03-.18.33,0,.35h0Z"/>
        <path d="M452.95,286.47c2.5.09,5.05-.16,7.55-.25s5.04-.17,7.55-.31c.31-.02.31-.49,0-.48-2.52.06-5.04.19-7.55.3s-5.06.07-7.55.35c-.24.03-.25.38,0,.39h0Z"/>
      </g>
      <g>
        <path d="M438.69,301.12c-.22-.44-.48-.85-.77-1.24-.11-.15-.22-.3-.33-.46-.05-.08-.11-.15-.15-.23-.01-.02-.02-.04-.03-.06-.01-.02,0,.02,0-.02-.03-.07-.07-.13-.1-.19-.18-.31-.65-.03-.48.28.1.18.2.3.33.47.11.16.23.31.35.46.3.39.58.79.82,1.21.14.24.5.03.37-.22h0Z"/>
        <path d="M437.04,299.26c4.06-.25,8.05-1.54,10-5.4.9-1.78,1.3-4.14.33-5.98-1.1-2.08-3.91-3.02-6.04-3.55-2.69-.67-5.5-.75-8.26-.72-2.6.03-5.35.27-7.67,1.55-3.72,2.06-5.48,6.73-2.45,10.17,3.91,4.43,10.56,3.48,15.41,6.15.34.18.62-.31.3-.51-3.48-2.24-7.89-1.97-11.62-3.58-1.82-.78-3.63-2.01-4.53-3.82-1.09-2.2-.36-4.64,1.26-6.35,3.24-3.42,8.87-3.16,13.2-2.88,2.51.16,5.05.6,7.33,1.73.99.49,2,1.12,2.53,2.13.62,1.18.56,2.72.21,3.96-1.24,4.53-5.73,6.28-10,6.63-.29.02-.3.48,0,.46h0Z"/>
      </g>
    </g>
    <g>
      <path class="st13" d="M508.43,308.41c-.27-1.52-.48-3.04-.51-4.59-.02-1.03.06-2.04-.02-3.06-.05-.74-.25-1.61-.1-2.35.23-1.18,1.58-1.81,2.63-2.09.46-.12.97-.26,1.07.47.02.17-.03.38-.05.56-.04.46-.09.91-.13,1.37-.09.94-.18,1.88-.27,2.82-.17,1.79-.34,3.57-.53,5.35-.04.34-.07.67-.11,1.01-.02.13-.11.42-.07.55.06.19-.01-.13.12-.05-.1-.06-.4-.01-.52-.02-.53-.03-1.06-.07-1.6-.09-.29,0-.29.44,0,.45.53.01,1.06.06,1.6.09.23.01.62.11.78-.1.18-.23.14-.81.17-1.08.23-2.01.42-4.02.61-6.03.11-1.11.21-2.22.31-3.33.07-.75.5-2.2-.52-2.46-.93-.24-2.3.5-2.98,1.07-.78.65-.98,1.43-.93,2.4.06,1.16.14,2.29.11,3.45-.05,1.92.11,3.9.59,5.77.06.24.41.14.37-.1h0Z"/>
      <path class="st13" d="M508.6,310.09c-.56.34-.84,1.02-.7,1.66s.75,1.12,1.4,1.2,1.28-.24,1.59-.83.22-1.25-.2-1.75c-.49-.58-1.44-.75-2.07-.28-.17.12-.08.41.15.35.29-.07.56-.17.87-.14.21.02.42.11.58.24.36.3.5.76.35,1.2s-.55.78-1.03.79-.98-.25-1.17-.7c-.2-.49-.01-1.12.41-1.42.19-.13.02-.44-.18-.31h0Z"/>
    </g>
    <g>
      <path class="st13" d="M571.41,325.32c-.03-1.64,0-3.3-.32-4.94-.04-.22-.38-.25-.44-.03-.44,1.58-.52,3.23-.66,4.86-.08.91,1.44,1.04,1.42.11Z"/>
      <path class="st13" d="M583.79,326.5c-1.74.53-3.35,1.82-4.52,3.03-.56.58.5,1.41,1.04.82,1.15-1.24,2.78-2.09,3.84-3.39.17-.21-.04-.56-.36-.47Z"/>
      <path class="st13" d="M575.7,334.41c-2.24-2-5.75-2.66-8.64-1.87-2.94.81-5.04,3.14-5.66,5.79-.35,1.52-.23,3.22.42,4.72.39.89.97,1.72,1.41,2.6.47.94.89,1.9,1.3,2.86-.04.02-.07.05-.1.09-.35.48-.26,1.17-.3,1.74-.05.66-.09,1.33-.13,1.99,0,.14-.03.31-.06.48,0,0,0,0,0,0-.1.03-.09.14-.02.19-.11.79-.24,1.77.29,2.31.01.01.03.02.04.03-.11.07-.15.22-.03.34.74.7,1.48,1.5,2.36,2.08.46.31.87.41,1.41.29.72-.16,1.42-.52,2.01-.91.54-.36,1.34-.85,1.31-1.52,0-.1-.15-.19-.25-.15-.54.2-.84.7-1.29,1.02-.53.38-1.12.75-1.77.95-.64.2-1.01-.03-1.51-.43-.52-.41-1-.86-1.51-1.28.7.2,1.6.16,2.19.17,1.3,0,2.57-.17,3.8-.49.12-.03.22-.13.24-.25.35-1.96.7-3.91,1.05-5.87,0-.01,0-.03,0-.05.04,0,.09-.02.13-.05.57-.42.93-.97,1.36-1.5.56-.68,1.22-1.28,1.8-1.95.99-1.16,1.75-2.48,2.14-3.91.68-2.51.2-5.45-2-7.41ZM564.95,351.21c0-.12.03-.26.04-.39,1.08-.29,2.16-.58,3.26-.84.92-.21,1.91-.35,2.84-.57l.43.06c-.07.35-.14.71-.2,1.06-1.2.12-2.43.67-3.54,1.03-.98.32-1.96.64-2.94.96.03-.43.07-.87.1-1.3ZM564.74,354.05c.02-.42.05-.84.08-1.25,1.04-.28,2.07-.59,3.1-.92,1.07-.34,2.33-.58,3.34-1.05-.11.55-.21,1.09-.32,1.64-1.08.16-2.11.56-3.12.89-1.02.33-2.05.66-3.07.97,0-.09-.01-.18,0-.27ZM567.67,355.16c-.54.01-1.09,0-1.64-.06-.19-.02-.63-.02-.8-.11-.22-.11-.35-.25-.42-.42,1.06-.27,2.1-.59,3.15-.91.97-.3,2-.54,2.93-.91-.13.68-.26,1.36-.39,2.04-.92.21-1.86.34-2.83.36ZM574.79,345.47c-.97,1.07-2.22,2.08-2.83,3.38-.01.02-.02.04-.02.07-.63-.08-1.27-.15-1.9-.23.04-.73.1-1.4.44-2.08.37-.74.89-1.41,1.4-2.08.88-1.13,1.91-2.31,2.22-3.71.11-.48.13-1.04-.29-1.44-.44-.42-1.19-.44-1.74-.27-.18.06-.35.13-.5.23-.33-.39-.84-.68-1.49-.71-.54-.03-.99.09-1.33.31-.92-.64-2.19-.17-2.78.58-.87,1.08-.31,2.56.02,3.76.47,1.69.5,3.29.41,4.95-.13-.02-.26-.03-.38-.03-.25,0-.41.1-.69.11-.1,0-.09.12,0,.14.22.07.38.21.59.27.14.04.3.06.45.07,0,.09-.01.19-.02.29-.02.24.35.32.41.08.03-.11.05-.21.07-.32.53.07,1.06.14,1.59.21.5.07,1.01.13,1.51.2-.56.13-1.12.28-1.65.4-1.09.26-2.18.55-3.25.9.1-.66.2-1.39-.08-1.93-.04-.08-.1-.12-.17-.15-.32-1.45-.92-2.83-1.67-4.17-.72-1.28-1.2-2.48-1.28-3.9-.14-2.7,1.33-5.37,3.9-6.73,2.59-1.37,6.19-1.18,8.72.5,2.46,1.63,3.19,4.41,2.68,6.9-.33,1.63-1.19,3.12-2.34,4.38ZM569.58,348.63c-.35-.04-.7-.08-1.05-.12-.52-.06-1.05-.12-1.57-.19,0,0-.02,0-.03,0,.28-1.9-.09-3.9-.62-5.78-.33-1.19-.6-2.84.97-3.35.41-.13.78-.08,1.07.1-.62.74-.55,1.93.34,2.73.11.1.35.07.41-.06.32-.79.62-1.88.01-2.66.22-.12.48-.2.8-.2.56,0,.99.22,1.25.55-.56.54-.77,1.35-.47,2.09.06.15.26.2.4.13.86-.47,1.05-1.35.73-2.08.74-.46,1.91-.33,1.76.75-.17,1.16-1.02,2.22-1.74,3.14-1,1.27-2.87,3.2-2.27,4.96ZM568.72,339.64c.11.16.18.36.21.57.04.39-.04.78-.16,1.15-.39-.56-.4-1.25-.04-1.72ZM571.42,340.15c.09.38,0,.78-.32,1.09-.05-.39.07-.77.32-1.09Z"/>
      <path class="st13" d="M557.19,343.92c-1.12-.18-2.16-.05-3.23.2-.57.13-1.14.27-1.72.4-.49.11-1.08.12-1.48.38-.18.12-.15.35.04.46.8.44,2.11,0,2.92-.19,1.12-.27,2.24-.56,3.43-.48.5.04.52-.7.03-.78Z"/>
      <path class="st13" d="M555.38,338.36c.6.13.76-.71.16-.82-1.68-.3-3.4-.39-5.09-.34-.15,0-.17.22-.01.24,1.66.23,3.3.56,4.94.91Z"/>
      <path class="st13" d="M559.79,327.39c-2.4-1.39-4.78-2.82-7.13-4.3-.1-.06-.21.05-.12.12,2.16,1.72,4.4,3.32,6.77,4.81.53.33,1.03-.31.47-.63Z"/>
      <path class="st13" d="M583.02,336.85c.84-.17,1.69-.28,2.54-.41.73-.11,1.52-.13,2.22-.36.2-.06.26-.37.02-.45-1.64-.57-3.62-.23-5.24.07-.83.16-.36,1.31.47,1.14Z"/>
      <path class="st13" d="M586.15,350.87c-1.36-1.56-3.33-2.62-5.22-3.59-.55-.28-.95.47-.41.75,1.84.97,3.48,2.21,5.34,3.14.21.1.44-.13.29-.3Z"/>
      <path class="st13" d="M582.9,341.43c-.51-.14-.65.58-.14.71.78.21,1.55.43,2.31.67.68.21,1.35.52,2.06.5.18,0,.23-.2.11-.3-.51-.46-1.22-.62-1.88-.84-.82-.26-1.64-.51-2.46-.74Z"/>
    </g>
    <g>
      <g>
        <g>
          <path class="st13" d="M551.56,467.85c9.02.3,18.1.05,27.13.05s18.09.08,27.13-.03c.22,0,.22-.34,0-.35-9.04-.11-18.09-.03-27.13-.03s-18.1-.25-27.13.05c-.2,0-.2.3,0,.3h0Z"/>
          <path class="st13" d="M603.75,466.83c.92.41,1.85.81,2.78,1.21v-.33c-.87.52-1.84.83-2.85.9l.19.25c.1-.41.17-.83.2-1.25s.06-.86-.06-1.25c-.05-.19-.31-.14-.33.04-.03.39.02.79-.01,1.18s-.09.78-.19,1.17c-.03.12.06.26.19.25,1.08-.08,2.12-.41,3.04-.96.11-.07.14-.27,0-.33-.94-.4-1.89-.81-2.84-1.2-.19-.08-.32.25-.14.33h0Z"/>
        </g>
        <g>
          <path class="st13" d="M551.16,438.27c-.11,4.9-.02,9.81-.01,14.72s-.16,9.82.03,14.72c0,.22.33.22.34,0,.19-4.89.02-9.82.02-14.72s.09-9.82-.03-14.72c0-.22-.34-.22-.34,0h0Z"/>
          <path class="st13" d="M551.22,435.4c-.63,1.07-1.22,2.16-1.83,3.25-.09.16.09.36.26.26.77-.46,1.78-.48,2.64-.34.14.02.3-.09.25-.25-.3-.98-.59-1.99-1.01-2.93-.09-.2-.43-.06-.35.15.36.95.67,1.92.97,2.89l.25-.25c-.97-.15-2.08-.12-2.94.4l.26.26c.6-1.09,1.22-2.17,1.79-3.27.1-.19-.18-.36-.29-.17h0Z"/>
        </g>
      </g>
      <g>
        <path class="st13" d="M559.2,467.22h-2.82l.26.26c-.08-7.52-.15-15.03-.23-22.55-.01-1.06-.02-2.11-.03-3.17l-.26.26,2.93.11-.26-.26c.04,7.47.09,14.94.13,22.41,0,1.06.01,2.13.02,3.19,0,.34.52.34.52,0-.04-7.47-.09-14.94-.13-22.41,0-1.06-.01-2.13-.02-3.19,0-.14-.12-.26-.26-.26l-2.93-.11c-.14,0-.26.12-.26.26.08,7.52.15,15.03.23,22.55.01,1.06.02,2.11.03,3.17,0,.14.12.26.26.26h2.82c.34,0,.34-.52,0-.52Z"/>
        <g>
          <path class="st13" d="M562.47,467.22h-3.26l.26.26v-21.7l-.26.26h3.64l-.26-.26c-.11,6.32-.22,12.65-.33,18.97-.02.91-.03,1.82-.05,2.73,0,.34.52.34.52,0,.11-6.32.22-12.65.33-18.97.02-.91.03-1.82.05-2.73,0-.14-.12-.26-.26-.26h-3.64c-.14,0-.26.12-.26.26v21.7c0,.14.12.26.26.26h3.26c.34,0,.34-.52,0-.52Z"/>
          <path class="st13" d="M559.42,447.34c.43-.36.87-.71,1.32-1.04.1-.08.21-.17.32-.24.06-.03.13-.02.2-.03.1-.03.24-.09.32-.17.02-.02.04-.06.03-.1h0c-.02-.05-.07-.08-.12-.07,0,0,0,0,0,0-.12.05-.08.22.05.19h-.02s-.06-.05-.1-.07h0s.03-.07.05-.11c-.03.02-.08.03-.12.04-.05.02-.13.05-.17.05-.1,0-.17.01-.27.07-.12.08-.23.17-.34.26-.45.34-.88.69-1.3,1.05-.11.09.05.24.16.16h0Z"/>
          <path class="st13" d="M559.4,448.64c.4-.49.83-.95,1.29-1.38.23-.21.46-.42.71-.61s.53-.36.76-.58c.09-.09-.02-.22-.13-.17-.28.13-.53.36-.76.55-.25.2-.49.41-.72.63-.47.44-.9.91-1.29,1.41-.08.11.06.26.15.15h0Z"/>
          <path class="st13" d="M559.38,450.15c.45-.55.9-1.09,1.41-1.58.25-.24.51-.48.78-.7s.57-.43.85-.66c.11-.09-.03-.26-.14-.19-.31.18-.59.42-.86.65s-.54.47-.8.72c-.51.5-1,1.04-1.4,1.63-.07.1.09.23.17.13h0Z"/>
          <path class="st13" d="M559.4,451.78c.49-.54.98-1.07,1.52-1.55.27-.24.55-.47.84-.68s.62-.41.92-.64c.12-.09.02-.27-.12-.2-.34.17-.65.41-.95.64s-.58.45-.85.69c-.56.49-1.09,1.03-1.53,1.62-.07.1.09.22.17.13h0Z"/>
          <path class="st13" d="M559.41,453.31c.55-.53,1.1-1.05,1.68-1.54s1.22-.91,1.79-1.42c.09-.08-.02-.21-.12-.16-.65.37-1.25.89-1.83,1.37s-1.15,1.03-1.67,1.59c-.09.1.05.24.15.15h0Z"/>
          <path class="st13" d="M559.52,454.94c.49-.52,1-1.02,1.56-1.47.27-.22.55-.43.83-.64.15-.11.3-.23.45-.34s.33-.23.46-.38c.08-.1-.02-.23-.14-.18-.17.09-.32.23-.48.34s-.31.24-.47.35c-.28.21-.56.43-.84.65-.56.46-1.09.95-1.53,1.53-.07.09.08.2.16.12h0Z"/>
          <path class="st13" d="M559.43,456.37c.46-.48.94-.94,1.46-1.35.26-.21.53-.41.81-.6s.58-.35.85-.55c.12-.08.02-.25-.11-.19-.31.13-.59.33-.87.52s-.55.39-.82.6c-.53.43-1.03.9-1.48,1.41-.09.1.06.26.15.15h0Z"/>
          <path class="st13" d="M559.19,457.54c.52-.54,1.1-1,1.71-1.43.29-.2.59-.4.88-.61.32-.22.66-.44.94-.7.1-.09-.03-.27-.15-.19-.34.21-.65.47-.97.7-.3.21-.6.41-.9.63-.6.43-1.18.89-1.67,1.45-.09.11.06.26.16.16h0Z"/>
          <path class="st13" d="M559.22,458.65c.54-.5,1.12-.97,1.73-1.39.3-.2.6-.4.91-.58s.65-.35.96-.55c.1-.06.04-.25-.08-.2-.69.26-1.34.7-1.94,1.13s-1.19.91-1.74,1.43c-.11.11.06.27.17.17h0Z"/>
          <path class="st13" d="M559.4,460.34c.54-.42,1.04-.88,1.58-1.29.25-.19.51-.38.78-.56.29-.2.6-.38.87-.59.11-.08-.03-.22-.13-.17-.32.15-.62.36-.92.56-.27.18-.53.37-.79.57-.54.41-1.07.85-1.54,1.33-.1.1.05.24.15.15h0Z"/>
          <path class="st13" d="M559.27,461.74c.52-.48,1.08-.91,1.65-1.33s1.16-.79,1.72-1.21c.12-.09.02-.27-.12-.2-.63.33-1.22.77-1.79,1.2s-1.12.87-1.62,1.38c-.1.1.05.25.16.16h0Z"/>
          <path class="st13" d="M559.39,463.03c.48-.49.97-.98,1.5-1.41.24-.19.49-.38.75-.55.3-.21.65-.4.92-.66.09-.09-.03-.21-.13-.17-.34.15-.66.4-.96.62-.25.18-.5.36-.75.56-.54.44-1.03.93-1.49,1.45-.1.11.06.26.16.16h0Z"/>
          <path class="st13" d="M559.53,459.29c.87-.94,1.98-1.59,3.05-2.27.12-.07.01-.24-.11-.18-.58.29-1.13.65-1.65,1.03s-1,.79-1.43,1.28c-.08.09.05.23.14.14h0Z"/>
          <path class="st13" d="M559.28,464.46c.53-.49,1.04-1,1.6-1.46s1.18-.85,1.77-1.28c.12-.08.02-.27-.12-.2-.64.35-1.23.81-1.79,1.27s-1.12.97-1.62,1.51c-.09.1.05.24.15.15h0Z"/>
          <path class="st13" d="M559.32,465.53c.51-.48,1.06-.92,1.62-1.33s1.14-.75,1.68-1.17c.1-.08-.03-.22-.13-.16-.61.33-1.18.76-1.74,1.18s-1.1.84-1.58,1.33c-.1.1.05.25.15.15h0Z"/>
          <path class="st13" d="M559.56,466.58c.52-.42,1.05-.83,1.59-1.22.26-.19.52-.37.78-.56s.56-.36.8-.57c.09-.08-.03-.21-.12-.16-.29.14-.56.35-.83.53s-.55.39-.83.59c-.53.39-1.04.8-1.55,1.22-.11.09.05.25.16.16h0Z"/>
          <path class="st13" d="M559.71,467.31c.45-.35.89-.7,1.36-1.02s.97-.6,1.43-.92c.11-.08.02-.23-.1-.18-.52.23-1.01.58-1.47.9s-.92.67-1.34,1.05c-.08.08.03.23.13.16h0Z"/>
          <path class="st13" d="M560.97,467.67c.25-.22.51-.42.77-.62s.53-.4.75-.64c.1-.1-.05-.23-.15-.15-.26.21-.52.42-.77.62s-.51.41-.75.64c-.1.1.05.24.15.15h0Z"/>
        </g>
      </g>
      <g>
        <path class="st13" d="M570.28,467.22h-2.82l.26.26c-.05-5.77-.1-11.53-.14-17.3,0-.82-.01-1.63-.02-2.45l-.26.26,3.04-.11-.26-.26c-.02,5.79-.03,11.57-.05,17.36v2.5c0,.34.51.34.52,0,.02-5.79.03-11.57.05-17.36v-2.5c0-.14-.11-.27-.25-.26l-3.04.11c-.14,0-.26.12-.26.26.05,5.77.1,11.53.14,17.3,0,.82.01,1.63.02,2.45,0,.14.12.26.26.26h2.82c.34,0,.34-.52,0-.52Z"/>
        <g>
          <path class="st13" d="M573.55,467.22h-3.26l.26.26v-15.54l-.26.26,3.74.13-.26-.26c-.14,4.49-.28,8.98-.42,13.48l-.06,1.93c-.01.34.51.34.52,0,.14-4.49.28-8.98.42-13.48l.06-1.93c0-.14-.12-.26-.26-.26l-3.74-.13c-.14,0-.26.12-.26.26v15.54c0,.14.12.26.26.26h3.26c.34,0,.34-.52,0-.52Z"/>
          <path class="st13" d="M572.12,452c-.17.1-.31.24-.46.37-.16.15-.33.3-.49.44s-.32.29-.48.43c-.07.07-.15.13-.22.2s-.16.13-.21.22c-.06.1.05.18.14.14.09-.04.16-.12.23-.18.08-.07.15-.13.22-.2.16-.15.33-.3.49-.44s.32-.29.48-.43c.15-.13.3-.27.43-.43.06-.08-.06-.18-.13-.13h0Z"/>
          <path class="st13" d="M573.18,452.05c-.54.39-1.04.86-1.51,1.33-.25.25-.5.5-.74.76-.11.12-.22.24-.32.37-.1.12-.2.23-.27.37-.05.11.07.21.17.13.11-.1.2-.22.29-.34.1-.13.21-.25.32-.37.23-.26.47-.51.72-.75.47-.46.97-.9,1.46-1.34.09-.08-.03-.24-.13-.17h0Z"/>
          <path class="st13" d="M573.74,452.55l-1.74,1.79-.85.87c-.3.31-.61.6-.89.92-.1.12.05.27.17.17.31-.28.58-.59.87-.89l.87-.9,1.74-1.79c.11-.11-.06-.28-.17-.17h0Z"/>
          <path class="st13" d="M570.49,457.69c.53-.65,1.1-1.26,1.71-1.83s1.26-1.09,1.92-1.61c.09-.07-.03-.22-.12-.16-.71.45-1.36,1.02-1.97,1.6s-1.2,1.2-1.71,1.87c-.08.1.1.23.18.14h0Z"/>
          <path class="st13" d="M570.44,459.24c.53-.54,1.07-1.07,1.66-1.56.62-.53,1.3-1,1.91-1.55.09-.08-.03-.23-.13-.16-.68.45-1.31.99-1.93,1.52-.58.49-1.19,1-1.66,1.6-.08.11.05.25.15.15h0Z"/>
          <path class="st13" d="M570.35,460.68c.51-.59,1.06-1.14,1.67-1.62s1.3-.87,1.98-1.28c.1-.06.03-.24-.08-.19-.72.3-1.39.76-2,1.24s-1.22,1.06-1.74,1.68c-.1.12.07.28.17.17h0Z"/>
          <path class="st13" d="M570.41,461.7c.53-.52,1.1-1,1.7-1.42.3-.21.6-.4.91-.59s.66-.33.96-.54c.1-.07.04-.23-.08-.2-.33.1-.66.31-.95.49-.34.2-.67.42-.99.64-.61.44-1.19.92-1.71,1.45-.1.11.06.27.16.16h0Z"/>
          <path class="st13" d="M570.42,462.76c.51-.5,1.06-.95,1.62-1.38s1.16-.8,1.73-1.2c.11-.08.02-.24-.11-.19-.65.29-1.24.77-1.79,1.2s-1.11.89-1.61,1.4c-.11.11.06.27.17.17h0Z"/>
          <path class="st13" d="M570.48,463.94c.51-.45,1.03-.88,1.59-1.27s1.14-.7,1.71-1.06c.09-.06.03-.24-.08-.19-.63.26-1.22.66-1.77,1.05s-1.09.85-1.59,1.32c-.11.1.05.25.16.16h0Z"/>
          <path class="st13" d="M570.39,465.72c.54-.43,1.05-.9,1.6-1.32s1.14-.77,1.74-1.11c.1-.06.03-.23-.08-.19-.66.27-1.25.67-1.81,1.1s-1.09.89-1.61,1.36c-.11.1.05.25.16.16h0Z"/>
          <path class="st13" d="M570.38,466.6c.57-.38,1.14-.77,1.71-1.15.28-.18.55-.37.82-.56s.6-.37.84-.61c.09-.09-.02-.22-.13-.17-.31.14-.58.38-.86.57s-.55.37-.82.56c-.56.38-1.12.76-1.67,1.16-.12.09,0,.28.12.2h0Z"/>
          <path class="st13" d="M570.39,464.97c.85-1.13,2.14-1.79,3.4-2.36.11-.05.03-.23-.08-.19-.69.22-1.35.59-1.94.99s-1.14.87-1.56,1.44c-.08.11.1.21.18.11h0Z"/>
          <path class="st13" d="M570.68,467.49c.46-.37.92-.74,1.42-1.06s1.01-.58,1.53-.84c.1-.05.03-.23-.08-.19-1.14.42-2.11,1.15-3.02,1.94-.11.09.05.24.15.15h0Z"/>
          <path class="st13" d="M572.12,467.54c.24-.25.48-.5.76-.7s.59-.36.89-.53c.11-.06.03-.23-.08-.2-.35.11-.67.31-.96.53s-.57.47-.79.76c-.08.1.09.23.18.14h0Z"/>
        </g>
      </g>
      <g>
        <path class="st13" d="M586.15,467.49c-.01-3.04-.02-6.07-.03-9.11,0-.44,0-.87,0-1.31l-.26.26,2.86.19-.26-.26v10.23c0,.34.52.34.52,0v-10.23c0-.15-.12-.25-.26-.26l-2.86-.19c-.14,0-.26.13-.26.26.01,3.04.02,6.07.03,9.11,0,.44,0,.87,0,1.31,0,.34.52.34.52,0h0Z"/>
        <g>
          <path class="st13" d="M588.97,467.49c.05-1.8.1-3.61.15-5.41l.02-.77-.26.26c1.03-.04,2.06-.09,3.09-.13l-.26-.26v6.32c0,.34.52.34.52,0v-6.32c0-.14-.12-.27-.26-.26-1.03.04-2.06.09-3.09.13-.14,0-.26.11-.26.26-.05,1.8-.1,3.61-.15,5.41l-.02.77c0,.34.51.34.52,0h0Z"/>
          <path class="st13" d="M589.04,462.96c.38-.33.83-.6,1.26-.86.22-.14.45-.27.68-.39.21-.12.44-.22.64-.36.1-.07.04-.24-.08-.2-.23.07-.45.19-.66.3-.25.13-.49.28-.73.42-.45.28-.87.58-1.26.93-.1.09.05.23.15.15h0Z"/>
          <path class="st13" d="M588.98,464.34c.44-.4.9-.76,1.39-1.09.24-.16.48-.32.73-.47s.51-.28.76-.44c.09-.06.04-.24-.08-.19-.27.1-.51.25-.76.39-.27.16-.53.33-.79.52-.49.34-.96.72-1.4,1.13-.1.1.05.25.16.16h0Z"/>
          <path class="st13" d="M588.74,465.54c.53-.4,1.07-.77,1.62-1.13.28-.18.55-.36.83-.54.26-.17.56-.32.8-.53.08-.07,0-.23-.11-.19-.29.11-.56.31-.82.48-.29.18-.57.37-.86.56-.55.37-1.08.75-1.6,1.16-.1.08.04.27.14.19h0Z"/>
          <path class="st13" d="M588.83,466.59c.53-.37,1.08-.73,1.62-1.08.28-.18.56-.37.84-.55.25-.17.53-.32.75-.53.1-.09-.03-.25-.14-.19-.27.14-.51.34-.76.5-.28.19-.56.37-.84.56-.53.35-1.07.7-1.59,1.07-.13.09,0,.32.13.22h0Z"/>
          <path class="st13" d="M589.2,467.58c.39-.44.85-.83,1.33-1.18.24-.18.49-.35.75-.51.24-.15.51-.27.74-.44.1-.07.05-.27-.09-.22-.27.1-.52.27-.76.42-.27.17-.53.35-.79.54-.49.36-.95.75-1.36,1.21-.11.12.07.3.18.18h0Z"/>
          <path class="st13" d="M590.17,467.68c.26-.27.53-.53.82-.77.14-.12.28-.23.43-.34s.31-.22.45-.34c.1-.09-.03-.22-.13-.17-.17.08-.32.2-.47.32s-.3.23-.44.36c-.29.25-.56.51-.82.79-.1.11.06.27.16.16h0Z"/>
        </g>
      </g>
      <g>
        <path class="st13" d="M577.33,467.49c-.13-6.64-.26-13.28-.39-19.92-.02-.96-.04-1.91-.06-2.87l-.26.26,3.26.24-.26-.26v22.54c0,.34.52.34.52,0v-22.54c0-.15-.12-.25-.26-.26l-3.26-.24c-.14-.01-.26.13-.26.26.13,6.64.26,13.28.39,19.92.02.96.04,1.91.06,2.87,0,.34.53.34.52,0h0Z"/>
        <g>
          <path class="st13" d="M580.15,467.49v-18.64l-.26.26c1.19.14,2.38.27,3.57.41l-.26-.26c-.09,5.32-.18,10.63-.27,15.95-.01.76-.03,1.52-.04,2.28,0,.34.52.34.52,0,.09-5.32.18-10.63.27-15.95.01-.76.03-1.52.04-2.28,0-.15-.12-.25-.26-.26-1.19-.14-2.38-.27-3.57-.41-.14-.02-.26.13-.26.26v18.64c0,.34.52.34.52,0h0Z"/>
          <path class="st13" d="M580.04,450.23c.17-.08.34-.14.51-.22.19-.09.39-.18.58-.26s.38-.17.57-.26c.17-.08.38-.16.53-.28.08-.07,0-.2-.1-.17-.18.04-.35.15-.52.23-.19.09-.39.18-.58.27s-.38.17-.57.26-.35.18-.52.27c-.12.06-.01.23.1.17h0Z"/>
          <path class="st13" d="M580.02,451.15c.45-.39.96-.72,1.47-1.02.27-.16.54-.31.82-.46.24-.12.53-.22.75-.37.1-.07.04-.21-.08-.19-.27.05-.54.21-.78.34-.29.15-.58.31-.86.48-.52.32-1.03.66-1.47,1.08-.1.09.05.23.14.14h0Z"/>
          <path class="st13" d="M579.81,452.25c.59-.34,1.19-.68,1.77-1.04l.88-.53c.28-.17.58-.32.83-.53.08-.07,0-.22-.11-.18-.3.12-.58.32-.86.49l-.88.53c-.59.35-1.17.71-1.75,1.08-.11.07-.01.24.1.17h0Z"/>
          <path class="st13" d="M580.03,453.46c.53-.38,1.07-.75,1.61-1.11.27-.18.54-.35.81-.53s.58-.34.84-.53c.12-.09.02-.27-.12-.2-.3.14-.57.34-.85.52s-.54.35-.81.53c-.54.36-1.07.74-1.6,1.13-.11.08,0,.28.11.19h0Z"/>
          <path class="st13" d="M579.96,454.87c.49-.43,1.02-.81,1.59-1.13.28-.16.56-.3.85-.43s.61-.24.9-.37c.12-.05.03-.23-.08-.2-.64.14-1.26.46-1.82.79s-1.11.73-1.6,1.18c-.11.1.05.27.17.17h0Z"/>
          <path class="st13" d="M580.06,456.1c.56-.36,1.12-.73,1.68-1.09.27-.17.55-.34.83-.51s.61-.31.85-.53c.08-.07,0-.22-.11-.19-.31.1-.6.33-.87.49s-.55.34-.82.51c-.57.36-1.13.72-1.67,1.11-.12.08,0,.28.11.2h0Z"/>
          <path class="st13" d="M580.04,457.33c.55-.39,1.11-.77,1.67-1.13.27-.18.55-.35.82-.51s.62-.31.88-.52c.09-.07,0-.22-.11-.19-.31.1-.6.31-.87.47s-.57.35-.85.53c-.56.37-1.11.76-1.66,1.16-.11.08,0,.27.11.19h0Z"/>
          <path class="st13" d="M580.1,458.35c.49-.41,1.03-.77,1.6-1.08.27-.15.54-.29.82-.42.29-.14.62-.25.89-.43.1-.07.04-.23-.08-.2-.31.08-.61.24-.89.37-.3.14-.6.3-.9.46-.57.32-1.12.69-1.62,1.11-.13.11.06.29.18.18h0Z"/>
          <path class="st13" d="M580.08,459.37c.46-.43,1-.78,1.55-1.08.27-.15.55-.28.82-.41s.61-.24.87-.42c.1-.07.04-.23-.08-.2-.3.07-.59.24-.87.37-.3.14-.6.29-.9.45-.57.31-1.11.67-1.58,1.11-.12.11.06.3.18.18h0Z"/>
          <path class="st13" d="M579.83,460.7c.51-.43,1.05-.81,1.62-1.15.27-.16.55-.31.83-.45.3-.15.63-.25.91-.42.11-.06.03-.22-.08-.2-.31.07-.62.23-.91.37-.31.15-.61.32-.91.49-.58.35-1.12.75-1.63,1.19-.11.1.05.26.16.16h0Z"/>
          <path class="st13" d="M579.83,461.9c.53-.42,1.07-.81,1.65-1.15.28-.17.57-.33.87-.47s.62-.25.9-.42c.11-.07.04-.22-.08-.2-.3.05-.62.23-.89.37-.32.16-.64.33-.95.52-.58.35-1.15.74-1.65,1.19-.11.1.05.26.16.16h0Z"/>
          <path class="st13" d="M579.97,463.35c.46-.48,1.02-.85,1.59-1.18.3-.18.6-.34.9-.5.14-.07.29-.14.43-.21.13-.06.29-.11.39-.2.07-.06.02-.2-.08-.19-.14,0-.28.09-.4.15-.15.07-.3.14-.45.22-.32.16-.64.34-.95.53-.57.35-1.14.74-1.59,1.24-.09.1.06.25.15.15h0Z"/>
          <path class="st13" d="M579.94,464.44c.57-.29,1.13-.58,1.68-.89.28-.15.55-.31.83-.47.26-.15.55-.29.78-.48.08-.07,0-.22-.1-.18-.28.11-.54.29-.8.45-.27.16-.55.32-.83.47-.55.31-1.11.61-1.68.9-.13.07-.02.27.12.2h0Z"/>
          <path class="st13" d="M580.05,465.74c.52-.36,1.04-.71,1.56-1.07s1.05-.68,1.56-1.05c.11-.08.02-.25-.11-.18-.55.29-1.06.66-1.58,1.02s-1.03.73-1.55,1.09c-.12.08,0,.28.12.2h0Z"/>
          <path class="st13" d="M579.94,466.91c.51-.43,1.05-.82,1.6-1.2.3-.2.6-.4.91-.58.26-.15.53-.28.79-.43.11-.06.04-.24-.09-.2-.29.09-.57.26-.83.42-.31.19-.62.39-.92.6-.56.38-1.11.79-1.63,1.23-.12.1.05.27.17.17h0Z"/>
          <path class="st13" d="M580.45,467.84c.4-.38.83-.73,1.28-1.05.22-.16.44-.31.67-.45.11-.07.23-.14.35-.21s.26-.12.34-.22c.08-.09,0-.21-.11-.19-.13.02-.26.12-.37.18s-.23.14-.35.21c-.24.15-.48.31-.71.48-.45.33-.88.69-1.29,1.07-.12.11.06.29.18.18h0Z"/>
          <path class="st13" d="M581.9,467.7c.23-.15.44-.32.66-.49s.44-.3.69-.41c.12-.05.03-.25-.09-.21-.54.17-.93.59-1.37.91-.12.08-.01.28.12.2h0Z"/>
        </g>
      </g>
      <g>
        <path class="st13" d="M593.97,467.49c-.01-4.49-.03-8.98-.04-13.47v-1.94c-.09.09-.18.17-.27.26l2.87.16-.26-.26v15.24c0,.34.52.34.52,0v-15.24c0-.15-.12-.25-.26-.26l-2.87-.16c-.14,0-.26.13-.26.26.01,4.49.03,8.98.04,13.47v1.94c0,.34.53.34.53,0h0Z"/>
        <g>
          <path class="st13" d="M596.8,467.49v-11.34l-.26.26,3.53.05-.26-.26c-.08,3.3-.15,6.59-.23,9.89-.01.47-.02.93-.03,1.4,0,.34.51.34.52,0,.08-3.3.15-6.59.23-9.89.01-.47.02-.93.03-1.4,0-.14-.12-.26-.26-.26l-3.53-.05c-.14,0-.26.12-.26.26v11.34c0,.34.52.34.52,0h0Z"/>
          <path class="st13" d="M596.76,457.71c.41-.32.89-.56,1.36-.78.25-.12.5-.22.75-.34.23-.11.49-.21.7-.35.09-.07.04-.24-.08-.2-.24.08-.47.2-.71.31-.27.12-.53.24-.79.36-.48.23-.97.47-1.37.83-.09.08.03.25.14.18h0Z"/>
          <path class="st13" d="M596.7,458.91c.57-.34,1.11-.73,1.67-1.09.28-.18.56-.34.85-.5.31-.16.63-.28.95-.42.13-.06.04-.26-.1-.23-.31.08-.62.23-.9.38-.31.16-.61.34-.9.53-.57.37-1.11.76-1.67,1.14-.11.08-.01.25.11.18h0Z"/>
          <path class="st13" d="M596.65,460.13c.51-.44,1.07-.83,1.64-1.19.3-.19.6-.37.91-.55.14-.08.29-.16.43-.23.13-.07.28-.13.4-.22.1-.07.04-.23-.08-.2-.3.06-.6.26-.86.41-.32.18-.64.37-.95.58-.58.37-1.15.77-1.66,1.23-.12.11.06.29.18.18h0Z"/>
          <path class="st13" d="M596.62,461.45c.54-.43,1.11-.82,1.69-1.2.3-.19.6-.38.9-.56.14-.08.29-.16.43-.24.13-.07.29-.13.39-.24.09-.08,0-.2-.11-.19-.15.02-.29.12-.42.19-.15.08-.3.17-.45.26-.31.19-.62.38-.92.58-.58.39-1.14.79-1.67,1.23-.11.09.05.25.16.16h0Z"/>
          <path class="st13" d="M596.67,462.55c.55-.38,1.12-.74,1.69-1.1.29-.19.58-.38.87-.57s.6-.38.86-.61c.11-.1-.03-.28-.16-.2-.3.17-.58.4-.87.59s-.58.38-.87.57c-.56.36-1.11.71-1.66,1.09-.14.1,0,.33.14.23h0Z"/>
          <path class="st13" d="M596.65,463.57c.57-.31,1.09-.7,1.61-1.08.25-.18.51-.37.77-.54s.57-.32.85-.49l-.18-.1h0c0,.07.06.13.12.13.05,0,.08-.02.11-.06.01-.01.04-.04.04-.06.02-.04.07-.01-.04,0l-.1-.1h0c-.01.13.17.14.2.04h0c.02-.08-.04-.13-.1-.14-.04,0-.07.02-.09.04-.01,0-.03.02-.04.04-.03.04-.06.01.02.01l.11.15h0c.03-.1-.06-.18-.15-.16-.29.09-.57.26-.82.42-.28.18-.55.37-.82.57-.53.39-1.06.78-1.63,1.1-.16.09-.02.32.14.24h0Z"/>
          <path class="st13" d="M596.79,464.64c.44-.43.99-.76,1.52-1.07.3-.17.6-.34.9-.5.24-.13.54-.25.75-.43.09-.08,0-.21-.11-.18-.13.03-.27.11-.39.17-.14.07-.28.14-.42.22-.31.16-.62.33-.92.51-.54.32-1.09.65-1.54,1.09-.13.13.07.33.2.2h0Z"/>
          <path class="st13" d="M596.74,465.72c.52-.36,1.04-.74,1.57-1.09.26-.17.53-.34.8-.5.14-.08.29-.16.43-.24s.3-.13.43-.23c.1-.08.05-.24-.09-.21-.29.06-.58.26-.84.4-.29.17-.57.34-.85.53-.54.36-1.06.74-1.59,1.11-.14.1,0,.33.14.23h0Z"/>
          <path class="st13" d="M596.59,466.75c.27-.17.51-.37.77-.55s.52-.35.79-.51c.54-.33,1.11-.58,1.67-.87.11-.06.03-.23-.08-.19-.61.18-1.18.5-1.72.83s-1.1.69-1.55,1.12c-.09.09.03.24.13.17h0Z"/>
          <path class="st13" d="M596.7,467.43c.51-.37,1.04-.72,1.59-1.03.27-.15.54-.28.82-.42.14-.07.29-.13.43-.2s.3-.12.43-.23c.1-.08-.01-.2-.11-.18-.15.02-.3.1-.43.17-.15.07-.3.14-.45.21-.28.14-.56.28-.84.43-.55.31-1.09.66-1.58,1.06-.1.08.03.26.14.18h0Z"/>
          <path class="st13" d="M597.76,467.76c.31-.26.64-.49.99-.68s.7-.33,1.04-.51c.11-.06.03-.22-.08-.19-.39.1-.76.29-1.11.49s-.7.45-1.02.72c-.12.1.05.28.17.17h0Z"/>
        </g>
      </g>
      <path class="st13" d="M548.34,436.02c-.26.45-.59.87-.97,1.24-.19.18-.39.35-.6.51s-.44.31-.69.39c-.18.06-.45.1-.57-.1-.09-.14-.04-.31.04-.44.26-.45.83-.29,1.2-.07.26.16.5.37.71.59.11.11.21.23.31.35.1.13.19.27.3.39.17.18.4-.05.32-.24-.07-.16-.19-.3-.3-.43s-.23-.26-.35-.38c-.24-.24-.51-.47-.81-.64-.52-.3-1.24-.41-1.65.12-.32.41-.3,1.06.25,1.26.61.22,1.27-.3,1.71-.66.58-.47,1.05-1.05,1.4-1.7.11-.2-.19-.38-.31-.18h0Z"/>
      <g>
        <path class="st13" d="M559.4,469.87c0,.39-.03.78-.09,1.17-.03.2-.07.4-.12.6-.02.09-.05.19-.08.28-.03.1-.02.19-.04.29-.04.17.19.27.28.12.05-.09.12-.16.16-.26s.06-.19.08-.29c.05-.21.09-.42.12-.64.06-.42.09-.84.08-1.26-.01-.25-.38-.25-.39,0h0Z"/>
        <path class="st13" d="M558.61,470.19c.28,0,.57,0,.85,0,.14,0,.28.01.42.02.15.01.33.04.46-.04.09-.06.12-.2.04-.28-.12-.12-.32-.12-.48-.13-.14,0-.28-.01-.42-.02-.29,0-.58,0-.87.04-.11.01-.2.08-.2.2,0,.11.09.2.2.2h0Z"/>
        <path class="st13" d="M558.55,472.65c.32-.13.67-.22,1.01-.26.17-.02.35-.03.52-.03s.36.02.54.03c.25,0,.31-.39.06-.45-.38-.09-.8-.06-1.19.01s-.74.2-1.09.37c-.18.09-.05.41.14.33h0Z"/>
      </g>
      <g>
        <path class="st13" d="M569.4,469.77c-.04.31-.07.63-.09.94l-.04.47c-.01.15-.06.34,0,.49s.28.21.36.05c.07-.15.06-.34.07-.5l.03-.49c.02-.32.04-.64.04-.96,0-.1-.09-.18-.18-.18-.11,0-.17.08-.18.18h0Z"/>
        <path class="st13" d="M570.5,469.83c-.01.09-.04.17-.06.26-.01.08-.02.15-.03.23-.02.17-.05.34-.07.51l-.06.5c-.02.16-.07.34-.06.5.02.22.31.26.38.05.03-.09.03-.19.04-.28l.03-.23.06-.5c.02-.17.04-.33.06-.5,0-.08.02-.15.02-.23,0-.09,0-.18,0-.27.02-.18-.29-.23-.32-.04h0Z"/>
        <path class="st13" d="M568.86,470.25c.52-.2,1.06-.35,1.6-.45.27-.05.54-.09.82-.11.14-.01.28-.02.42-.02s.28,0,.41-.05c.16-.06.16-.26,0-.32-.13-.05-.3-.04-.44-.03-.15,0-.3.02-.45.03-.28.03-.56.07-.83.12-.57.12-1.12.29-1.66.52-.17.07-.05.38.13.31h0Z"/>
        <path class="st13" d="M568.27,472.32c.68-.07,1.36-.1,2.05-.08.34,0,.67.02,1.01.05.32.03.7.13,1.01.06.15-.04.18-.25.04-.33-.28-.16-.7-.15-1.01-.17-.35-.03-.7-.04-1.04-.04-.7,0-1.4.06-2.09.17-.19.03-.15.36.05.34h0Z"/>
      </g>
      <g>
        <path class="st13" d="M578.4,469.76c.02.39.02.78,0,1.16,0,.19-.02.39-.04.58s-.07.4-.03.58c.03.14.24.16.31.04.09-.16.09-.39.11-.57.02-.2.03-.4.04-.6.01-.4,0-.79-.04-1.19-.02-.22-.36-.22-.34,0h0Z"/>
        <path class="st13" d="M579.98,469.92l-.13.96-.06.47c-.02.17-.06.34-.02.51.03.14.23.16.3.04.08-.15.09-.32.11-.48l.07-.49.13-.96c.03-.22-.35-.27-.38-.05h0Z"/>
        <path class="st13" d="M581.11,469.93c-.09.43-.14.86-.21,1.3l-.09.64c-.03.2-.11.46-.05.66.04.14.22.16.3.04.11-.17.11-.43.13-.62l.09-.66c.06-.43.13-.87.17-1.3.02-.19-.3-.24-.34-.05h0Z"/>
        <path class="st13" d="M577.93,470.06c.85,0,1.7,0,2.54-.02l1.27-.02c.4,0,.82.02,1.22-.05.2-.04.12-.31-.04-.33-.42-.06-.85,0-1.27,0l-1.22.03c-.83.02-1.66.05-2.5.07-.21,0-.21.32,0,.32h0Z"/>
        <path class="st13" d="M577.6,472.29c.98,0,1.95,0,2.93-.02l1.47-.02c.45,0,.96.04,1.4-.06.17-.04.17-.31,0-.34-.45-.09-.95-.03-1.4-.02l-1.47.03c-.98.02-1.95.04-2.93.08-.23,0-.23.35,0,.35h0Z"/>
      </g>
      <path class="st13" d="M587.62,469.98c0,.37.01.74,0,1.11,0,.18-.02.36-.04.54s-.06.38-.03.56c.03.13.22.15.29.04.1-.17.1-.38.12-.58.02-.18.03-.36.04-.54.02-.38,0-.76-.04-1.13-.01-.09-.07-.17-.17-.17-.09,0-.17.08-.17.17h0Z"/>
      <g>
        <path class="st13" d="M588.68,470.09c.05.66.15,1.33.24,1.99.03.2.28.31.4.11.22-.35.44-.7.66-1.06.11-.18.22-.35.33-.53s.23-.36.28-.56c.04-.17-.15-.27-.28-.16-.16.13-.27.33-.38.5s-.22.35-.33.53c-.22.35-.44.71-.65,1.06l.4.05c-.09-.66-.17-1.32-.3-1.98-.04-.2-.38-.16-.37.05h0Z"/>
        <path class="st13" d="M587.31,470.59c.69-.15,1.38-.27,2.08-.35.34-.04.69-.08,1.03-.11.33-.03.69,0,1-.1.15-.04.17-.29,0-.32-.35-.07-.73,0-1.08.03s-.67.07-1.01.12c-.71.1-1.42.23-2.12.4-.22.05-.13.38.09.34h0Z"/>
        <path class="st13" d="M586.98,472.56c.77-.11,1.54-.19,2.31-.25.37-.02.75-.04,1.12-.05s.78.05,1.12-.06c.16-.05.16-.28,0-.33-.34-.11-.77-.05-1.12-.04-.4.01-.81.04-1.21.07-.78.06-1.55.17-2.32.31-.23.04-.13.37.09.34h0Z"/>
      </g>
      <g>
        <path class="st13" d="M595.64,470.04c.27.71.56,1.4.85,2.1.07.18.33.21.4,0,.13-.42.29-.84.49-1.23.1-.2.2-.39.32-.58s.27-.38.33-.6c.04-.14-.12-.28-.25-.19-.2.13-.32.36-.44.56s-.23.41-.34.62c-.21.42-.38.87-.51,1.32l.38-.05c-.3-.7-.59-1.39-.9-2.08-.08-.18-.4-.05-.32.14h0Z"/>
        <path class="st13" d="M594.79,470.46c.78-.23,1.57-.43,2.37-.58s1.61-.23,2.41-.35c.17-.03.13-.31-.04-.3-.81.01-1.62.16-2.42.31s-1.62.36-2.41.61c-.2.06-.12.38.09.32h0Z"/>
        <path class="st13" d="M595.51,472.43c.52,0,1.04-.03,1.56-.1s1.05-.12,1.53-.3c.17-.06.16-.37-.05-.34-.5.06-1,.19-1.5.27s-1.03.12-1.54.15c-.21.01-.21.32,0,.33h0Z"/>
      </g>
    </g>
    <g>
      <path d="M439.01,422.3c-.03,1.34-.09,2.69-.15,4.03-.02.59-.05,1.19-.07,1.78,0,.27-.1.67.08.9.08.1.24.05.3-.04.15-.22.08-.66.08-.91.02-.59.04-1.18.05-1.76.04-1.33.08-2.66.05-3.99,0-.22-.34-.22-.35,0h0Z"/>
      <path d="M439.29,422.48c2.52-.28,5.05-.33,7.57-.09.22.02.69-.01.88.11.28.18.21.7.22.97.03.64.06,1.28.09,1.92.06,1.31.12,2.62.19,3.94.01.31.5.31.49,0-.07-1.46-.14-2.93-.21-4.39-.03-.71-.03-1.43-.11-2.13-.05-.44-.25-.7-.68-.79-.66-.13-1.37-.14-2.03-.18-.72-.04-1.44-.06-2.17-.05-1.44.01-2.86.12-4.29.31-.22.03-.17.41.05.39h0Z"/>
      <path d="M438.81,429.06c1.59.06,3.18.01,4.77.17s3.12.49,4.69.33c.31-.03.32-.52,0-.49-1.61.11-3.18-.2-4.78-.34s-3.17-.22-4.73-.01c-.2.03-.14.34.05.34h0Z"/>
      <path d="M443.1,429.04c-.11.74-.1,1.52-.09,2.27s.03,1.47.13,2.19c.03.25.45.19.44-.06-.04-.71-.13-1.41-.15-2.13s.04-1.49,0-2.23c0-.18-.3-.24-.33-.04h0Z"/>
      <path d="M443.98,433.52c-.38-.31-.88-.34-1.32-.14s-.74.65-.69,1.14c.06.51.43.98.93,1.13.53.16,1.12-.13,1.37-.62.14-.28.17-.61.08-.91s-.3-.6-.62-.69c-.18-.05-.3.17-.18.31.13.14.28.27.35.45s.08.35.02.53c-.05.16-.18.31-.33.41s-.33.14-.48.11c-.34-.06-.61-.35-.69-.68-.07-.3.09-.59.34-.75.29-.18.69-.23.99-.02.16.11.37-.15.21-.28h0Z"/>
      <path d="M442.27,433.98c-3-.31-6.08-.22-9.08-.01-.12,0-.25.1-.23.23.09.9.08,1.8-.03,2.7-.04.3.43.29.47,0,.11-.9.12-1.8.03-2.7l-.23.23c3.03-.21,6.04-.15,9.08-.12.22,0,.21-.31,0-.34h0Z"/>
      <path d="M443.15,435.42c-.06.32-.06.65-.09.97s-.06.63-.06.94c0,.12.1.22.22.22.12,0,.21-.1.22-.22.02-.31.02-.62.04-.93s.05-.62.02-.93c0-.09-.06-.16-.15-.17-.08,0-.18.04-.19.13h0Z"/>
      <path d="M444.24,434.66c1.86.11,3.74.06,5.6.18.47.03.93.06,1.4.1.23.02.47.04.7.06.13.01.63-.01.72.07.07.07.05.4.06.5.01.19.03.38.04.57.03.4.05.79.08,1.19.02.32.52.32.5,0-.03-.44-.06-.88-.09-1.32-.02-.35.04-.86-.13-1.17-.15-.27-.46-.26-.74-.29-.55-.06-1.1-.1-1.66-.15-1.05-.08-2.1-.13-3.15-.15-1.1-.02-2.23-.07-3.33.05-.23.02-.24.35,0,.36h0Z"/>
      <path d="M429.73,437.28c1.96.03,3.9.03,5.86.19.23.02.49.01.71.06.34.07.28.27.29.57.01.47.02.95.03,1.42.02,1,.04,2,.08,2.99.01.31.48.31.48,0-.01-1.12-.06-2.23-.09-3.35-.02-.52,0-1.06-.05-1.58-.04-.35-.28-.48-.6-.51-2.2-.25-4.5-.33-6.71-.14-.21.02-.22.33,0,.33h0Z"/>
      <path d="M429.24,437.1c-.04.86.05,1.74.07,2.6s.02,1.74,0,2.6c0,.13.11.23.23.23,2.4.1,4.81.24,7.21.28.32,0,.32-.48,0-.49-2.4-.14-4.81-.18-7.21-.25l.23.23c0-.89,0-1.78-.03-2.68s-.02-1.73-.16-2.58c-.03-.21-.35-.15-.36.05h0Z"/>
      <path d="M439.14,437.43c1.3.14,2.65.07,3.96.11s2.64.11,3.96.13c.32,0,.31-.47,0-.49-1.31-.09-2.64-.09-3.96-.12s-2.66-.13-3.96-.01c-.25.02-.25.36,0,.39h0Z"/>
      <path d="M438.92,437.28c-.06.43-.03.87-.03,1.31s0,.91,0,1.36c0,.91,0,1.81,0,2.72,0,.31.48.31.48,0,0-.91-.01-1.81-.02-2.72,0-.45,0-.91-.01-1.36s.02-.88-.04-1.31c-.03-.18-.35-.19-.37,0h0Z"/>
      <path d="M439.23,442.97c1.26.23,2.59.21,3.87.23s2.65-.01,3.97-.04c.32,0,.32-.51,0-.5-1.3.03-2.6.05-3.9.05s-2.6-.12-3.9-.09c-.19,0-.26.32-.05.36h0Z"/>
      <path d="M446.85,437.37c-.06.44-.04.9-.03,1.34v1.4c0,.93.02,1.86.02,2.79,0,.31.48.31.48,0,0-.93-.01-1.86-.02-2.79l-.02-1.4c0-.44.02-.9-.05-1.34-.03-.18-.34-.18-.37,0h0Z"/>
      <path d="M449.49,437.44c1.34.08,2.69.05,4.03.06.67,0,1.34,0,2.02,0h.93c.32,0,.68.05.99-.07.19-.08.2-.32,0-.4-.3-.12-.67-.06-.99-.06h-.93c-.67,0-1.34.01-2.02.02-1.34.01-2.69,0-4.03.07-.24.01-.24.36,0,.37h0Z"/>
      <path d="M449.4,437.28c-.1.93,0,1.9.03,2.83s.05,1.89.06,2.83c0,.32.51.32.5,0-.04-.96-.07-1.92-.1-2.89s.02-1.91-.13-2.83c-.04-.22-.34-.14-.36.05h0Z"/>
      <path d="M449.63,443.18c1.34.05,2.67.06,4.01.06s2.68.07,4.01,0c.31-.02.31-.46,0-.48-1.32-.09-2.68-.01-4.01,0s-2.67.02-4.01.06c-.23,0-.23.36,0,.36h0Z"/>
      <path d="M457.3,437.28c-.12.94-.05,1.92-.03,2.86s.06,1.9.12,2.85c.02.33.53.33.51,0-.06-.95-.1-1.9-.14-2.85s.02-1.92-.08-2.86c-.03-.25-.35-.25-.38,0h0Z"/>
    </g>
    <g>
      <path class="st13" d="M611.55,402.65c1.93.02,3.86.03,5.78.06.15,0,.28-.12.28-.27,0-1.82-.06-3.64-.11-5.46,2.2-.11,4.4-.2,6.61-.31.18,0,.35-.14.35-.34-.03-1.73-.06-3.46-.09-5.18,2.07-.02,4.13-.21,6.16-.57.16-.03.25-.19.26-.34.19-1.64.19-3.29.02-4.93,1.78-.17,3.56-.35,5.34-.52.19-.02.34-.14.35-.34.02-.77.04-1.54.05-2.31,0-.38.02-.77.03-1.15,0-.29-.07-.75.27-.88.29-.11.69-.05,1-.05.4,0,.8,0,1.19-.01.8,0,1.59,0,2.39,0,.12,0,.28-.09.3-.22.25-1.4.36-2.81.33-4.23,1.5.04,3,.09,4.51.13.16,0,.32-.14.32-.31-.07-1.42-.14-2.84-.22-4.26,1.88.11,3.76.24,5.65.28.38,0,.38-.55,0-.58-1.99-.17-3.99-.24-5.98-.35-.16,0-.33.15-.32.31.07,1.42.15,2.85.22,4.27-1.5-.04-3-.09-4.5-.14-.16,0-.33.14-.32.31.06,1.4-.02,2.79-.25,4.17-.83,0-1.66.01-2.5.01-.47,0-.95,0-1.42,0-.31,0-.64.02-.9.21-.58.42-.43,1.43-.45,2.05-.03.81-.06,1.62-.08,2.43-1.8.17-3.59.34-5.39.51-.17.02-.38.14-.35.35.2,1.64.21,3.3.04,4.94-2.02.34-4.06.51-6.11.5-.19,0-.36.16-.36.35.04,1.74.08,3.48.12,5.22-2.19.13-4.38.27-6.56.39-.16,0-.31.13-.3.3.05,1.82.06,3.65.15,5.47-1.9.02-3.8.03-5.7.05-.12,0-.21.09-.22.21-.09,1.85-.13,3.74.09,5.58.02.17.27.18.27,0-.01-1.79-.06-3.58.05-5.37Z"/>
      <path class="st13" d="M653.24,393.92c.04-4.83.07-9.66.11-14.49,0-1.3,0-2.6,0-3.89,0-1.27.06-2.56-.06-3.82-.01-.13-.19-.13-.2,0-.13,1.11-.11,2.25-.14,3.37-.03,1.14-.07,2.28-.09,3.42-.04,2.38-.08,4.75-.12,7.13-.08,4.83-.24,9.66-.24,14.48,0,2.57-.03,5.14.1,7.71,0,.19.28.19.29,0,.34-4.63.3-9.28.34-13.92Z"/>
      <path class="st13" d="M652.03,408.25s-.07.05-.08.05c-.11.05-.21.06-.34.07-.35,0-.7,0-1.05,0-.67,0-1.34,0-2.02-.01-1.32,0-2.64-.02-3.96-.03-2.66-.02-5.33-.04-7.99-.06-5.3-.04-10.6-.08-15.91-.09-3.01,0-6.02,0-9.04.06-.14,0-.14.2,0,.21,5.62.25,11.25.3,16.87.4,5.6.09,11.2.17,16.8.25,1.57.02,3.14.05,4.7.07.4,0,.8.01,1.19.02.32,0,.64.03.94-.08.48-.18.79-.66.42-1.1-.2-.24-.58-.02-.56.25Z"/>
      <path class="st13" d="M630.99,376.82c1.61-1.24,3.21-2.5,4.84-3.73.06.06.11.13.16.2.1.13.19.32.31.43,0,.01,0,.02,0,.03-.02,0-.05.02-.07.04-.24.26-.03.55.25.61.11.24.51.36.73.07,1-1.33,1.93-2.76,2.62-4.28.13-.29-.08-.68-.43-.58-1.76.51-3.62.77-5.33,1.44-.03-.01-.06-.03-.1-.04-.22-.09-.34.24-.16.36.51.35,1.02.72,1.47,1.14-3.35,2.69-6.79,5.27-10.17,7.91-4.1,3.19-8.23,6.34-12.25,9.64-2.18,1.79-4.29,3.66-6.25,5.7-.16.17.08.42.25.26,3.63-3.43,7.58-6.5,11.54-9.54,4.19-3.22,8.38-6.45,12.57-9.68ZM636.53,373.81s.02.02.03.04c0-.02-.02-.03-.03-.04ZM636.94,373.53c-.05-.1-.1-.2-.16-.27-.14-.19-.29-.37-.45-.55.61-.46,1.23-.92,1.86-1.37.28-.2.26-.5.1-.69.16-.04.32-.07.48-.11-.56,1.02-1.16,2.02-1.83,2.98ZM634.77,371.42c.86-.13,1.71-.33,2.56-.53-.52.43-1.03.85-1.55,1.27-.31-.28-.65-.53-1.01-.74Z"/>
      <polygon class="st13" points="613.75 387.38 613.75 387.38 613.75 387.38 613.75 387.38"/>
    </g>
    <rect class="st12" x="477.9" y="387.58" width="24.47" height="24.85"/>
    <rect class="st12" x="508.86" y="387.58" width="24.47" height="24.85"/>
    <rect class="st10" x="488.87" y="382.86" width="3.56" height="7.38"/>
    <rect class="st10" x="519.91" y="382.86" width="3.56" height="7.38"/>
    <g>
      <rect class="st4" x="434.02" y="477.14" width="61.23" height="42.65"/>
      <line class="st4" x1="442.81" y1="486.46" x2="486.28" y2="486.46"/>
      <line class="st4" x1="442.81" y1="497.37" x2="486.28" y2="497.37"/>
      <line class="st4" x1="442.81" y1="508.28" x2="486.28" y2="508.28"/>
    </g>
    <circle class="st12" cx="660.3" cy="489.86" r="15.52"/>
    <polyline class="st3" points="647.54 467.55 658.33 488.76 677.32 468.29"/>
  </g>
  <g class="st19">
    <line class="st5" x1="55.14" y1="937.31" x2="1151.47" y2="937.31"/>
  </g>
  <g>
    <g>
      <path class="st9" d="M661.36,687.68s4.18.28,5.34,2.6c.98,1.96-5.19,2.22-5.19,2.22"/>
      <path class="st9" d="M639.69,711.4s2.62.19,0-9.17c-2.62-9.35-2.24-25.07,3.74-25.44,5.99-.37,7.14,3.84,7.14,3.84,0,0,5.73-.97,6.38,3.92,0,0,2.2-.12,3.73,2.05,1.52,2.17-.65,5.11-.33,12.71.33,7.6,3.58,15.21-5.87,21.51-9.45,6.3.33.76.33.76l-15.12-10.19Z"/>
      <g>
        <path class="st11" d="M624.99,672.34c.43.13,47.57,28.98,47.57,28.98"/>
        <path class="st16" d="M672.56,703.46c.72,0,4.53,1,4.53,1,0,0-2.4-4.34-3.41-4.96-47.38-28.99-47.73-29.1-48.07-29.2-1.13-.35-2.32.29-2.67,1.42-.31,1.02.18,2.1,1.11,2.55,1.64.92,29.16,17.72,47.39,28.88.35.21.73.31,1.11.31Z"/>
      </g>
      <path class="st16" d="M610.11,705.21h-94.65c-17.03,0-30.84,13.81-30.84,30.84v158.44c0,20.98,17,37.98,37.98,37.98h125.53s-7.96-133.77-7.18-196.05c.21-17.18-13.66-31.2-30.83-31.2Z"/>
      <path class="st9" d="M649.18,783.49c7.85-5.14,15.41-40.78,11.78-67.97,0,0-7.85-6.95-21.75-5.74,0,0-5.22,8.77-10.56,19.89-3.62-14.23-10.22-26.73-23.15-32.8-6.86-3.22-20.25.15-31.62-1.08-31.83-3.43-55.37,3.77-71.05,52.52-2.59,8.06-9.26,21.09-8.12,28.11,6.28,38.55,52.66,18.05,52.66,18.05,0,0-30.37,77.62,105.1,28.83,0,0-13.67-13.69-17.37-38.14,5.27,1.37,10.45.7,14.08-1.67Z"/>
      <path class="st1" d="M606.3,734.06s5.33,8.92,2.89,18.67c-2.44,9.75-8.28,27.09-6.43,37.24"/>
      <path class="st9" d="M613.14,766.38s-8.24-8.18-13.94-14.49c-5.9-6.53-36.82,3.27-36.82,3.27,0,0-3.08,11.22,5.05,16.27,8.13,5.05,33.69-.67,34-3.49.31-2.82-5.8-8.62-5.8-8.62,0,0,12.85,9.72,15.99,10.03,3.13.31,1.52-2.97,1.52-2.97Z"/>
      <path class="st9" d="M589.67,762.88s1.74.97,4.65,3.87"/>
      <path class="st9" d="M583.47,764.24s1.55,1.16,2.71,2.52"/>
      <path class="st9" d="M562.38,755.16s-15.45.5-35.28,10.02"/>
      <path class="st9" d="M542.26,731.27s-1.19,20.23-4.36,28.96"/>
      <path class="st9" d="M629.61,776.78s-24.74-14-57.1-9.08l-1.43,16.27,69.47,1.51-10.94-8.71Z"/>
      <path class="st9" d="M634.11,778.65s24.74-14,57.1-9.08l1.43,16.27-69.47,1.51,10.94-8.71Z"/>
      <g>
        <g>
          <path class="st16" d="M604.89,684.03c-32.34,16.23-52.36,4.73-65.5-1.27-.88-4.66-1.37-12.2,2.27-19.02,2.62-4.9,4.88-7.02,6.59-7.88,1.81-.91,3.02-2.74,3.02-4.87-.02-5.29,2.21-8.18,7.15-11.78,9.48-6.9,15.9,1.12,15.9,1.12,0,0,.77-3.68,7.87-2.96,8.38.84,10.5,4.83,14.91,7.3,7.47,4.18,7.47,14.52,3.8,25.03-2.02,5.77.89,12.7,4,14.35Z"/>
          <path class="st11" d="M581.44,655.66c4.25-2.7,9.46-3.92,10.29,1.81.54,3.7.99,4.57,2.38,10.15,2.99,11.92-4.8,20.2-16.08,16.89-11.47-3.36-14.06-8.39-13.64-22.51.31-10.37,6.35-6.69,6.35-6.69,0,0,4.23,4.45,10.7.35Z"/>
          <path class="st16" d="M590.06,662.91c0,.94-.38,1.71-.85,1.71s-.85-.76-.85-1.71.38-1.71.85-1.71.85.76.85,1.71Z"/>
          <path class="st16" d="M579.12,664.04c.23.9.04,1.77-.4,1.93-.45.16-.99-.44-1.22-1.35-.23-.9-.04-1.77.4-1.93s.99.44,1.22,1.35Z"/>
          <path class="st5" d="M588.04,674.59s-2.98,1.43-7.47.88c0,0,2.2,4.66,4.66,4.22,2.46-.44,2.81-5.1,2.81-5.1Z"/>
          <path class="st11" d="M586.49,684.82s-1.05,5.68,2.42,10.52c0,0,2.81,9.36-.04,19.09-.85,2.91-4.45,3.93-6.77,1.98-4.93-4.15-12.39-11.54-14.46-19.66,0,0,.37-14.75-1.53-22.43,0,0,19.11,9.48,20.37,10.48Z"/>
          <path class="st16" d="M586.49,684.82s-5.27,1.08-11.04-1.8c-5.77-2.89,2.28,8.2,11.54,7.75,0,0-.85-2.02-.5-5.94Z"/>
          <path class="st16" d="M586.64,657.84s2.54-.19,4.51.85c1.97,1.03-2.54-4.6-4.51-.85Z"/>
          <path class="st16" d="M577.33,659.91s-2.44.94-3.38,2.16c-.94,1.22-.47-5.35,3.38-2.16Z"/>
          <path class="st11" d="M567.51,669.28s-3.04-3.29-6.2-2.66-.76,10.12,5.82,8.22c6.58-1.9.38-5.57.38-5.57Z"/>
          <path class="st5" d="M565.24,670.6s-.93-2.39-3.25-2.12"/>
        </g>
        <path class="st2" d="M534.58,681.97s-5.75-14.12,9.68-23.54"/>
        <path class="st16" d="M564.49,666.66s6.41-3.31,6.41-14.47-16.38,1.22-6.41,14.47Z"/>
      </g>
      <path class="st11" d="M660.51,687.93c-.39-1.83-1.2-1.31-1.2-1.31l-3.37-1.79-5.47-2.7-1.87.22,1.41,7.26s.38,5.63,2.97,3.69c.39-.3.39-.87.44-1.18.22.55,1.08,3.13,2.71,1.72,0,0,.24,3.65,3.2,1.86,1.61-.97,1.65-5.61,1.18-7.77Z"/>
      <path class="st9" d="M642.48,697.27s1.86-2.88,1.21-7.44c-.65-4.55,2.51-7.53,4-6.79,1.49.74,6.04,12.55.28,20.64"/>
      <path class="st9" d="M660.57,694.77s-2.46,4.5-3.86-1.23"/>
      <path class="st9" d="M644.52,676.8c4.92.61,11.94-1.91,12.93.74.99,2.65-2.88,5.71-8.11,4.13"/>
      <path class="st5" d="M651.64,686.12s-.01,5.26,1.33,7.18c0,0,1.23,2.56,3.45.15,2.22-2.41.53-8.88.53-8.88"/>
      <path class="st5" d="M566.25,675.31s2.42,11.73,1.1,21.26"/>
      <path class="st5" d="M586.99,690.77s.94,4.37,2.48,5.58"/>
      <path class="st5" d="M628.66,729.67s-3.99,8.54-5,15.99"/>
      <path class="st7" d="M542.81,698.37s17.71,15.94,42.93,13.51c22.65-2.18,25.02-11.31,25.02-11.31l-5.56-3.15s-8.57,8.68-27.55,7.54c-18.98-1.15-24.31-8.78-24.31-8.78,0,0-7.73,1.04-10.53,2.19Z"/>
      <path class="st9" d="M640.12,780.63c0-2.7-2.61-4.89-5.83-4.89s-5.83,2.19-5.83,4.89,2.61,4.89,5.83,4.89,5.83-2.19,5.83-4.89Z"/>
      <path class="st16" d="M700.59,785.11h0c-.2-1.59-1.45-2.77-2.94-2.79l-69.32-.6-.02.22-65.88-.57c-1.55-.01-2.86,1.25-3.01,2.91l-.08.84c-.18,1.9,1.21,3.55,2.99,3.54l135.29.11c1.81,0,3.21-1.73,2.96-3.67Z"/>
      <g>
        <rect class="st15" x="579.26" y="823.88" width="128.09" height="64.18"/>
        <path class="st15" d="M567.3,822.06s89.1-15.25,106.84-11.75c68.68,13.56-35.09,56.94-35.09,56.94l-71.74-45.19Z"/>
        <path class="st1" d="M600.02,856.02s37.46-20.39,69.71-11.86"/>
      </g>
      <path class="st16" d="M570.76,815.17h-63.44l-7.98,91.43,112.19,3.43v-54.09c0-22.51-18.25-40.77-40.77-40.77Z"/>
      <polygon class="st16" points="523.92 1012.1 516.25 1012.1 516.25 921.15 535.42 921.15 523.92 1012.1"/>
      <line class="st1" x1="611.43" y1="887.36" x2="611.43" y2="931.95"/>
    </g>
    <line class="st1" x1="545.19" y1="815.31" x2="518.37" y2="815.31"/>
  </g>
  <g>
    <g>
      <path class="st12" d="M864.4,611.46s-44.23,97.77,5.24,144.91c0,0,38.99-103.59-5.24-144.91Z"/>
      <path class="st12" d="M881.13,739.16s10.16-49.07,40.55-73.99c23.72-19.45,47.24-7.11,47.24-7.11,0,0-22.08,8.06-29.26,22.99-7.39,15.37-5.02,62.29-58.52,58.11Z"/>
      <path class="st1" d="M867.58,736.3s-8.16-55.26-.74-102.36"/>
      <path class="st1" d="M903.28,718.43s-11.56-20.37,8.36-26.9c25.27-8.28,22.21-33.95,52.39-35.63"/>
    </g>
    <rect class="st12" x="855.56" y="913.54" width="66.56" height="77.3" rx="3.49" ry="3.49"/>
  </g>
  <g>
    <path class="st9" d="M809.39,304.38c0,6.83,5.54,12.37,12.37,12.37s12.37-5.54,12.37-12.37-5.54-12.37-12.37-12.37-12.37,5.54-12.37,12.37Z"/>
    <line class="st9" x1="822.34" y1="292.18" x2="822.34" y2="19.03"/>
    <rect class="st9" x="810.7" y="245.27" width="22.86" height="38.29" rx="3.11" ry="3.11"/>
    <path class="st16" d="M860.99,304.42h-79.99c2.62-12.55,19.52-29.14,39.99-29.14s37.38,16.59,40,29.14Z"/>
  </g>
  <g>
    <path class="st8" d="M230.26,435.76c0,10.44,8.46,18.9,18.9,18.9s18.9-8.46,18.9-18.9-8.46-18.9-18.9-18.9-18.9,8.46-18.9,18.9Z"/>
    <line class="st8" x1="250.03" y1="417.13" x2="250.03"/>
    <rect class="st8" x="232.25" y="345.49" width="34.91" height="58.48" rx="3.11" ry="3.11"/>
    <path class="st16" d="M309.06,435.83h-122.15c4-19.16,29.82-44.5,61.07-44.5s57.08,25.33,61.08,44.5Z"/>
  </g>
  <g>
    <path class="st9" d="M429.24,896.79s-11.75-10.15-6.58-13.29c6.17-3.75,7.03,9.09,7.15,12.09,0,.17.24.22.32.07l9.34-16.59"/>
    <g>
      <path class="st16" d="M255.95,670.02s1.47-9.82-3.02-23.27c-4.48-13.45,11.21-17.37,14.57-16.25,0,0,3.36-6.73,14.01-5.6s21.58,18.22,32.51,15.97c0,0-3.54,11.4-15.92,11.02-12.38-.38-42.15,18.13-42.15,18.13Z"/>
      <path class="st9" d="M362.75,790.14s16.23,3.01,26-4.15c4.74-3.47,11.36-3.39,15.37.9.3.32.59.65.88,1.01.63.79,1.61,1.23,2.62,1.21h0c2.55-.05,4.11-2.85,2.77-5.02-3.59-5.86-9-12.43-18.88-15.72-14.76-4.92-30.48,1.24-30.48,1.24,0,0,4.01,11.34,1.71,20.52Z"/>
      <path class="st9" d="M385.72,847.19c-.53-27.79-23.21-50.16-51.12-50.16-.98,0-1.95.03-2.92.09h-45.96v29.09h2.68c-3.17,6.66-4.95,14.11-4.95,21.97,0,28.25,22.9,51.15,51.15,51.15.39,0,.77-.02,1.16-.03v8.32h50.17v-60.43h-.2Z"/>
      <path class="st9" d="M260.6,694.56h-94.65c-17.03,0-30.84,13.81-30.84,30.84v158.44c0,20.98,17,37.98,37.98,37.98h125.53s-7.96-133.77-7.18-196.05c.21-17.18-13.66-31.2-30.83-31.2Z"/>
      <g>
        <path class="st9" d="M297.5,644.89c-6.45-6.2-20.55-6.67-28.83,1.47-5.11,5.03-9.12,14.31-7.97,21.39l-13.95,20.73s16.69,9.58,30.27,7.98c0,0-.8-5.92,2.38-10.84,1.76.78,3.59,1.07,5.32.42,6.76-2.57,9.5-10.7,9.5-10.7,0,0,3.06,1.84,3.92.97.85-.87-.71-6.19,1.19-9.82,1.9-3.63,4.62-15.4-1.83-21.6Z"/>
        <path class="st16" d="M260.3,672.09c-1.7,1.79-4.64.37-4.35-2.08.23-1.99.25-4.5-.12-7.64-1.47-12.42,8.01-33.27,29.57-30.81,18.77,2.14,20.06,15.74,16.03,20.07-.87.94-2.32,1.03-3.33.26-3.13-2.37-11.97-8.1-23-7.03-1.02.1-1.85.84-2.12,1.83-1.24,4.54-5.3,17.63-12.69,25.42Z"/>
        <path class="st16" d="M259.08,672.86s9.58-2.1,14.97-11.01l3.73,1.18s5.46-1.69,6.79-13.26c0,0,16.21,7.74,23.46-.51,7.25-8.24-13.9-13.11-25.26-13.3-11.36-.19-25.6,26.85-23.69,36.9Z"/>
        <path class="st11" d="M278.61,664.12s1.62-6.78-3.85-7.03c-5.47-.24-6.28,10.77-2.2,11.49,4.07.72,6.05-4.47,6.05-4.47Z"/>
        <path class="st9" d="M276.56,664.48s1.55-4.14-2.84-4.32"/>
        <path class="st16" d="M292.43,667.51c-.1.96.21,1.78.69,1.83s.95-.69,1.05-1.65c.1-.96-.21-1.78-.69-1.83-.48-.05-.95.69-1.04,1.65Z"/>
        <path class="st16" d="M291.48,663.79s1.55-.27,3.46.17c1.91.44,1.91-1.94-.72-1.91-2.63.04-3.65,1.71-2.74,1.74Z"/>
        <path class="st16" d="M280,685.26s-7.54-4.23-8.26-3.22c-.72,1.01,4.1,10.7,5.63,9.49.15-.12.49-4.41,2.64-6.27Z"/>
        <path class="st9" d="M288.44,679.67s.28,1.73,1.82,2.11"/>
      </g>
      <g>
        <rect class="st16" x="218.38" y="920.5" width="13.81" height="70.78"/>
        <g>
          <g>
            <g>
              <path class="st16" d="M176.13,1002.2c0,4.19,3.39,7.58,7.58,7.58s7.58-3.39,7.58-7.58-3.39-7.58-7.58-7.58-7.58,3.39-7.58,7.58Z"/>
              <path class="st16" d="M258.1,1002.2c0,4.19,3.39,7.58,7.58,7.58s7.58-3.39,7.58-7.58-3.39-7.58-7.58-7.58-7.58,3.39-7.58,7.58Z"/>
            </g>
            <line class="st5" x1="182.35" y1="1002.2" x2="264.32" y2="1002.2"/>
          </g>
          <path class="st5" d="M207.13,1001.97v-3.6c0-3.73,2.99-6.75,6.69-6.75h23.41c3.69,0,6.69,3.02,6.69,6.75v3.76"/>
        </g>
      </g>
      <path class="st16" d="M364.06,788.95s-46.08,1.44-54.88-.76c-8.8-2.2-37.13-22.37-37.13-22.37l-5.16,90.78-83.71-3.16s.48-25.92,3.11-57.07c.09.13.18.24.27.35,0,0,.13-1.35.46-3.77,2.1-15.73,12.2-76.27,45.5-99.24,15.93-10.99,37.64-8.07,50.87,6.04l48.52,51.77,28.64,13.59c17.6,6.6,3.5,23.84,3.5,23.84Z"/>
      <path class="st11" d="M154.9,856.61h111.99c17.89,0,32.39,14.5,32.39,32.39h0c0,17.89-14.5,32.39-32.39,32.39h-88.39s-24.16-64.78-23.61-64.78Z"/>
      <path class="st17" d="M397.58,1008.85l-91.39-1.46-4.13-19.02-1.98-9.13c-.49-2.29-1.1-4.54-1.77-6.77-7.88-26.23-13.04-64.47-7.88-84.5,0,0-14.82,5.6-28.93,5.6-24.6,0-60.8-4.24-74.21-27.57-13.15-22.9-1.26-53.54-1.26-53.54,0,0,103.64-15.86,133.48-5.74,40.94,13.9,55.7,64.02,83.08,83.23-3.22,4.55-7.34,13.01-5.87,25.39,1.59,13.26-8.84,24.37-15.69,30.15-8.43-7.19-20.47-18.95-28.87-33.42,0,0-3.88,32.93,3.93,55.81,2.41,7.08,5.95,13.21,11.07,17.1,14.74,11.18,28.46,11.18,30.42,23.87Z"/>
      <path class="st5" d="M353.03,911.21s14.2-64.94-20.35-65.52c-37.6-.63-41.3,28.85-78.27,28.92"/>
      <path class="st16" d="M269.77,803.61s-10.02,25.57-57.86,31.17c-47.85,5.59-5.59-49.09-5.59-49.09l63.46,17.92Z"/>
      <g>
        <line class="st5" x1="186.58" y1="796.72" x2="161.76" y2="796.72"/>
        <path class="st11" d="M253.16,847.19c-.53-27.79-23.21-50.16-51.12-50.16-.98,0-1.95.03-2.92.09h-45.96v29.09h2.68c-3.17,6.66-4.95,14.11-4.95,21.97,0,28.25,22.9,51.15,51.15,51.15.39,0,.77-.02,1.16-.03v8.32h50.17v-60.43h-.2Z"/>
      </g>
      <path class="st5" d="M289.98,888.43s4.67-5.04,10.09-8.65"/>
      <path class="st16" d="M438.08,788.14l20.91-55.73c.61-1.63-.21-3.44-1.84-4.05l-1.36-.51c-1.63-.61-3.44.21-4.05,1.84l-19.04,50.75c-.46,1.23-1.63,2.04-2.94,2.04h-56.25c-1.74,0-3.14,1.41-3.14,3.14h0c0,1.74,1.41,3.14,3.14,3.14h64.28l.05.02v-.02h.24v-.63Z"/>
      <path class="st9" d="M390.87,774.48s7.67,2.34,13.84,9.8"/>
      <path class="st9" d="M387.68,777.04s4.68,1.7,9.8,6.6"/>
      <line class="st9" x1="253.03" y1="892.69" x2="253.03" y2="922.32"/>
      <path class="st9" d="M462.11,902.08l-71.16,51.15s-8.99-6.97-14.83-11.93c6.86-5.78,22.18-12.69,20.59-25.96-1.46-12.38,2.65-20.83,5.87-25.39,4.12,2.89,8.52,5.09,13.34,6.35,4.39,1.13,9,1.15,13.5.44,6.55-1.02,21.35-2.21,32.69,5.34Z"/>
      <path class="st9" d="M397.58,1008.85l-91.39-1.46-4.13-19.02c8.16.82,25.94,1.81,35.74-3.6,9.64-5.32,10.81-13.44,18.29-16.88,2.41,7.08,5.95,13.21,11.07,17.1,14.74,11.18,28.46,11.18,30.42,23.87Z"/>
      <path class="st1" d="M272.05,765.82s-9.38-9.5-15.5-10.47"/>
      <path class="st9" d="M381.95,981.63c-.49,0-11.98,5.18-11.98,5.18l5.51-13.28"/>
      <path class="st1" d="M289.97,776.12s27.49-16.49,35.46,13.47"/>
      <polygon class="st16" points="462.66 901.86 390.84 953.66 397.83 958.87 468.58 906.12 462.66 901.86"/>
      <polygon class="st16" points="305.66 1007.07 306.96 1013.46 398.48 1014.96 398.04 1008.76 305.66 1007.07"/>
    </g>
  </g>
  <g>
    <path class="st14" d="M776.44,804.72h-491.93c-4.41,0-7.98-3.57-7.98-7.98h0c0-4.41,3.57-7.98,7.98-7.98h491.93c4.41,0,7.98,3.57,7.98,7.98h0c0,4.41-3.57,7.98-7.98,7.98Z"/>
    <rect class="st14" x="332.92" y="800.22" width="7.59" height="228.06"/>
  </g>
  <g>
    <path class="st9" d="M757.93,773.42s-4.85-3.65-10.52-5.69c-8.42-5.08-13.43-2.86-18.44-1.42-5.24,1.51-8.79-.93-9.41.19-.4.73,4.03,4.99,11.16,3.49-4.84,1.77-16.43,4.68-20.81,4.05-8.87-1.27-3.84,1.59,6.48,3.5.29.05.3.48,0,.52-1.76.29-5.15.97-9.58.35-7.85-1.11-9.75,2.36,5.68,3.61.47.04,2.98.18,2.58.43-1.9,1.16-5.91.85-10.28.18-4.79-.74,2.26,3.9,11.75,4.37-.11.65-5.4,1.11-7.63.65-5.33-1.11-1.73,3.59,10.24,1.47,9.71-1.72,17.13-1.92,19.58-1.93,6.85,1.62,12.02,4.28,12.02,4.28,0,0,7.28-9.49,7.16-18.06Z"/>
    <g>
      <g>
        <path class="st16" d="M947.46,850.51c11.01-38.29,29.31-75.22,37.35-103.07,5.28-18.32-8.08-36.74-27.11-37.71h0c-13.6-.7-25.5,6.14-32.05,21.11l-33.75,71.43c-6.07,12.11-18.46,19.76-32,19.76h-81.13c-28.9,0-50.33,26.81-43.97,55h0c11.8,52.27,58.47,89.23,112.06,88.73h0c38.48-.36,72.39-25.33,84.17-61.96,5.96-18.55,12.06-38.03,16.45-53.29Z"/>
        <path class="st16" d="M958.04,709.69l-29.93-.52-114.41,257.14,33.14-.55s59.03-15.66,88.57-132.48c29.53-116.83,22.63-123.6,22.63-123.6Z"/>
      </g>
      <path class="st7" d="M847.92,742.56l-8.98-37.56s-16.5,4.73-31.55,20.86c-16.5,17.68-21.45,27.32-23.1,31.91-.98,2.71-.72,14.5-1.47,19.63-1.86,12.85-6.66,23.9-6.67,30.31-.05,38.89,12.57,63.24,12.57,63.24l83.68-38.2-24.48-90.19Z"/>
      <rect class="st16" x="830.34" y="941.24" width="13.81" height="70.78"/>
      <path class="st9" d="M767.11,992.35c.82,2.09,1.61,4.17,2.41,6.37l-36.99,23.34c-8.58,5.41-18.53,8.27-28.68,8.19l-29.67-.2s.29-2.69,2.3-6.77c2.16-4.41,6.31-10.44,14.21-16.44,10.57-8.03,11.01-28.98,12.73-39.8,1.28-8.03,4.46-14.43,4.46-14.43-2.21-27.6-5.95-68.16-9.82-85.74-3.53-15.97-9.29-24.2-1.61-38.63.38-.71.77-1.41,1.17-2.09,13.17-22.57,42.75-29.3,65.03-15.68l64.39,27.91,6.86,80.39-120.16-75.93c11.03,35.82,24.62,55.37,43.65,120.91,4.04,13.94,6.95,21.42,9.71,28.59Z"/>
      <path class="st9" d="M798.74,840.72l-21.24,77.85-57.22-23.65c-1.96,37.43-14.73,68.07-22.92,84.71-1.65,4.34-5.1,11.93-8.07,21.27-2.07,6.6-3.9,14.07-4.63,21.86-.24,2.4-.37,4.81-.37,7.24h-101.43s.88-3.24,3.82-7.24c3.15-4.26,8.69-9.38,18.15-12.29,6.55-2.01,11.94-5.63,16.37-9.99,4.15-4.08,7.46-8.8,10.04-13.43,3.99-7.1,6.27-13.98,7.39-18,.04-.11.05-.2.09-.29.57-2.07.82-3.31.82-3.31l.09.04c7.43-26.69,17.89-66.04,20.3-83.89,2.18-16.21,7.43-31.85,19.61-42.75,14.3-12.84,33.95-17.87,52.68-13.55l66.49,15.42Z"/>
      <path class="st16" d="M795.1,654.42s.52-.78,1.52-1.88c2.11-2.33,6.41-5.64,12.17-6.94,15.98-3.6,35.36,10.79,32.9,23.54-2.46,12.76-8.22,20.57-8.22,20.57l-38.36-35.29Z"/>
      <path class="st5" d="M790.63,677.28s-10,2.69-11.55-6.36c-1.55-9.04,8.55-18.55,19-18.28"/>
      <path class="st7" d="M753.48,766.61c-1.86-.59-3.78.84-4.13,2.76-.96,5.23-3.71,14.61-11.33,19.84-10.95,7.52,53.47,48.36,62.25,38.19,6.87-7.97-8.4-51.71-10.28-59.55-.46-1.9,4.53,13.76,2.64,14.25-5.39,1.4-28.37-12.06-39.14-15.49Z"/>
      <path class="st16" d="M796.62,652.54s-16.28,4.8-14.78,22.07c0,0,1.38,8.45,8.42,5.11,7.04-3.35,4.09,3.57,11.49,6.52,7.4,2.95,28.35-3.41,21.97-18.84-6.38-15.43-27.11-14.86-27.11-14.86Z"/>
      <path class="st5" d="M747.97,774.3"/>
      <path class="st16" d="M796.41,677.94s-3.49,17.46,19.1,22.18c22.6,4.72,35.54-17.67,25.47-35.13-10.07-17.46-44.57,12.94-44.57,12.94Z"/>
      <path class="st5" d="M830.06,687.39s18.59-3.83,17.43,14.3c-1.16,18.13-24.64,15.34-28.35,8.37"/>
      <path class="st9" d="M704.2,857.58s.92-15.34,1.23-22.1c.31-6.75,19.94-22.63,19.94-22.63,0,0,5.84,2.63,9.37,11.1"/>
      <path class="st7" d="M723.51,813.51s5.52-12.58,51.25-17.8c45.73-5.22,61.99,2.15,61.99,2.15l-7.17,24.18-98.1,10.81-7.98-19.33Z"/>
      <path class="st9" d="M917.17,850.51c11.01-38.29,29.31-75.22,37.35-103.07,5.28-18.32-8.08-36.74-27.11-37.71h0c-13.6-.7-25.5,6.14-32.05,21.11l-33.75,71.43c-6.07,12.11-18.46,19.76-32,19.76h-81.13c-28.9,0-50.33,26.81-43.97,55h0c11.8,52.27,58.47,89.23,112.06,88.73h0c38.48-.36,72.39-25.33,84.17-61.96,5.96-18.55,12.06-38.03,16.45-53.29Z"/>
      <path class="st5" d="M744.99,800.57s27.08-9.36,59.51-8.02"/>
      <path class="st5" d="M806.84,745.07s-1.34,38.11-9.03,47.14"/>
      <path class="st5" d="M842.94,819.63s5.35-11.7-2.01-49.14"/>
      <g>
        <g>
          <g>
            <path class="st16" d="M788.09,1022.94c0,4.19,3.39,7.58,7.58,7.58s7.58-3.39,7.58-7.58-3.39-7.58-7.58-7.58-7.58,3.39-7.58,7.58Z"/>
            <path class="st16" d="M870.06,1022.94c0,4.19,3.39,7.58,7.58,7.58s7.58-3.39,7.58-7.58-3.39-7.58-7.58-7.58-7.58,3.39-7.58,7.58Z"/>
          </g>
          <line class="st5" x1="794.31" y1="1022.94" x2="876.28" y2="1022.94"/>
        </g>
        <path class="st5" d="M819.09,1022.7v-3.6c0-3.73,2.99-6.75,6.69-6.75h23.41c3.69,0,6.69,3.02,6.69,6.75v3.76"/>
      </g>
      <path class="st16" d="M684.67,1022.77c-.24,2.4-.37,4.81-.37,7.24h-101.43s.88-3.24,3.82-7.24h97.97Z"/>
      <path class="st16" d="M769.53,998.71l-36.99,23.34c-8.58,5.41-18.53,8.27-28.68,8.19l-29.67-.2s.29-2.69,2.3-6.77c4.87-.33,8.18-.51,8.18-.51,0,0,19.96,2.56,33.79-2.32,10.43-3.68,36.46-20.19,48.66-28.1.82,2.09,1.61,4.17,2.41,6.37Z"/>
      <path class="st9" d="M730.73,769.99s2.49,5.01,11.59,4.24"/>
      <path class="st9" d="M710.8,833s-1.99,1.99-2.56,5.4c-.57,3.41-1.56,10.94-1.56,10.94"/>
      <path class="st16" d="M635.9,977.5s59.91,2.54,61.46,2.13c0,0,7.52-15.87,9.04-20.95l-64.34-2.7-6.16,21.51Z"/>
      <path class="st16" d="M701.93,979.32s15.1,5.83,53.79-20.67l-2.91-11.92-8.21-5.56s-8.58-5.57-25.74-28.94c0,0-5.02,31.04-15.24,54.89-1.21,2.83-1.68,12.2-1.68,12.2Z"/>
      <path class="st9" d="M786.77,680.29s4.62,7.96,6.42,17.73c1.8,9.76,9.76,15.67,21.32,10.79"/>
      <path class="st9" d="M809.9,710.28s3.19,6.11,2.42,10.48"/>
      <ellipse class="st16" cx="830" cy="704.23" rx="17.36" ry="16.02"/>
      <path class="st16" d="M815.71,708.93s2.17,6.33-3.73,7.36l-1.46-4.71s-1.62-1.57,5.68-2.81"/>
      <path class="st16" d="M782.45,672.63s-1.91,15.63,19.31,13.61c21.22-2.03-9.1-17.26-12.3-16.65s-7.01,3.05-7.01,3.05Z"/>
    </g>
  </g>
  <text class="st18" transform="translate(653.37 327.7)"><tspan x="0" y="0">Goals</tspan></text>
  <text class="st18" transform="translate(632.16 511.85)"><tspan x="0" y="0">On time</tspan></text>
  <text class="st18" transform="translate(629.89 417.98)"><tspan x="0" y="0">Analysis</tspan></text>
  <text class="st18" transform="translate(546.85 361.58) rotate(13.36)"><tspan x="0" y="0">Ideas</tspan></text>
  <text class="st18" transform="translate(530.17 284.32) rotate(-2.2)"><tspan x="0" y="0">Team work</tspan></text>
  <text class="st18" transform="translate(421.64 323.08) rotate(-2.2)"><tspan x="0" y="0">Work</tspan></text>
  <text class="st18" transform="translate(460.2 451.08) rotate(-2.2)"><tspan x="0" y="0">Plan</tspan></text>
  <text class="st18" transform="translate(560.03 425.67) rotate(-2.2)"><tspan x="0" y="0">Grow</tspan></text>
  <text class="st6" transform="translate(436.75 484.5)"><tspan x="0" y="0">AGENDA</tspan></text>
</svg>