<svg width="1533" height="421" viewBox="0 0 1533 421" fill="none" xmlns="http://www.w3.org/2000/svg">
<mask id="mask0_1341_14" style="mask-type:luminance" maskUnits="userSpaceOnUse" x="0" y="0" width="1533" height="421">
<path d="M1533 0H0V421H1533V0Z" fill="white"/>
</mask>
<g mask="url(#mask0_1341_14)">
<path d="M-91.6105 421L1744.77 421V0L-91.6105 0V421Z" fill="url(#paint0_linear_1341_14)"/>
<path d="M125.511 396.61C263.56 396.61 375.471 284.699 375.471 146.65C375.471 8.60083 263.56 -103.31 125.511 -103.31C-12.5383 -103.31 -124.449 8.60083 -124.449 146.65C-124.449 284.699 -12.5383 396.61 125.511 396.61Z" fill="url(#paint1_linear_1341_14)"/>
<path d="M1025.84 849.64C1228.84 849.64 1393.4 685.078 1393.4 482.08C1393.4 279.082 1228.84 114.52 1025.84 114.52C822.843 114.52 658.281 279.082 658.281 482.08C658.281 685.078 822.843 849.64 1025.84 849.64Z" fill="url(#paint2_linear_1341_14)"/>
<path d="M1416.13 167.83C1497.38 167.83 1563.25 101.962 1563.25 20.71C1563.25 -60.5422 1497.38 -126.41 1416.13 -126.41C1334.88 -126.41 1269.01 -60.5422 1269.01 20.71C1269.01 101.962 1334.88 167.83 1416.13 167.83Z" fill="url(#paint3_linear_1341_14)"/>
</g>
<defs>
<linearGradient id="paint0_linear_1341_14" x1="1744.77" y1="210.5" x2="-91.6204" y2="210.5" gradientUnits="userSpaceOnUse">
<stop stop-color="#B91000"/>
<stop offset="0.39" stop-color="#69191D"/>
<stop offset="0.8" stop-color="#3A1618"/>
<stop offset="1" stop-color="#141414"/>
</linearGradient>
<linearGradient id="paint1_linear_1341_14" x1="341.983" y1="21.6623" x2="-191.567" y2="329.707" gradientUnits="userSpaceOnUse">
<stop stop-color="#B91000"/>
<stop offset="0.26" stop-color="#69191D"/>
<stop offset="0.67" stop-color="#3A1618"/>
<stop offset="1" stop-color="#141414"/>
</linearGradient>
<linearGradient id="paint2_linear_1341_14" x1="658.281" y1="482.08" x2="1564.21" y2="482.08" gradientUnits="userSpaceOnUse">
<stop stop-color="#B91000"/>
<stop offset="0.26" stop-color="#69191D"/>
<stop offset="0.67" stop-color="#3A1618"/>
<stop offset="1" stop-color="#141414"/>
</linearGradient>
<linearGradient id="paint3_linear_1341_14" x1="1269.01" y1="20.71" x2="1631.62" y2="20.71" gradientUnits="userSpaceOnUse">
<stop stop-color="#B91000"/>
<stop offset="0.26" stop-color="#69191D"/>
<stop offset="0.67" stop-color="#3A1618"/>
<stop offset="1" stop-color="#141414"/>
</linearGradient>
</defs>
</svg>
